<svg width="203" height="41" viewBox="0 0 203 41" fill="none" xmlns="http://www.w3.org/2000/svg">
<path d="M30.0834 40.1494H28.0609C27.3869 40.1494 26.7969 39.559 26.7969 38.8843C26.7969 38.2095 26.2071 37.6191 25.5329 37.6191C24.8589 37.6191 24.2689 38.2095 24.2689 38.8843C24.2689 39.559 23.6791 40.1494 23.0049 40.1494H19.8028C19.1286 40.1494 18.5388 39.559 18.5388 38.8843C18.5388 38.2095 17.9489 37.6191 17.2748 37.6191C16.6006 37.6191 16.0108 38.2095 16.0108 38.8843C16.0108 39.559 15.4209 40.1494 14.7468 40.1494H11.5446C10.8705 40.1494 10.2806 39.559 10.2806 38.8843C10.2806 38.2095 9.69072 37.6191 9.01658 37.6191C8.34244 37.6191 7.75257 38.2095 7.75257 38.8843C7.75257 39.559 7.1627 40.1494 6.48856 40.1494H4.46617C2.02242 40.1494 0 38.1252 0 35.679V35.0886C0 34.4138 0.58987 33.8234 1.26401 33.8234C1.93814 33.8234 2.52801 33.2329 2.52801 32.5582C2.52801 31.8834 1.93814 31.293 1.26401 31.293C0.58987 31.293 0 30.7025 0 30.0278V26.8225C0 26.1478 0.58987 25.5573 1.26401 25.5573C1.93814 25.5573 2.52801 24.9669 2.52801 24.2921C2.52801 23.6174 1.93814 23.0269 1.26401 23.0269C0.58987 23.0269 0 22.4365 0 21.7616V18.5565C0 17.8817 0.58987 17.2913 1.26401 17.2913C1.93814 17.2913 2.52801 16.7008 2.52801 16.0261C2.52801 15.3512 1.93814 14.7608 1.26401 14.7608C0.58987 14.7608 0 14.1704 0 13.4956V10.2904C0 9.61563 0.58987 9.02519 1.26401 9.02519C1.93814 9.02519 2.52801 8.43475 2.52801 7.75998C2.52801 7.0852 1.93814 6.49476 1.26401 6.49476C0.58987 6.49476 0 5.90433 0 5.22955V4.47043C0 2.02435 2.02242 0 4.46617 0H6.48856C7.1627 0 7.75257 0.590434 7.75257 1.26522C7.75257 1.93999 8.34245 2.53043 9.10086 2.53043C9.77499 2.53043 10.2806 1.93999 10.3649 1.26522C10.3649 0.590434 10.9547 0 11.6289 0H14.831C15.5052 0 16.095 0.506085 16.095 1.26522C16.095 1.93999 16.6848 2.53043 17.4432 2.53043C18.1174 2.53043 18.623 1.93999 18.7073 1.26522C18.7073 0.590434 19.2972 0 19.9713 0H23.1735C23.8476 0 24.4375 0.590434 24.4375 1.26522C24.4375 1.93999 25.0273 2.53043 25.7857 2.53043C26.4599 2.53043 26.9655 1.93999 27.0497 1.26522C27.0497 0.590434 27.6396 0 28.3137 0H30.3362C32.7799 0 34.8024 2.02435 34.8024 4.47043V5.22955C34.8024 5.90433 34.2124 6.49476 33.5384 6.49476C32.8642 6.49476 32.2743 7.0852 32.2743 7.75998C32.2743 8.43475 32.8642 9.02519 33.5384 9.02519C34.2124 9.02519 34.8024 9.61563 34.8024 10.2904V13.4956C34.8024 14.1704 34.2124 14.7608 33.5384 14.7608C32.8642 14.7608 32.2743 15.3512 32.2743 16.0261C32.2743 16.7008 32.8642 17.2913 33.5384 17.2913C34.2124 17.2913 34.8024 17.8817 34.8024 18.5565V21.7616C34.8024 22.4365 34.2124 23.0269 33.5384 23.0269C32.8642 23.0269 32.2743 23.6174 32.2743 24.2921C32.2743 24.9669 32.8642 25.5573 33.5384 25.5573C34.2124 25.5573 34.8024 26.1478 34.8024 26.8225V30.0278C34.8024 30.7025 34.2124 31.293 33.5384 31.293C32.8642 31.293 32.2743 31.8834 32.2743 32.5582C32.2743 33.2329 32.8642 33.8234 33.5384 33.8234C34.2124 33.8234 34.8024 34.4138 34.8024 35.0886V35.679C34.5496 38.1252 32.6114 40.0651 30.0834 40.1494C30.1676 40.1494 30.0834 40.1494 30.0834 40.1494ZM29.1564 37.5347H30.0834C30.926 37.5347 31.6844 36.9443 31.9372 36.1008C29.9148 35.3417 28.9036 33.1486 29.662 31.1243C30.0834 30.0278 30.926 29.1842 32.0215 28.8469V27.8347C29.9991 27.1599 28.9036 24.8826 29.662 22.8582C30.0834 21.7616 30.926 20.9182 32.0215 20.4964V19.3999C29.9991 18.7251 28.9036 16.4477 29.662 14.4235C30.0834 13.3269 30.926 12.4834 32.0215 12.0617V11.0495C30.5047 10.4591 29.4092 9.02519 29.4092 7.42259C29.4092 5.81998 30.4204 4.30173 31.9372 3.79564C31.7687 2.86781 31.0103 2.19304 30.0834 2.19304H29.1564C28.398 4.21738 26.2071 5.22955 24.1847 4.47043C23.1735 4.04869 22.3308 3.28956 21.9095 2.19304H20.814C20.0556 4.21738 17.7804 5.22955 15.8422 4.38608C14.831 3.96433 13.9884 3.20521 13.6513 2.19304H12.5558C11.7974 4.21738 9.60645 5.22955 7.58405 4.47043C6.57284 4.04869 5.73017 3.28956 5.30884 2.19304H4.29763C3.37068 2.19304 2.52801 2.86781 2.44375 3.79564C4.46616 4.55477 5.47736 6.74781 4.80322 8.77215C4.38189 9.86867 3.53922 10.7121 2.44375 11.1339V12.1461C4.46616 12.8208 5.56163 15.0982 4.80322 17.1225C4.38189 18.219 3.53922 19.0626 2.44375 19.4843V20.4964C4.46616 21.1712 5.56163 23.4486 4.80322 25.473C4.38189 26.5695 3.53922 27.4129 2.44375 27.8347V28.8469C4.46616 29.606 5.56163 31.7991 4.80322 33.8234C4.38189 34.9199 3.53922 35.7634 2.52801 36.1851C2.78081 37.0286 3.45495 37.6191 4.38189 37.6191H5.30884C5.98297 35.5947 8.25818 34.4981 10.2806 35.2573C11.3761 35.679 12.2187 36.5225 12.6401 37.6191H13.6513C14.3254 35.5947 16.6006 34.4981 18.623 35.2573C19.7185 35.679 20.5612 36.5225 20.9825 37.6191H21.9937C22.6679 35.5947 24.9431 34.4981 26.9655 35.2573C27.8924 35.5103 28.8193 36.4382 29.1564 37.5347Z" fill="#0B22F6"/>
<path d="M20.6078 8.70682C21.5016 9.60146 22.0378 10.854 22.0378 12.1661V17.5339C21.9187 17.2954 21.6803 17.0568 21.5016 16.8778C20.9057 16.2815 20.2503 15.864 19.5352 15.5061V12.1661C19.5949 10.9136 18.5819 9.78039 17.271 9.6611C15.9601 9.54181 14.8875 10.6154 14.828 11.8679C14.828 11.9872 14.828 11.9872 14.828 12.1065V18.1901C14.8875 19.4426 15.9005 20.4564 17.1518 20.5161V23.1403C14.4109 23.1403 12.2062 20.9336 12.2658 18.2497V12.1661C12.2658 9.42253 14.4109 7.27539 17.1518 7.27539C18.4627 7.27539 19.714 7.81218 20.6078 8.70682Z" fill="url(#paint0_linear)"/>
<path d="M14.769 23.9761V27.316C14.769 28.6282 15.7224 29.7018 17.0333 29.7018C18.3441 29.7018 19.4167 28.7474 19.4167 27.4353L19.3571 21.4114C19.2976 20.1589 18.2846 19.145 17.0333 19.0853L17.1525 16.3418C19.8338 16.4014 21.9789 18.5485 22.0385 21.2325V27.316C22.098 29.9999 19.9529 32.2664 17.212 32.2664C14.4711 32.2664 12.2664 30.1789 12.2664 27.4353V27.316V21.9482C12.3856 22.1868 12.6239 22.4254 12.8026 22.6043C13.3986 23.2007 14.0539 23.6182 14.769 23.9761Z" fill="url(#paint1_linear)"/>
<path d="M51.3195 30.2811C47.4432 30.2811 44.3254 29.1002 42.0502 26.8228L44.5782 23.2802C46.432 25.2202 48.7916 26.2324 51.5723 26.2324C52.7521 26.2324 53.6791 25.9794 54.3531 25.5576C55.0273 25.0515 55.3643 24.5454 55.3643 23.8707C55.3643 23.2802 55.0273 22.7741 54.4375 22.3524C53.8475 21.9307 53.0049 21.6776 52.0779 21.5089C51.151 21.3403 50.1398 21.0872 49.0444 20.7497C47.9488 20.4124 46.9376 20.075 46.0108 19.6533C45.0838 19.2315 44.3254 18.5568 43.6512 17.7132C43.0614 16.7855 42.7243 15.6889 42.7243 14.4238C42.7243 12.568 43.4827 10.9655 44.9996 9.70025C46.5164 8.43503 48.5388 7.76025 51.0668 7.76025C54.5217 7.76025 57.3868 8.77243 59.5777 10.7967L56.9655 14.255C55.1959 12.6525 53.0891 11.8933 50.5611 11.8933C49.55 11.8933 48.7916 12.062 48.286 12.4837C47.696 12.9055 47.4432 13.4116 47.4432 14.0863C47.4432 14.5924 47.7804 15.0985 48.3702 15.4359C48.9601 15.7733 49.8027 16.0263 50.7297 16.2794C51.6566 16.448 52.6679 16.7011 53.7633 17.0385C54.8587 17.3759 55.8699 17.7976 56.7969 18.2193C57.7239 18.6411 58.4823 19.3159 59.1564 20.2437C59.7463 21.1715 60.0833 22.268 60.0833 23.5332C60.0833 25.6419 59.3249 27.3289 57.8081 28.5941C56.3755 29.6063 54.1847 30.2811 51.3195 30.2811Z" fill="white"/>
<path d="M69.0165 30.2812C67.5839 30.2812 66.4042 29.9437 65.6458 29.1846C64.8874 28.4254 64.466 27.329 64.466 25.9794V17.7133H61.8538V14.0864H64.466V9.78467H68.6794V14.0864H71.8815V17.7133H68.6794V24.8828C68.6794 25.3889 68.8479 25.8107 69.1007 26.1481C69.3535 26.4855 69.6906 26.6541 70.1119 26.6541C70.7861 26.6541 71.2917 26.4855 71.5445 26.2325L72.4715 29.3533C71.7131 29.9437 70.5333 30.2812 69.0165 30.2812Z" fill="white"/>
<path d="M88.9861 29.8599H84.7728V28.173C83.5931 29.5225 81.992 30.1973 79.7168 30.1973C78.2842 30.1973 77.0202 29.6912 75.9248 28.7634C74.8293 27.8356 74.2394 26.5704 74.2394 24.8834C74.2394 23.1964 74.8293 21.9312 75.9248 21.0034C77.0202 20.0756 78.2842 19.7382 79.801 19.7382C82.0763 19.7382 83.7616 20.413 84.8571 21.6782V19.5695C84.8571 18.726 84.52 18.1356 83.9302 17.6295C83.256 17.1235 82.4134 16.8704 81.4022 16.8704C79.6326 16.8704 78.1157 17.4608 76.7674 18.726L75.1664 15.9425C77.0202 14.2556 79.3798 13.4121 82.0763 13.4121C84.0987 13.4121 85.784 13.9182 87.0481 14.8461C88.3121 15.7738 88.9861 17.2921 88.9861 19.4852V29.8599ZM81.4864 27.4981C83.0032 27.4981 84.1829 27.0765 84.8571 26.1486V24.2086C84.1829 23.2808 83.0875 22.859 81.4864 22.859C80.6438 22.859 79.8854 23.1121 79.3798 23.5339C78.7898 23.9555 78.537 24.546 78.537 25.3052C78.537 26.0643 78.7898 26.5704 79.3798 26.9921C79.8854 27.2451 80.6438 27.4981 81.4864 27.4981Z" fill="white"/>
<path d="M117.468 29.8593H113.255V19.822C113.255 18.135 112.496 17.2916 110.896 17.2916C110.222 17.2916 109.547 17.4602 109.041 17.882C108.452 18.2193 108.031 18.7254 107.609 19.1472V29.8593H103.396V19.822C103.396 18.135 102.637 17.2916 101.036 17.2916C100.362 17.2916 99.7721 17.4602 99.1823 17.882C98.5924 18.2193 98.0868 18.7254 97.7497 19.2315V29.9436H93.5364V14.0863H97.7497V16.195C98.171 15.6046 98.8452 15.0985 99.8564 14.5081C100.868 14.002 101.879 13.6646 102.974 13.6646C105.25 13.6646 106.766 14.5924 107.356 16.5324C107.862 15.7733 108.62 15.0985 109.631 14.5081C110.643 13.9176 111.738 13.6646 112.834 13.6646C114.35 13.6646 115.446 14.0863 116.289 14.8455C117.131 15.6889 117.468 16.8698 117.468 18.4724V29.8593Z" fill="white"/>
<path d="M131.204 30.2811C129.181 30.2811 127.58 29.4376 126.316 27.835V35.9324H122.103V14.002H126.316V16.0264C127.58 14.4237 129.181 13.6646 131.204 13.6646C133.311 13.6646 134.995 14.4237 136.26 15.8576C137.523 17.2916 138.198 19.4002 138.198 21.9307C138.198 24.5454 137.523 26.5698 136.26 28.088C134.995 29.522 133.227 30.2811 131.204 30.2811ZM129.855 26.5698C131.036 26.5698 132.046 26.148 132.805 25.3046C133.564 24.4611 133.9 23.3646 133.9 21.9307C133.9 20.5811 133.564 19.4846 132.805 18.6411C132.046 17.7977 131.12 17.3759 129.855 17.3759C129.181 17.3759 128.508 17.5446 127.834 17.882C127.159 18.2193 126.653 18.6411 126.316 19.1472V24.7985C126.653 25.3046 127.159 25.7263 127.918 26.0637C128.508 26.401 129.181 26.5698 129.855 26.5698Z" fill="white"/>
<path d="M147.469 30.2812C146.121 30.2812 144.773 30.0281 143.509 29.6064C142.245 29.1847 141.233 28.5942 140.391 27.835L142.161 24.8829C142.75 25.4733 143.593 25.9794 144.689 26.4012C145.7 26.823 146.71 27.076 147.638 27.076C148.48 27.076 149.154 26.9073 149.661 26.6542C150.082 26.3169 150.334 25.8951 150.334 25.389C150.334 24.9673 150.082 24.6299 149.661 24.3769C149.154 24.1238 148.649 23.9551 147.891 23.8708C147.217 23.7865 146.458 23.6177 145.615 23.3647C144.773 23.1116 144.014 22.8586 143.34 22.6055C142.666 22.2682 142.077 21.8464 141.57 21.1716C141.065 20.4969 140.896 19.6533 140.896 18.7256C140.896 17.2916 141.486 16.1107 142.666 15.183C143.845 14.2551 145.447 13.749 147.469 13.749C149.913 13.749 152.02 14.5082 153.873 15.9421L152.189 18.8099C151.682 18.3038 151.008 17.882 150.166 17.4604C149.324 17.1229 148.396 16.9543 147.469 16.9543C146.71 16.9543 146.121 17.1229 145.7 17.3759C145.278 17.7134 145.026 18.0508 145.026 18.4725C145.026 18.8099 145.278 19.1473 145.7 19.316C146.121 19.569 146.71 19.7378 147.469 19.8221C148.228 19.9064 148.901 20.0751 149.745 20.3282C150.587 20.5812 151.345 20.8342 152.02 21.1716C152.694 21.5091 153.284 22.0151 153.789 22.6899C154.21 23.3647 154.464 24.2081 154.464 25.2203C154.464 26.7386 153.873 27.9195 152.61 28.8472C151.345 29.7751 149.661 30.2812 147.469 30.2812Z" fill="white"/>
<path d="M165.502 18.8936H162.553V17.7971C161.793 18.6405 160.867 19.0623 159.771 19.0623C158.592 19.0623 157.581 18.6405 156.822 17.7971C156.064 16.9536 155.642 15.7728 155.642 14.2545C155.642 12.7362 156.064 11.5553 156.822 10.7119C157.581 9.8684 158.592 9.36231 159.771 9.36231C160.867 9.36231 161.793 9.78404 162.553 10.7119V6.07275H165.502V18.8936ZM160.783 16.5319C161.12 16.5319 161.456 16.4475 161.793 16.2788C162.13 16.1101 162.384 15.9414 162.553 15.6883V12.8205C162.384 12.5675 162.13 12.3989 161.793 12.2301C161.456 12.0614 161.12 11.9771 160.783 11.9771C160.193 11.9771 159.687 12.1458 159.35 12.5675C159.013 12.9893 158.76 13.4954 158.76 14.1701C158.76 14.8449 158.928 15.4353 159.35 15.7728C159.687 16.3632 160.193 16.5319 160.783 16.5319Z" fill="white"/>
<path d="M176.372 18.8933H173.423V17.9654C173.17 18.3028 172.749 18.5558 172.243 18.8088C171.737 19.0619 171.147 19.1463 170.558 19.1463C169.715 19.1463 169.04 18.8933 168.367 18.3872C167.693 17.8811 167.356 17.122 167.356 16.1098C167.356 15.0976 167.693 14.3385 168.282 13.8324C168.956 13.3263 169.631 13.0733 170.473 13.0733C171.821 13.0733 172.749 13.4106 173.338 14.1698V13.0733C173.338 12.6515 173.17 12.3141 172.833 12.0611C172.496 11.808 172.075 11.7236 171.484 11.7236C170.473 11.7236 169.631 12.0611 168.872 12.7358L167.777 10.8802C168.872 9.95238 170.305 9.44629 171.991 9.44629C172.58 9.44629 173.086 9.53064 173.591 9.61499C174.096 9.69933 174.519 9.95238 174.94 10.2054C175.361 10.4585 175.698 10.8802 175.951 11.3863C176.203 11.8924 176.287 12.4828 176.287 13.1576V18.8933H176.372ZM171.737 17.2063C172.496 17.2063 173.086 16.9532 173.423 16.5315V15.688C173.086 15.2662 172.58 15.0132 171.737 15.0132C171.316 15.0132 170.979 15.0976 170.642 15.2662C170.389 15.435 170.221 15.688 170.221 16.0254C170.221 16.3628 170.389 16.6159 170.642 16.7845C170.979 17.122 171.316 17.2063 171.737 17.2063Z" fill="white"/>
<path d="M182.271 19.1463C181.09 19.1463 180.079 18.7245 179.32 17.8811C178.562 17.0375 178.225 15.8567 178.225 14.2541C178.225 12.7358 178.562 11.555 179.32 10.7115C180.079 9.86803 181.09 9.44629 182.271 9.44629C183.366 9.44629 184.292 9.86803 185.051 10.7115V9.61499H188V22.4359H184.967V17.7967C184.292 18.7245 183.366 19.1463 182.271 19.1463ZM183.197 16.5315C183.534 16.5315 183.871 16.4471 184.208 16.2784C184.545 16.1098 184.799 15.9411 184.967 15.688V12.9045C184.799 12.6515 184.545 12.4828 184.208 12.3141C183.871 12.1454 183.534 12.0611 183.281 12.0611C182.692 12.0611 182.185 12.2297 181.764 12.6515C181.343 13.0733 181.175 13.5794 181.175 14.2541C181.175 14.9289 181.343 15.5193 181.764 15.9411C182.185 16.3628 182.607 16.5315 183.197 16.5315Z" fill="white"/>
<path d="M196.866 16.0982C196.101 16.0982 195.396 15.9722 194.752 15.7202C194.117 15.4682 193.562 15.1136 193.086 14.6562C192.619 14.1989 192.255 13.6622 191.994 13.0462C191.733 12.4302 191.602 11.7582 191.602 11.0302C191.602 10.3116 191.733 9.64423 191.994 9.02823C192.255 8.41223 192.619 7.88023 193.086 7.43223C193.562 6.9749 194.117 6.62023 194.752 6.36823C195.396 6.11623 196.101 5.99023 196.866 5.99023C197.622 5.99023 198.322 6.11623 198.966 6.36823C199.619 6.62023 200.184 6.9749 200.66 7.43223C201.136 7.88023 201.505 8.41223 201.766 9.02823C202.037 9.64423 202.172 10.3116 202.172 11.0302C202.172 11.7582 202.037 12.4302 201.766 13.0462C201.505 13.6622 201.136 14.1989 200.66 14.6562C200.184 15.1136 199.619 15.4682 198.966 15.7202C198.322 15.9722 197.622 16.0982 196.866 16.0982ZM196.866 15.3702C197.706 15.3702 198.462 15.1882 199.134 14.8242C199.815 14.4509 200.352 13.9422 200.744 13.2982C201.145 12.6449 201.346 11.8982 201.346 11.0582C201.346 10.4516 201.234 9.8869 201.01 9.36423C200.786 8.84157 200.473 8.38423 200.072 7.99223C199.671 7.5909 199.195 7.2829 198.644 7.06823C198.103 6.84423 197.51 6.73223 196.866 6.73223C196.222 6.73223 195.629 6.84423 195.088 7.06823C194.556 7.2829 194.089 7.58623 193.688 7.97823C193.287 8.37023 192.979 8.82757 192.764 9.35023C192.549 9.8729 192.442 10.4329 192.442 11.0302C192.442 11.6369 192.549 12.2062 192.764 12.7382C192.979 13.2609 193.287 13.7182 193.688 14.1102C194.089 14.5022 194.556 14.8102 195.088 15.0342C195.629 15.2582 196.222 15.3702 196.866 15.3702ZM194.598 7.93623H197.328C197.711 7.93623 198.047 8.0389 198.336 8.24423C198.635 8.44957 198.868 8.7109 199.036 9.02823C199.204 9.33623 199.288 9.65823 199.288 9.99423C199.288 10.2462 199.241 10.4936 199.148 10.7362C199.055 10.9696 198.924 11.1796 198.756 11.3662C198.588 11.5436 198.392 11.6789 198.168 11.7722L199.61 14.0962H198.112L196.824 12.0242H195.928V14.0962H194.598V7.93623ZM197.216 10.9182C197.449 10.9182 197.631 10.8389 197.762 10.6802C197.902 10.5122 197.972 10.2836 197.972 9.99423C197.972 9.68623 197.893 9.45757 197.734 9.30823C197.585 9.1589 197.403 9.08423 197.188 9.08423H195.928V10.9182H197.216Z" fill="white"/>
<defs>
<linearGradient id="paint0_linear" x1="22.7685" y1="28.8255" x2="3.04697" y2="20.5503" gradientUnits="userSpaceOnUse">
<stop stop-color="#FC5410"/>
<stop offset="1" stop-color="#F5D20F"/>
</linearGradient>
<linearGradient id="paint1_linear" x1="23.2753" y1="39.304" x2="3.45309" y2="31.0248" gradientUnits="userSpaceOnUse">
<stop stop-color="#FC5410"/>
<stop offset="1" stop-color="#F5D20F"/>
</linearGradient>
</defs>
</svg>
