<svg width="1184" height="745" viewBox="0 0 1184 745" fill="none" xmlns="http://www.w3.org/2000/svg">
<g clip-path="url(#clip0)">
<path d="M1156.29 645.587C1158.49 646.785 1161.88 646.785 1163.88 645.587C1166.08 644.389 1166.08 642.393 1163.88 641.195C1161.68 639.997 1158.29 639.997 1156.29 641.195C1154.29 642.393 1154.29 644.389 1156.29 645.587Z" fill="#FC5410" fill-opacity="0.4"/>
<path d="M1002.95 635.605C1005.15 636.803 1008.55 636.803 1010.55 635.605C1012.75 634.408 1012.75 632.412 1010.55 631.214C1008.35 630.016 1004.95 630.016 1002.95 631.214C1000.76 632.412 1000.76 634.408 1002.95 635.605Z" fill="#FC5410" fill-opacity="0.4"/>
<path d="M934.385 673.335C936.584 674.532 939.982 674.532 941.981 673.335C944.18 672.137 944.18 670.141 941.981 668.943C939.782 667.745 936.384 667.745 934.385 668.943C932.186 670.141 932.186 672.137 934.385 673.335Z" fill="#FC5410" fill-opacity="0.4"/>
<path d="M732.474 459.936L732.075 459.736L588.738 377.091L589.738 376.493L732.474 294.247L732.874 294.447L876.211 377.091L875.211 377.69L732.474 459.936ZM591.137 377.091L732.474 458.538L873.812 377.091L732.474 295.645L591.137 377.091Z" fill="#FC5410" fill-opacity="0.4"/>
<path d="M785.451 325.788L784.851 324.79L883.407 267.897V174.672L883.807 174.472L1168.28 10.3805L1168.88 11.3786L884.607 175.271V268.495L884.407 268.695L785.451 325.788Z" fill="#FC5410" fill-opacity="0.4"/>
<path d="M913.394 158.303H912.195V72.2642L912.394 72.0646L1033.94 1.99628L1034.54 3.19403L913.394 72.8631V158.303Z" fill="#FC5410" fill-opacity="0.4"/>
<path d="M804.043 336.567L803.443 335.569L900 279.874H1067.73L1214.86 195.033H1240.65L1240.85 195.233L1344.8 255.121L1344.2 256.119L1240.45 196.231H1215.26L1068.13 281.072H900.2L804.043 336.567Z" fill="#FC5410" fill-opacity="0.4"/>
<path d="M660.906 336.568L466.992 224.778H351.444H351.244L278.276 182.657V114.385H279.476V181.858L351.644 223.58H467.392L661.506 335.569L660.906 336.568Z" fill="#FC5410" fill-opacity="0.4"/>
<path d="M684.096 323.193L487.183 209.606V142.133L416.815 101.609L417.414 100.611L488.383 141.534V209.007L684.696 322.195L684.096 323.193Z" fill="#FC5410" fill-opacity="0.4"/>
<path d="M708.485 309.219L592.337 242.345V184.453L592.737 184.254L793.647 68.2717L794.247 69.2698L593.536 185.052V241.546L709.085 308.021L708.485 309.219Z" fill="#FC5410" fill-opacity="0.4"/>
<path d="M83.9627 566.336H83.7628H83.5629L4.9978 521.021L5.59754 520.023L84.1626 565.138H261.684L390.027 491.077H496.18L642.315 407.035L642.914 408.033L496.579 492.275H390.427L262.084 566.336H83.9627Z" fill="#FC5410" fill-opacity="0.4"/>
<path d="M302.666 514.833L302.066 513.834L365.638 477.103H487.583L625.722 397.453L626.322 398.451L487.783 478.301H366.037L302.666 514.833Z" fill="#FC5410" fill-opacity="0.4"/>
<path d="M562.35 434.983L460.995 376.493H388.627L341.848 403.442L341.248 402.444L388.427 375.295H461.395L562.95 433.984L562.35 434.983Z" fill="#FC5410" fill-opacity="0.4"/>
<path d="M286.673 580.908L286.073 579.91L342.648 547.371V519.424H343.847V547.97L343.647 548.17L286.673 580.908Z" fill="#FC5410" fill-opacity="0.4"/>
<path d="M689.693 156.107H643.514V154.909H689.494L771.657 107.598L772.257 108.596L689.693 156.107Z" fill="#FC5410" fill-opacity="0.4"/>
<path d="M687.294 295.844H686.095V266.1L628.921 233.162V201.022H630.12V232.563L687.294 265.501V295.844Z" fill="#FC5410" fill-opacity="0.4"/>
<path d="M1006.55 634.009L906.997 576.716V483.292L799.245 421.208L799.845 420.21L908.196 482.693V575.918L1007.15 633.01L1006.55 634.009Z" fill="#FC5410" fill-opacity="0.4"/>
<path d="M939.382 672.536L900 649.779V608.656L861.617 586.697V477.303L781.653 431.19L782.452 430.192L862.816 476.505V585.899L901.199 608.057V649.18L939.982 671.538L939.382 672.536Z" fill="#FC5410" fill-opacity="0.4"/>
<path d="M1246.25 511.838L1215.06 493.872H1148.69L1029.14 425.001H924.189L923.989 424.802L858.418 387.073L859.018 386.075L924.389 423.804H1029.54H1029.74L1149.09 492.674H1215.46L1215.66 492.874L1246.85 510.84L1246.25 511.838Z" fill="#FC5410" fill-opacity="0.4"/>
<path d="M1178.48 464.527L1136.89 440.572H1056.53V439.374H1137.09L1137.29 439.574L1179.08 463.529L1178.48 464.527Z" fill="#FC5410" fill-opacity="0.4"/>
<path d="M1159.88 643.79L1005.75 554.957V508.644L826.633 405.238L827.232 404.24L1006.95 507.846V554.358L1160.48 642.792L1159.88 643.79Z" fill="#FC5410" fill-opacity="0.4"/>
<path d="M823.234 347.746L822.634 346.549L892.203 306.424H1086.72L1227.05 225.576L1227.65 226.574L1086.92 307.622H892.603L823.234 347.746Z" fill="#FC5410" fill-opacity="0.4"/>
<path d="M980.564 330.579H980.364L940.582 307.622L941.182 306.624L980.764 329.381H1087.92V330.579H980.564Z" fill="#FC5410" fill-opacity="0.4"/>
<path d="M692.892 741.806H691.693V676.728L536.761 587.296V515.431L536.961 515.232L683.696 430.791L684.296 431.789L537.961 516.23V586.698L692.892 675.93V741.806Z" fill="#FC5410" fill-opacity="0.4"/>
<path d="M723.279 658.363L669.902 627.621H606.73V626.423H670.102H670.302L723.878 657.365L723.279 658.363Z" fill="#FC5410" fill-opacity="0.4"/>
<path d="M704.448 442.766L596.728 504.787L597.327 505.824L705.047 443.803L704.448 442.766Z" fill="#FC5410" fill-opacity="0.4"/>
<path d="M821.235 661.756H819.836V479.898L758.663 444.565L759.262 443.367L821.235 479.1V661.756Z" fill="#FC5410" fill-opacity="0.4"/>
<path d="M789.449 635.406H788.25V571.726L788.449 571.526L820.235 553.161L820.835 554.358L789.449 572.325V635.406Z" fill="#FC5410" fill-opacity="0.4"/>
<path d="M1219.66 406.636L1123.3 350.94H974.167H973.967L924.789 322.594H901L840.227 357.528L839.627 356.53L900.6 321.396H924.989H925.189L974.367 349.743H1123.5L1123.7 349.942L1220.26 405.638L1219.66 406.636Z" fill="#FC5410" fill-opacity="0.4"/>
<path d="M600.333 527.409H561.151V526.211H599.933L724.478 454.346L725.078 455.344L600.333 527.409Z" fill="#FC5410" fill-opacity="0.4"/>
<path d="M666.704 557.153L666.104 556.155L767.859 497.465V473.71L738.072 456.343L738.672 455.344L769.058 472.911V498.064L768.858 498.264L666.704 557.153Z" fill="#FC5410" fill-opacity="0.4"/>
<path d="M659.907 538.788L659.307 537.79L705.087 511.439H743.47V512.637H705.486L659.907 538.788Z" fill="#FC5410" fill-opacity="0.4"/>
<path d="M660.706 595.082L660.107 594.084L707.086 567.134V545.375L707.286 545.175L760.462 514.633V502.057H761.661V515.232L761.462 515.431L708.285 545.974V567.733L707.885 567.933L660.706 595.082Z" fill="#FC5410" fill-opacity="0.4"/>
<path d="M655.909 540.584C658.108 541.782 661.506 541.782 663.505 540.584C665.704 539.386 665.704 537.39 663.505 536.192C661.306 534.995 657.908 534.995 655.909 536.192C653.71 537.39 653.71 539.386 655.909 540.584Z" fill="#FC5410" fill-opacity="0.4"/>
<path d="M662.506 558.75C664.705 559.948 668.103 559.948 670.102 558.75C672.301 557.552 672.301 555.556 670.102 554.358C667.903 553.161 664.505 553.161 662.506 554.358C660.307 555.556 660.307 557.552 662.506 558.75Z" fill="#FC5410" fill-opacity="0.4"/>
<path d="M771.457 548.17C773.656 549.368 777.055 549.368 779.054 548.17C781.253 546.972 781.253 544.976 779.054 543.778C776.855 542.58 773.456 542.58 771.457 543.778C769.258 544.976 769.258 546.972 771.457 548.17Z" fill="#FC5410" fill-opacity="0.4"/>
<path d="M999.956 384.078C1002.15 385.276 1005.55 385.276 1007.55 384.078C1009.75 382.881 1009.75 380.884 1007.55 379.687C1005.35 378.489 1001.95 378.489 999.956 379.687C997.956 380.884 997.956 382.881 999.956 384.078Z" fill="#FC5410" fill-opacity="0.4"/>
<path d="M1147.49 417.016C1149.69 418.214 1153.09 418.214 1155.09 417.016C1157.29 415.819 1157.29 413.822 1155.09 412.625C1152.89 411.427 1149.49 411.427 1147.49 412.625C1145.29 413.822 1145.29 415.819 1147.49 417.016Z" fill="#FC5410" fill-opacity="0.4"/>
<path d="M953.376 361.521C955.575 362.718 958.974 362.718 960.973 361.521C963.172 360.323 963.172 358.327 960.973 357.129C958.774 355.931 955.375 355.931 953.376 357.129C951.177 358.327 951.177 360.323 953.376 361.521Z" fill="#FC5410" fill-opacity="0.4"/>
<path d="M936.584 398.052C938.783 399.25 942.181 399.25 944.18 398.052C946.379 396.854 946.379 394.858 944.18 393.66C941.981 392.462 938.583 392.462 936.584 393.66C934.585 394.858 934.585 396.854 936.584 398.052Z" fill="#FC5410" fill-opacity="0.4"/>
<path d="M688.494 744.002C690.693 745.2 694.092 745.2 696.091 744.002C698.29 742.804 698.29 740.808 696.091 739.61C693.892 738.412 690.493 738.412 688.494 739.61C686.295 740.808 686.295 742.804 688.494 744.002Z" fill="#FC5410" fill-opacity="0.4"/>
<path d="M719.68 659.96C721.879 661.158 725.278 661.158 727.277 659.96C729.476 658.762 729.476 656.766 727.277 655.568C725.078 654.37 721.679 654.37 719.68 655.568C717.681 656.766 717.681 658.762 719.68 659.96Z" fill="#FC5410" fill-opacity="0.4"/>
<path d="M211.906 736.416C214.105 737.614 217.503 737.614 219.502 736.416C221.702 735.218 221.702 733.222 219.502 732.024C217.303 730.827 213.905 730.827 211.906 732.024C209.707 733.222 209.707 735.218 211.906 736.416Z" fill="#FC5410" fill-opacity="0.4"/>
<path d="M397.823 740.409C400.022 741.606 403.421 741.606 405.42 740.409C407.619 739.211 407.619 737.215 405.42 736.017C403.221 734.819 399.822 734.819 397.823 736.017C395.824 737.215 395.824 739.211 397.823 740.409Z" fill="#FC5410" fill-opacity="0.4"/>
<path d="M453.598 613.647C455.797 614.845 459.196 614.845 461.195 613.647C463.394 612.449 463.394 610.453 461.195 609.255C458.996 608.057 455.598 608.057 453.598 609.255C451.599 610.453 451.599 612.449 453.598 613.647Z" fill="#FC5410" fill-opacity="0.4"/>
<path d="M1084.12 332.176C1086.32 333.374 1089.72 333.374 1091.71 332.176C1093.91 330.978 1093.91 328.982 1091.71 327.784C1089.52 326.586 1086.12 326.586 1084.12 327.784C1081.92 328.982 1081.92 330.978 1084.12 332.176Z" fill="#FC5410" fill-opacity="0.4"/>
<path d="M1031.34 5.38991C1033.54 6.58766 1036.94 6.58766 1038.94 5.38991C1041.14 4.19216 1041.14 2.19591 1038.94 0.998165C1036.74 -0.199584 1033.34 -0.199584 1031.34 0.998165C1029.14 2.19591 1029.14 3.99254 1031.34 5.38991Z" fill="#FC5410" fill-opacity="0.4"/>
<path d="M656.708 596.878C658.907 598.076 662.306 598.076 664.305 596.878C666.504 595.681 666.504 593.684 664.305 592.487C662.106 591.289 658.707 591.289 656.708 592.487C654.509 593.684 654.509 595.681 656.708 596.878Z" fill="#FC5410" fill-opacity="0.4"/>
<path d="M785.051 637.602C787.25 638.799 790.649 638.799 792.648 637.602C794.847 636.404 794.847 634.408 792.648 633.21C790.449 632.012 787.05 632.012 785.051 633.21C782.852 634.408 782.852 636.404 785.051 637.602Z" fill="#FC5410" fill-opacity="0.4"/>
<path d="M816.637 665.15C818.836 666.348 822.234 666.348 824.234 665.15C826.433 663.952 826.433 661.956 824.234 660.758C822.035 659.561 818.636 659.561 816.637 660.758C814.638 661.956 814.638 663.952 816.637 665.15Z" fill="#FC5410" fill-opacity="0.4"/>
<path d="M1174.88 466.324C1177.08 467.521 1180.48 467.521 1182.47 466.324C1184.67 465.126 1184.67 463.13 1182.47 461.932C1180.28 460.734 1176.88 460.734 1174.88 461.932C1172.88 463.13 1172.88 465.126 1174.88 466.324Z" fill="#FC5410" fill-opacity="0.4"/>
<path d="M1078.52 507.047C1080.72 508.245 1084.12 508.245 1086.12 507.047C1088.32 505.849 1088.32 503.853 1086.12 502.656C1083.92 501.458 1080.52 501.458 1078.52 502.656C1076.52 503.853 1076.52 505.849 1078.52 507.047Z" fill="#FC5410" fill-opacity="0.4"/>
<path d="M557.352 529.006C559.551 530.204 562.95 530.204 564.949 529.006C567.148 527.808 567.148 525.812 564.949 524.614C562.75 523.416 559.351 523.416 557.352 524.614C555.153 525.812 555.153 527.808 557.352 529.006Z" fill="#FC5410" fill-opacity="0.4"/>
<path d="M340.049 403.642C342.248 404.839 345.646 404.839 347.645 403.642C349.844 402.444 349.844 400.448 347.645 399.25C345.446 398.052 342.048 398.052 340.049 399.25C338.05 400.647 338.05 402.444 340.049 403.642Z" fill="#FC5410" fill-opacity="0.4"/>
<path d="M432.008 326.187C434.207 327.385 437.605 327.385 439.605 326.187C441.804 324.989 441.804 322.993 439.605 321.795C437.406 320.598 434.007 320.598 432.008 321.795C430.009 322.993 430.009 324.989 432.008 326.187Z" fill="#FC5410" fill-opacity="0.4"/>
<path d="M483.985 352.937C486.184 354.135 489.582 354.135 491.582 352.937C493.781 351.739 493.781 349.743 491.582 348.545C489.382 347.347 485.984 347.347 483.985 348.545C481.986 349.743 481.986 351.739 483.985 352.937Z" fill="#FC5410" fill-opacity="0.4"/>
<path d="M533.963 311.016C536.162 312.213 539.56 312.213 541.559 311.016C543.758 309.818 543.758 307.822 541.559 306.624C539.36 305.426 535.962 305.426 533.963 306.624C531.964 307.822 531.964 309.618 533.963 311.016Z" fill="#FC5410" fill-opacity="0.4"/>
<path d="M625.722 203.218C627.921 204.416 631.319 204.416 633.319 203.218C635.518 202.02 635.518 200.024 633.319 198.826C631.119 197.629 627.721 197.629 625.722 198.826C623.723 200.024 623.723 202.02 625.722 203.218Z" fill="#FC5410" fill-opacity="0.4"/>
<path d="M273.878 117.18C276.077 118.378 279.476 118.378 281.475 117.18C283.674 115.982 283.674 113.986 281.475 112.788C279.276 111.59 275.877 111.59 273.878 112.788C271.679 113.986 271.679 115.982 273.878 117.18Z" fill="#FC5410" fill-opacity="0.4"/>
<path d="M413.216 103.206C415.415 104.404 418.814 104.404 420.813 103.206C423.012 102.008 423.012 100.012 420.813 98.8144C418.614 97.6166 415.215 97.6166 413.216 98.8144C411.017 100.012 411.017 102.008 413.216 103.206Z" fill="#FC5410" fill-opacity="0.4"/>
<path d="M689.893 210.604C692.092 211.802 695.491 211.802 697.49 210.604C699.689 209.407 699.689 207.41 697.49 206.213C695.291 205.015 691.892 205.015 689.893 206.213C687.694 207.41 687.694 209.407 689.893 210.604Z" fill="#FC5410" fill-opacity="0.4"/>
<path d="M696.89 171.478C699.089 172.676 702.488 172.676 704.487 171.478C706.686 170.28 706.686 168.284 704.487 167.086C702.288 165.888 698.889 165.888 696.89 167.086C694.691 168.284 694.691 170.28 696.89 171.478Z" fill="#FC5410" fill-opacity="0.4"/>
<path d="M807.241 125.165C809.44 126.363 812.839 126.363 814.838 125.165C817.037 123.967 817.037 121.971 814.838 120.773C812.639 119.575 809.24 119.575 807.241 120.773C805.042 121.971 805.042 123.967 807.241 125.165Z" fill="#FC5410" fill-opacity="0.4"/>
<path d="M768.258 110.193C770.457 111.391 773.856 111.391 775.855 110.193C778.054 108.995 778.054 106.999 775.855 105.801C773.656 104.603 770.258 104.603 768.258 105.801C766.059 106.999 766.059 108.995 768.258 110.193Z" fill="#FC5410" fill-opacity="0.4"/>
<path d="M1164.88 12.9757C1167.08 14.1734 1170.48 14.1734 1172.48 12.9757C1174.68 11.7779 1174.68 9.7817 1172.48 8.58395C1170.28 7.3862 1166.88 7.3862 1164.88 8.58395C1162.68 9.98132 1162.68 11.7779 1164.88 12.9757Z" fill="#FC5410" fill-opacity="0.4"/>
<path d="M790.249 71.0664C792.448 72.2641 795.846 72.2641 797.845 71.0664C800.044 69.8686 800.044 67.8724 797.845 66.6746C795.646 65.4769 792.248 65.4769 790.249 66.6746C788.05 67.8724 788.05 69.8686 790.249 71.0664Z" fill="#FC5410" fill-opacity="0.4"/>
<path d="M555.953 397.653C558.152 398.851 561.55 398.851 563.55 397.653C565.749 396.455 565.749 394.459 563.55 393.261C561.35 392.063 557.952 392.063 555.953 393.261C553.754 394.459 553.754 396.255 555.953 397.653Z" fill="#FC5410" fill-opacity="0.4"/>
<path d="M812.639 267.697C814.838 268.895 818.236 268.895 820.235 267.697C822.434 266.499 822.434 264.503 820.235 263.305C818.036 262.107 814.638 262.107 812.639 263.305C810.64 264.503 810.64 266.499 812.639 267.697Z" fill="#FC5410" fill-opacity="0.4"/>
<path d="M1034.14 191.041C1036.34 192.239 1039.74 192.239 1041.74 191.041C1043.74 189.843 1043.94 187.847 1041.74 186.649C1039.54 185.452 1036.14 185.452 1034.14 186.649C1031.94 187.847 1031.94 189.843 1034.14 191.041Z" fill="#FC5410" fill-opacity="0.4"/>
<path d="M1145.29 94.0233C1147.49 95.2211 1150.89 95.2211 1152.89 94.0233C1155.09 92.8256 1155.09 90.8293 1152.89 89.6316C1150.69 88.4338 1147.29 88.4338 1145.29 89.6316C1143.29 90.8293 1143.29 92.8256 1145.29 94.0233Z" fill="#FC5410" fill-opacity="0.4"/>
<path d="M464.793 403.043C466.992 404.24 470.391 404.24 472.39 403.043C474.589 401.845 474.589 399.849 472.39 398.651C470.191 397.453 466.793 397.453 464.793 398.651C462.794 399.849 462.794 401.845 464.793 403.043Z" fill="#FC5410" fill-opacity="0.4"/>
<path d="M282.674 582.705C284.873 583.903 288.272 583.903 290.271 582.705C292.47 581.507 292.47 579.511 290.271 578.313C288.072 577.115 284.673 577.115 282.674 578.313C280.475 579.511 280.475 581.507 282.674 582.705Z" fill="#FC5410" fill-opacity="0.4"/>
<path d="M209.507 390.866C211.706 392.063 215.104 392.063 217.103 390.866C219.303 389.668 219.303 387.672 217.103 386.474C214.904 385.276 211.506 385.276 209.507 386.474C207.308 387.672 207.308 389.668 209.507 390.866Z" fill="#FC5410" fill-opacity="0.4"/>
<path d="M298.467 515.431C300.666 516.629 304.065 516.629 306.064 515.431C308.263 514.234 308.263 512.237 306.064 511.04C303.865 509.842 300.466 509.842 298.467 511.04C296.468 512.237 296.468 514.234 298.467 515.431Z" fill="#FC5410" fill-opacity="0.4"/>
<path d="M1.59928 522.618C3.7983 523.816 7.19679 523.816 9.1959 522.618C11.3949 521.42 11.3949 519.424 9.1959 518.226C6.99688 517.028 3.59839 517.028 1.59928 518.226C-0.599743 519.424 -0.599743 521.42 1.59928 522.618Z" fill="#FC5410" fill-opacity="0.4"/>
<path d="M593.136 507.646C595.335 508.844 598.734 508.844 600.733 507.646C602.932 506.448 602.932 504.452 600.733 503.254C598.534 502.057 595.136 502.057 593.136 503.254C591.137 504.452 591.137 506.249 593.136 507.646Z" fill="#FC5410" fill-opacity="0.4"/>
<path d="M820.293 519.674L775.098 545.71L775.697 546.747L820.893 520.712L820.293 519.674Z" fill="#FC5410" fill-opacity="0.4"/>
<path d="M608.13 408.832H582.141H581.941L558.752 395.457L559.351 394.459L582.341 407.634H608.13V408.832Z" fill="#FC5410" fill-opacity="0.4"/>
<path d="M436.206 324.39L435.606 323.392L498.778 286.861H541.959V287.06L597.734 319.2H632.919V320.398H597.335V320.198L541.559 288.059H499.178L436.206 324.39Z" fill="#FC5410" fill-opacity="0.4"/>
<path d="M600.933 371.103L537.761 334.771H516.97L489.183 350.741L488.583 349.743L516.77 333.573H538.161L601.533 370.105L600.933 371.103Z" fill="#FC5410" fill-opacity="0.4"/>
<path d="M584.54 360.523H583.341V335.769L537.561 309.219L538.161 308.221L584.54 334.971V360.523Z" fill="#FC5410" fill-opacity="0.4"/>
<path d="M950.777 413.224H903.798V412.026H950.378L1003.55 381.483L1004.15 382.481L950.777 413.224Z" fill="#FC5410" fill-opacity="0.4"/>
<path d="M215.904 734.819L215.304 733.821L376.833 640.596V581.308H377.232L660.906 417.615L661.506 418.813L378.032 582.106V641.195L377.832 641.395L215.904 734.819Z" fill="#FC5410" fill-opacity="0.4"/>
<path d="M956.975 359.924L916.792 336.767H900.8L879.409 349.144H854.82V347.946H879.009L900.4 335.569H916.992H917.192L957.574 358.726L956.975 359.924Z" fill="#FC5410" fill-opacity="0.4"/>
<path d="M768.858 316.206L768.258 315.208L844.425 271.29V221.584L757.863 171.678V152.913L758.263 152.713L810.64 122.57L811.239 123.568L759.063 153.711V171.079L845.624 220.985V272.089L845.224 272.288L768.858 316.206Z" fill="#FC5410" fill-opacity="0.4"/>
<path d="M787.05 305.426H785.851V282.469L786.25 282.269L816.237 264.902L816.837 265.9L787.05 283.068V305.426Z" fill="#FC5410" fill-opacity="0.4"/>
<path d="M943.581 281.072L942.981 279.874L1123.9 175.67V148.521L1124.1 148.321L1199.27 105.003L1199.87 106.001L1125.1 149.12V176.468H1124.7L943.581 281.072Z" fill="#FC5410" fill-opacity="0.4"/>
<path d="M1009.95 205.214H1008.75V172.077L1009.15 171.877L1148.89 91.2285L1149.49 92.4263L1009.95 172.675V205.214Z" fill="#FC5410" fill-opacity="0.4"/>
<path d="M899.8 280.673L899.2 279.674L990.36 227.173V215.595L990.56 215.395L1037.54 188.246L1038.14 189.444L991.559 216.194V227.772L991.159 227.972L899.8 280.673Z" fill="#FC5410" fill-opacity="0.4"/>
<path d="M457.797 612.05L457.197 611.052L510.773 580.11V545.375L536.961 530.403L537.561 531.402L511.972 546.174V580.709L511.773 580.909L457.797 612.05Z" fill="#FC5410" fill-opacity="0.4"/>
<path d="M541.359 422.806H505.375L505.175 422.606L468.392 401.446L468.992 400.448L505.775 421.608H541.359V422.806Z" fill="#FC5410" fill-opacity="0.4"/>
<path d="M345.247 465.326H345.047L214.305 389.867L214.904 388.869L345.446 464.128H510.173V465.326H345.247Z" fill="#FC5410" fill-opacity="0.4"/>
<path d="M748.068 303.63H746.868V239.949L694.091 209.407L694.691 208.408L748.068 239.151V303.63Z" fill="#FC5410" fill-opacity="0.4"/>
<path d="M747.668 266.299L747.068 265.301L785.451 243.143V218.988L700.289 169.881L700.888 168.683L786.65 218.19V243.942H786.45L747.668 266.299Z" fill="#FC5410" fill-opacity="0.4"/>
<path d="M1082.12 505.45L985.962 449.954H904.198V448.757H986.162H986.362L1082.72 504.252L1082.12 505.45Z" fill="#FC5410" fill-opacity="0.4"/>
<path d="M1093.11 415.419L1092.91 415.22L1066.73 400.248H973.167V399.05H1067.13L1093.51 414.222H1151.29V415.419H1093.11Z" fill="#FC5410" fill-opacity="0.4"/>
<path d="M939.782 396.255L896.202 371.103H863.416V369.905H896.601L940.382 395.257L939.782 396.255Z" fill="#FC5410" fill-opacity="0.4"/>
<path d="M402.021 738.612L401.422 737.614L465.593 700.683V645.188L465.993 644.988L552.155 595.281L552.754 596.28L466.793 645.787V701.282L466.593 701.482L402.021 738.612Z" fill="#FC5410" fill-opacity="0.4"/>
<path d="M722.879 317.403C722.279 317.403 721.479 317.204 720.88 316.805L708.285 309.419L708.885 308.42L721.479 315.806C722.279 316.206 723.079 316.405 723.678 316.006C724.278 315.607 724.478 315.008 724.478 314.01V311.015C724.478 309.618 725.078 308.62 725.877 308.021C726.877 307.422 728.076 307.622 729.276 308.221L731.875 309.818L731.275 310.816L728.676 309.219C727.877 308.82 727.077 308.62 726.477 309.019C725.877 309.419 725.678 310.017 725.678 311.015V314.01C725.678 315.407 725.078 316.405 724.278 317.004C723.678 317.204 723.279 317.403 722.879 317.403Z" fill="#FC5410" fill-opacity="0.4"/>
<path d="M717.881 320.198C717.281 320.198 716.482 319.999 715.882 319.599L703.287 312.213L703.887 311.215L716.482 318.601C717.281 319 718.081 319.2 718.681 318.801C719.28 318.402 719.48 317.803 719.48 316.805V313.81C719.48 312.413 720.08 311.415 720.88 310.816C721.879 310.217 723.079 310.417 724.278 311.015L726.877 312.612L726.277 313.611L723.678 312.014C722.879 311.614 722.079 311.415 721.479 311.814C720.88 312.213 720.68 312.812 720.68 313.81V316.805C720.68 318.202 720.08 319.2 719.28 319.799C718.88 319.999 718.481 320.198 717.881 320.198Z" fill="#FC5410" fill-opacity="0.4"/>
<path d="M713.083 322.993C712.483 322.993 711.684 322.793 711.084 322.394L698.49 315.008L699.089 314.01L711.684 321.396C712.483 321.795 713.283 321.995 713.883 321.596C714.482 321.196 714.682 320.598 714.682 319.599V316.605C714.682 315.208 715.282 314.21 716.082 313.611C717.081 313.012 718.281 313.211 719.48 313.81L722.079 315.407L721.479 316.405L718.881 314.808C718.081 314.409 717.281 314.21 716.681 314.609C716.082 315.008 715.882 315.607 715.882 316.605V319.599C715.882 320.997 715.282 321.995 714.482 322.594C713.883 322.993 713.483 322.993 713.083 322.993Z" fill="#FC5410" fill-opacity="0.4"/>
<path d="M708.085 325.788C707.486 325.788 706.686 325.588 706.086 325.189L693.492 317.803L694.092 316.805L706.686 324.191C707.486 324.59 708.285 324.79 708.885 324.39C709.485 323.991 709.685 323.392 709.685 322.394V319.4C709.685 318.002 710.284 317.004 711.084 316.405C712.084 315.806 713.283 316.006 714.482 316.605L717.081 318.202L716.482 319.2L713.883 317.603C713.083 317.204 712.283 317.004 711.684 317.403C711.084 317.803 710.884 318.402 710.884 319.4V322.394C710.884 323.791 710.284 324.79 709.485 325.388C709.085 325.788 708.485 325.788 708.085 325.788Z" fill="#FC5410" fill-opacity="0.4"/>
<path d="M703.088 328.583C702.488 328.583 701.688 328.383 701.088 327.984L688.494 320.598L689.094 319.599L701.688 326.986C702.488 327.385 703.287 327.584 703.887 327.185C704.487 326.786 704.687 326.187 704.687 325.189V322.195C704.687 320.797 705.287 319.799 706.086 319.2C707.086 318.601 708.285 318.801 709.485 319.4L712.083 320.997L711.484 321.995L708.885 320.398C708.085 319.999 707.286 319.799 706.686 320.198C706.086 320.598 705.886 321.196 705.886 322.195V325.189C705.886 326.586 705.287 327.584 704.487 328.183C704.087 328.583 703.687 328.583 703.088 328.583Z" fill="#FC5410" fill-opacity="0.4"/>
<path d="M698.29 331.577C697.69 331.577 696.89 331.377 696.291 330.978L683.696 323.592L684.296 322.594L696.89 329.98C697.69 330.379 698.49 330.579 699.089 330.18C699.689 329.78 699.889 329.181 699.889 328.183V325.189C699.889 323.792 700.489 322.793 701.288 322.195C702.288 321.596 703.287 321.795 704.687 322.394L707.286 323.991L706.686 324.989L704.087 323.392C703.287 322.993 702.488 322.793 701.888 323.193C701.288 323.592 701.088 324.191 701.088 325.189V328.183C701.088 329.581 700.489 330.579 699.689 331.178C699.089 331.377 698.689 331.577 698.29 331.577Z" fill="#FC5410" fill-opacity="0.4"/>
<path d="M693.292 334.372C692.692 334.372 691.893 334.172 691.293 333.773L678.698 326.387L679.298 325.388L691.893 332.775C692.692 333.174 693.492 333.373 694.092 332.974C694.691 332.575 694.891 331.976 694.891 330.978V327.984C694.891 326.586 695.491 325.588 696.291 324.989C697.29 324.39 698.49 324.59 699.689 325.189L702.288 326.786L701.688 327.784L699.089 326.187C698.29 325.788 697.49 325.588 696.89 325.987C696.291 326.387 696.091 326.985 696.091 327.984V330.978C696.091 332.375 695.491 333.373 694.691 333.972C694.291 334.172 693.892 334.372 693.292 334.372Z" fill="#FC5410" fill-opacity="0.4"/>
<path d="M688.494 337.166C687.894 337.166 687.095 336.967 686.495 336.567L673.901 329.181L674.5 328.183L687.095 335.569C687.894 335.969 688.694 336.168 689.294 335.769C689.893 335.37 690.093 334.771 690.093 333.773V330.778C690.093 329.381 690.693 328.383 691.493 327.784C692.492 327.185 693.692 327.385 694.891 327.984L697.49 329.581L696.89 330.579L694.291 328.982C693.492 328.582 692.692 328.383 692.092 328.782C691.493 329.181 691.293 329.78 691.293 330.778V333.773C691.293 335.17 690.693 336.168 689.893 336.767C689.294 336.967 688.894 337.166 688.494 337.166Z" fill="#FC5410" fill-opacity="0.4"/>
<path d="M683.496 339.961C682.896 339.961 682.097 339.761 681.497 339.362L668.903 331.976L669.502 330.978L682.097 338.364C682.896 338.763 683.696 338.963 684.296 338.564C684.896 338.164 685.095 337.566 685.095 336.567V333.573C685.095 332.176 685.695 331.178 686.495 330.579C687.494 329.98 688.694 330.179 689.893 330.778L692.492 332.375L691.892 333.373L689.294 331.776C688.494 331.377 687.694 331.178 687.095 331.577C686.495 331.976 686.295 332.575 686.295 333.573V336.567C686.295 337.965 685.695 338.963 684.896 339.562C684.496 339.961 683.896 339.961 683.496 339.961Z" fill="#FC5410" fill-opacity="0.4"/>
<path d="M678.498 342.756C677.899 342.756 677.099 342.556 676.499 342.157L663.905 334.771L664.505 333.773L677.099 341.159C677.899 341.558 678.698 341.758 679.298 341.358C679.898 340.959 680.098 340.36 680.098 339.362V336.368C680.098 334.97 680.697 333.972 681.497 333.373C682.497 332.775 683.696 332.974 684.896 333.573L687.494 335.17L686.895 336.168L684.296 334.571C683.496 334.172 682.697 333.972 682.097 334.372C681.497 334.771 681.297 335.37 681.297 336.368V339.362C681.297 340.76 680.697 341.758 679.898 342.357C679.498 342.756 679.098 342.756 678.498 342.756Z" fill="#FC5410" fill-opacity="0.4"/>
<path d="M673.701 345.551C673.101 345.551 672.301 345.351 671.701 344.952L659.107 337.566L659.707 336.568L672.301 343.954C673.101 344.353 673.9 344.553 674.5 344.153C675.1 343.754 675.3 343.155 675.3 342.157V339.163C675.3 337.765 675.9 336.767 676.699 336.168C677.699 335.569 678.898 335.769 680.098 336.368L682.697 337.965L682.097 338.963L679.498 337.366C678.698 336.967 677.899 336.767 677.299 337.166C676.699 337.566 676.499 338.164 676.499 339.163V342.157C676.499 343.554 675.9 344.553 675.1 345.151C674.5 345.551 674.1 345.551 673.701 345.551Z" fill="#FC5410" fill-opacity="0.4"/>
<path d="M668.703 348.545C668.103 348.545 667.303 348.345 666.704 347.946L654.109 340.56L654.709 339.562L667.303 346.948C668.103 347.347 668.903 347.547 669.502 347.148C670.102 346.748 670.302 346.149 670.302 345.151V342.157C670.302 340.76 670.902 339.761 671.702 339.163C672.701 338.564 673.901 338.763 675.1 339.362L677.699 340.959L677.099 341.957L674.5 340.36C673.701 339.961 672.901 339.761 672.301 340.161C671.701 340.56 671.502 341.159 671.502 342.157V345.151C671.502 346.549 670.902 347.547 670.102 348.146C669.702 348.345 669.103 348.545 668.703 348.545Z" fill="#FC5410" fill-opacity="0.4"/>
<path d="M663.905 351.34C663.305 351.34 662.506 351.14 661.906 350.741L649.311 343.355L649.911 342.357L662.506 349.743C663.305 350.142 664.105 350.342 664.705 349.942C665.304 349.543 665.504 348.944 665.504 347.946V344.952C665.504 343.554 666.104 342.556 666.904 341.957C667.903 341.358 669.103 341.558 670.302 342.157L672.901 343.754L672.301 344.752L669.702 343.155C668.903 342.756 668.103 342.556 667.503 342.955C666.904 343.355 666.704 343.954 666.704 344.952V347.946C666.704 349.343 666.104 350.342 665.304 350.94C664.705 351.14 664.305 351.34 663.905 351.34Z" fill="#FC5410" fill-opacity="0.4"/>
<path d="M658.907 354.134C658.307 354.134 657.508 353.935 656.908 353.535L644.314 346.149L644.913 345.151L657.508 352.537C658.307 352.937 659.107 353.136 659.707 352.737C660.307 352.338 660.506 351.739 660.506 350.741V347.746C660.506 346.349 661.106 345.351 661.906 344.752C662.905 344.153 664.105 344.353 665.304 344.952L667.903 346.549L667.303 347.547L664.705 345.95C663.905 345.55 663.105 345.351 662.506 345.75C661.906 346.149 661.706 346.748 661.706 347.746V350.741C661.706 352.138 661.106 353.136 660.307 353.735C659.707 353.935 659.307 354.134 658.907 354.134Z" fill="#FC5410" fill-opacity="0.4"/>
<path d="M653.909 356.929C653.31 356.929 652.51 356.73 651.91 356.33L639.316 348.944L639.916 347.946L652.51 355.332C653.31 355.731 654.109 355.931 654.709 355.532C655.309 355.133 655.509 354.534 655.509 353.536V350.541C655.509 349.144 656.108 348.146 656.908 347.547C657.908 346.948 659.107 347.148 660.307 347.747L662.905 349.344L662.306 350.342L659.707 348.745C658.907 348.345 658.108 348.146 657.508 348.545C656.908 348.944 656.708 349.543 656.708 350.541V353.536C656.708 354.933 656.108 355.931 655.309 356.53C654.909 356.73 654.509 356.929 653.909 356.929Z" fill="#FC5410" fill-opacity="0.4"/>
<path d="M649.112 359.724C648.512 359.724 647.712 359.524 647.112 359.125L634.518 351.739L635.118 350.741L647.712 358.127C648.512 358.526 649.311 358.726 649.911 358.326C650.511 357.927 650.711 357.328 650.711 356.33V353.336C650.711 351.938 651.311 350.94 652.11 350.341C653.11 349.743 654.309 349.942 655.509 350.541L658.108 352.138L657.508 353.136L654.909 351.539C654.109 351.14 653.31 350.94 652.71 351.34C652.11 351.739 651.91 352.338 651.91 353.336V356.33C651.91 357.728 651.311 358.726 650.511 359.325C649.911 359.724 649.511 359.724 649.112 359.724Z" fill="#FC5410" fill-opacity="0.4"/>
<path d="M644.114 362.519C643.514 362.519 642.714 362.319 642.115 361.92L629.52 354.534L630.12 353.536L642.714 360.922C643.514 361.321 644.314 361.521 644.913 361.121C645.513 360.722 645.713 360.123 645.713 359.125V356.131C645.713 354.733 646.313 353.735 647.112 353.136C648.112 352.537 649.311 352.737 650.511 353.336L653.11 354.933L652.51 355.931L649.911 354.334C649.112 353.935 648.312 353.735 647.712 354.135C647.112 354.534 646.913 355.133 646.913 356.131V359.125C646.913 360.523 646.313 361.521 645.513 362.12C645.113 362.519 644.514 362.519 644.114 362.519Z" fill="#FC5410" fill-opacity="0.4"/>
<path d="M639.116 365.513C638.516 365.513 637.717 365.314 637.117 364.914L624.522 357.528L625.122 356.53L637.717 363.916C638.516 364.315 639.316 364.515 639.916 364.116C640.515 363.717 640.715 363.118 640.715 362.12V359.125C640.715 357.728 641.315 356.73 642.115 356.131C643.114 355.532 644.314 355.732 645.513 356.33L648.112 357.927L647.512 358.926L644.913 357.329C644.114 356.929 643.314 356.73 642.714 357.129C642.115 357.528 641.915 358.127 641.915 359.125V362.12C641.915 363.517 641.315 364.515 640.515 365.114C640.116 365.314 639.716 365.513 639.116 365.513Z" fill="#FC5410" fill-opacity="0.4"/>
<path d="M634.318 368.308C633.718 368.308 632.919 368.108 632.319 367.709L619.725 360.323L620.324 359.325L632.919 366.711C633.718 367.11 634.518 367.31 635.118 366.91C635.717 366.511 635.917 365.912 635.917 364.914V361.92C635.917 360.522 636.517 359.524 637.317 358.926C638.316 358.327 639.516 358.526 640.715 359.125L643.314 360.722L642.714 361.72L640.115 360.123C639.316 359.724 638.516 359.524 637.916 359.924C637.317 360.323 637.117 360.922 637.117 361.92V364.914C637.117 366.312 636.517 367.31 635.717 367.909C635.118 368.108 634.718 368.308 634.318 368.308Z" fill="#FC5410" fill-opacity="0.4"/>
<path d="M629.32 371.102C628.721 371.102 627.921 370.903 627.321 370.504L614.727 363.117L615.327 362.119L627.921 369.506C628.721 369.905 629.52 370.104 630.12 369.705C630.72 369.306 630.92 368.707 630.92 367.709V364.714C630.92 363.317 631.519 362.319 632.319 361.72C633.319 361.121 634.518 361.321 635.717 361.92L638.316 363.517L637.717 364.515L635.118 362.918C634.318 362.519 633.518 362.319 632.919 362.718C632.319 363.117 632.119 363.716 632.119 364.714V367.709C632.119 369.106 631.519 370.104 630.72 370.703C630.32 370.903 629.92 371.102 629.32 371.102Z" fill="#FC5410" fill-opacity="0.4"/>
<path d="M743.07 317.603C742.67 317.603 742.07 317.404 741.67 317.204C740.671 316.605 740.271 315.607 740.271 314.21V311.215C740.271 310.217 740.071 309.618 739.471 309.219C738.872 308.82 738.272 309.019 737.272 309.419L734.673 311.016L734.074 310.017L736.673 308.42C737.872 307.622 739.072 307.622 740.071 308.221C741.071 308.82 741.47 309.818 741.47 311.215V314.21C741.47 315.208 741.67 315.807 742.27 316.206C742.87 316.605 743.47 316.405 744.469 316.006L757.064 308.62L757.663 309.618L745.069 317.004C744.269 317.404 743.669 317.603 743.07 317.603Z" fill="#FC5410" fill-opacity="0.4"/>
<path d="M747.868 320.398C747.468 320.398 746.868 320.198 746.468 319.999C745.469 319.4 745.069 318.402 745.069 317.004V314.01C745.069 313.012 744.869 312.413 744.269 312.014C743.669 311.614 743.07 311.814 742.07 312.213L739.471 313.81L738.872 312.812L741.47 311.215C742.67 310.417 743.869 310.417 744.869 311.016C745.868 311.614 746.268 312.613 746.268 314.01V317.004C746.268 318.002 746.468 318.601 747.068 319.001C747.668 319.4 748.267 319.2 749.267 318.801L761.861 311.415L762.461 312.413L749.867 319.799C749.267 320.198 748.467 320.398 747.868 320.398Z" fill="#FC5410" fill-opacity="0.4"/>
<path d="M752.865 323.193C752.466 323.193 751.866 322.993 751.466 322.793C750.466 322.195 750.067 321.196 750.067 319.799V316.805C750.067 315.807 749.867 315.208 749.267 314.808C748.667 314.409 748.068 314.609 747.068 315.008L744.469 316.605L743.869 315.607L746.468 314.01C747.668 313.211 748.867 313.211 749.867 313.81C750.866 314.409 751.266 315.407 751.266 316.805V319.799C751.266 320.797 751.466 321.396 752.066 321.795C752.666 322.195 753.265 321.995 754.265 321.596L766.859 314.21L767.459 315.208L754.865 322.594C754.265 322.993 753.465 323.193 752.865 323.193Z" fill="#FC5410" fill-opacity="0.4"/>
<path d="M757.863 325.987C757.463 325.987 756.864 325.788 756.464 325.588C755.464 324.989 755.064 323.991 755.064 322.594V319.599C755.064 318.601 754.864 318.002 754.265 317.603C753.665 317.204 753.065 317.404 752.066 317.803L749.467 319.4L748.867 318.402L751.466 316.805C752.665 316.006 753.865 316.006 754.865 316.605C755.864 317.204 756.264 318.202 756.264 319.599V322.594C756.264 323.592 756.464 324.191 757.064 324.59C757.663 324.989 758.263 324.79 759.263 324.39L771.857 317.004L772.457 318.002L759.862 325.389C759.063 325.788 758.463 325.987 757.863 325.987Z" fill="#FC5410" fill-opacity="0.4"/>
<path d="M762.661 328.982C762.261 328.982 761.661 328.782 761.262 328.583C760.262 327.984 759.862 326.986 759.862 325.588V322.594C759.862 321.596 759.662 320.997 759.063 320.598C758.463 320.198 757.863 320.398 756.864 320.797L754.265 322.394L753.665 321.396L756.264 319.799C757.463 319 758.663 319.001 759.662 319.599C760.662 320.198 761.062 321.196 761.062 322.594V325.588C761.062 326.586 761.262 327.185 761.861 327.584C762.461 327.984 763.061 327.784 764.06 327.385L776.655 319.999L777.255 320.997L764.66 328.383C764.06 328.782 763.261 328.982 762.661 328.982Z" fill="#FC5410" fill-opacity="0.4"/>
<path d="M767.659 331.777C767.259 331.777 766.659 331.577 766.259 331.377C765.26 330.779 764.86 329.78 764.86 328.383V325.389C764.86 324.391 764.66 323.792 764.06 323.392C763.461 322.993 762.861 323.193 761.861 323.592L759.263 325.189L758.663 324.191L761.262 322.594C762.461 321.795 763.661 321.795 764.66 322.394C765.66 322.993 766.06 323.991 766.06 325.389V328.383C766.06 329.381 766.259 329.98 766.859 330.379C767.459 330.779 768.059 330.579 769.058 330.18L781.653 322.794L782.252 323.792L769.658 331.178C768.858 331.577 768.259 331.777 767.659 331.777Z" fill="#FC5410" fill-opacity="0.4"/>
<path d="M772.457 334.571C772.057 334.571 771.457 334.372 771.057 334.172C770.058 333.573 769.658 332.575 769.658 331.178V328.183C769.658 327.185 769.458 326.586 768.858 326.187C768.259 325.788 767.659 325.987 766.659 326.387L764.06 327.984L763.461 326.986L766.06 325.389C767.259 324.59 768.458 324.59 769.458 325.189C770.458 325.788 770.857 326.786 770.857 328.183V331.178C770.857 332.176 771.057 332.775 771.657 333.174C772.257 333.573 772.856 333.374 773.856 332.974L786.45 325.588L787.05 326.586L774.456 333.972C773.856 334.372 773.256 334.571 772.457 334.571Z" fill="#FC5410" fill-opacity="0.4"/>
<path d="M777.454 337.366C777.055 337.366 776.455 337.166 776.055 336.967C775.056 336.368 774.656 335.37 774.656 333.972V330.978C774.656 329.98 774.456 329.381 773.856 328.982C773.256 328.583 772.657 328.782 771.657 329.181L769.058 330.778L768.458 329.78L771.057 328.183C772.257 327.385 773.456 327.385 774.456 327.984C775.455 328.583 775.855 329.581 775.855 330.978V333.972C775.855 334.971 776.055 335.569 776.655 335.969C777.255 336.368 777.854 336.168 778.854 335.769L791.448 328.383L792.048 329.381L779.454 336.767C778.854 337.166 778.054 337.366 777.454 337.366Z" fill="#FC5410" fill-opacity="0.4"/>
<path d="M782.452 340.161C782.052 340.161 781.453 339.961 781.053 339.762C780.053 339.163 779.653 338.165 779.653 336.767V333.773C779.653 332.775 779.454 332.176 778.854 331.777C778.254 331.377 777.654 331.577 776.655 331.976L774.056 333.573L773.456 332.575L776.055 330.978C777.255 330.18 778.454 330.18 779.454 330.779C780.453 331.377 780.853 332.376 780.853 333.773V336.767C780.853 337.765 781.053 338.364 781.653 338.763C782.252 339.163 782.852 338.963 783.852 338.564L796.446 331.178L797.046 332.176L784.451 339.562C783.652 339.961 783.052 340.161 782.452 340.161Z" fill="#FC5410" fill-opacity="0.4"/>
<path d="M787.25 342.956C786.85 342.956 786.251 342.756 785.851 342.556C784.851 341.957 784.451 340.959 784.451 339.562V336.568C784.451 335.569 784.251 334.971 783.652 334.571C783.052 334.172 782.452 334.372 781.453 334.771L778.854 336.368L778.254 335.37L780.853 333.773C782.052 332.974 783.252 332.974 784.251 333.573C785.251 334.172 785.651 335.17 785.651 336.568V339.562C785.651 340.56 785.851 341.159 786.45 341.558C787.05 341.957 787.65 341.758 788.649 341.359L801.244 333.972L801.844 334.971L789.249 342.357C788.649 342.756 787.85 342.956 787.25 342.956Z" fill="#FC5410" fill-opacity="0.4"/>
<path d="M792.248 345.95C791.848 345.95 791.248 345.75 790.849 345.551C789.849 344.952 789.449 343.954 789.449 342.556V339.562C789.449 338.564 789.249 337.965 788.649 337.566C788.05 337.166 787.45 337.366 786.45 337.765L783.852 339.362L783.252 338.364L785.851 336.767C787.05 335.969 788.25 335.969 789.249 336.568C790.249 337.166 790.649 338.165 790.649 339.562V342.556C790.649 343.554 790.848 344.153 791.448 344.553C792.048 344.952 792.648 344.752 793.647 344.353L806.242 336.967L806.841 337.965L794.247 345.351C793.447 345.75 792.848 345.95 792.248 345.95Z" fill="#FC5410" fill-opacity="0.4"/>
<path d="M797.046 348.745C796.646 348.745 796.046 348.545 795.646 348.346C794.647 347.747 794.247 346.749 794.247 345.351V342.357C794.247 341.359 794.047 340.76 793.447 340.361C792.848 339.961 792.248 340.161 791.248 340.56L788.649 342.157L788.05 341.159L790.649 339.562C791.848 338.764 793.048 338.764 794.047 339.362C795.047 339.961 795.446 340.959 795.446 342.357V345.351C795.446 346.349 795.646 346.948 796.246 347.347C796.846 347.747 797.446 347.547 798.445 347.148L811.04 339.762L811.639 340.76L799.045 348.146C798.445 348.545 797.845 348.745 797.046 348.745Z" fill="#FC5410" fill-opacity="0.4"/>
<path d="M802.044 351.539C801.644 351.539 801.044 351.34 800.644 351.14C799.645 350.541 799.245 349.543 799.245 348.146V345.151C799.245 344.153 799.045 343.554 798.445 343.155C797.845 342.756 797.246 342.956 796.246 343.355L793.647 344.952L793.047 343.954L795.646 342.357C796.846 341.558 798.045 341.558 799.045 342.157C800.044 342.756 800.444 343.754 800.444 345.151V348.146C800.444 349.144 800.644 349.743 801.244 350.142C801.844 350.541 802.443 350.342 803.443 349.942L816.037 342.556L816.637 343.554L804.043 350.941C803.443 351.34 802.643 351.539 802.044 351.539Z" fill="#FC5410" fill-opacity="0.4"/>
<path d="M807.041 354.334C806.642 354.334 806.042 354.135 805.642 353.935C804.642 353.336 804.243 352.338 804.243 350.941V347.946C804.243 346.948 804.043 346.349 803.443 345.95C802.843 345.551 802.243 345.75 801.244 346.15L798.645 347.747L798.045 346.748L800.644 345.151C801.844 344.353 803.043 344.353 804.043 344.952C805.042 345.551 805.442 346.549 805.442 347.946V350.941C805.442 351.939 805.642 352.538 806.242 352.937C806.841 353.336 807.441 353.136 808.441 352.737L821.035 345.351L821.635 346.349L809.04 353.735C808.241 354.135 807.641 354.334 807.041 354.334Z" fill="#FC5410" fill-opacity="0.4"/>
<path d="M811.839 357.129C811.439 357.129 810.84 356.929 810.44 356.73C809.44 356.131 809.04 355.133 809.04 353.735V350.741C809.04 349.743 808.84 349.144 808.241 348.745C807.641 348.345 807.041 348.545 806.042 348.944L803.443 350.541L802.843 349.543L805.442 347.946C806.641 347.148 807.841 347.148 808.84 347.747C809.84 348.345 810.24 349.344 810.24 350.741V353.735C810.24 354.733 810.44 355.332 811.04 355.732C811.639 356.131 812.239 355.931 813.238 355.532L825.833 348.146L826.433 349.144L813.838 356.53C813.239 356.929 812.439 357.129 811.839 357.129Z" fill="#FC5410" fill-opacity="0.4"/>
<path d="M816.837 359.924C816.437 359.924 815.837 359.724 815.438 359.524C814.438 358.925 814.038 357.927 814.038 356.53V353.536C814.038 352.538 813.838 351.939 813.239 351.539C812.639 351.14 812.039 351.34 811.04 351.739L808.441 353.336L807.841 352.338L810.44 350.741C811.639 349.942 812.839 349.942 813.838 350.541C814.838 351.14 815.238 352.138 815.238 353.536V356.53C815.238 357.528 815.438 358.127 816.037 358.526C816.637 358.925 817.237 358.726 818.236 358.327L830.831 350.941L831.43 351.939L818.836 359.325C818.036 359.724 817.437 359.924 816.837 359.924Z" fill="#FC5410" fill-opacity="0.4"/>
<path d="M821.635 362.918C821.235 362.918 820.635 362.718 820.235 362.519C819.236 361.92 818.836 360.922 818.836 359.524V356.53C818.836 355.532 818.636 354.933 818.036 354.534C817.437 354.135 816.837 354.334 815.837 354.733L813.239 356.33L812.639 355.332L815.238 353.735C816.437 352.937 817.637 352.937 818.636 353.536C819.636 354.135 820.036 355.133 820.036 356.53V359.524C820.036 360.523 820.235 361.121 820.835 361.521C821.435 361.92 822.035 361.72 823.034 361.321L835.629 353.935L836.228 354.933L823.634 362.319C823.034 362.519 822.434 362.918 821.635 362.918Z" fill="#FC5410" fill-opacity="0.4"/>
<path d="M826.633 365.713C826.233 365.713 825.633 365.513 825.233 365.314C824.234 364.715 823.834 363.717 823.834 362.319V359.325C823.834 358.327 823.634 357.728 823.034 357.329C822.434 356.929 821.835 357.129 820.835 357.528L818.236 359.125L817.637 358.127L820.235 356.53C821.435 355.732 822.634 355.732 823.634 356.33C824.633 356.929 825.033 357.927 825.033 359.325V362.319C825.033 363.317 825.233 363.916 825.833 364.315C826.433 364.715 827.032 364.515 828.032 364.116L840.626 356.73L841.226 357.728L828.632 365.114C828.032 365.513 827.232 365.713 826.633 365.713Z" fill="#FC5410" fill-opacity="0.4"/>
<path d="M831.63 368.508C831.231 368.508 830.631 368.308 830.231 368.108C829.231 367.509 828.832 366.511 828.832 365.114V362.12C828.832 361.121 828.632 360.523 828.032 360.123C827.432 359.724 826.832 359.924 825.833 360.323L823.234 361.92L822.634 360.922L825.233 359.325C826.433 358.526 827.632 358.526 828.632 359.125C829.631 359.724 830.031 360.722 830.031 362.12V365.114C830.031 366.112 830.231 366.711 830.831 367.11C831.43 367.509 832.03 367.31 833.03 366.911L845.624 359.524L846.224 360.523L833.629 367.909C832.83 368.308 832.23 368.508 831.63 368.508Z" fill="#FC5410" fill-opacity="0.4"/>
<path d="M836.428 371.302C836.028 371.302 835.429 371.103 835.029 370.903C834.029 370.304 833.629 369.306 833.629 367.909V364.914C833.629 363.916 833.43 363.317 832.83 362.918C832.23 362.519 831.63 362.718 830.631 363.118L828.032 364.715L827.432 363.716L830.031 362.119C831.231 361.321 832.43 361.321 833.43 361.92C834.429 362.519 834.829 363.517 834.829 364.914V367.909C834.829 368.907 835.029 369.506 835.629 369.905C836.228 370.304 836.828 370.104 837.828 369.705L850.422 362.319L851.022 363.317L838.427 370.703C837.828 371.103 837.028 371.302 836.428 371.302Z" fill="#FC5410" fill-opacity="0.4"/>
<path opacity="0.8" d="M732.874 445.363L635.717 389.268L732.874 333.174L830.231 389.268L732.874 445.363Z" fill="url(#paint0_radial)"/>
<path d="M830.231 365.313V376.492L732.874 432.587L635.717 376.492V365.313H830.231Z" fill="url(#paint1_linear)"/>
<path d="M732.874 421.408L635.717 365.313L732.874 309.219L830.231 365.313L732.874 421.408Z" fill="#CA904C"/>
<path d="M732.874 420.011L636.917 364.714L635.717 365.313L732.874 421.408L830.231 365.313L829.032 364.714L732.874 420.011Z" fill="white"/>
<path d="M732.874 408.432L658.307 365.313L732.874 322.194L807.641 365.313L732.874 408.432Z" fill="#0F054C"/>
<path opacity="0.5" d="M732.874 408.432L658.307 365.313L732.874 322.194L807.641 365.313L732.874 408.432Z" fill="url(#paint2_linear)"/>
<path opacity="0.5" d="M732.874 311.415L807.641 354.534V365.313L732.874 322.194V311.415Z" fill="url(#paint3_linear)"/>
<path opacity="0.5" d="M732.874 322.194L658.307 365.313V354.534L732.874 311.415V322.194Z" fill="url(#paint4_linear)"/>
<path opacity="0.5" d="M732.874 397.653L658.307 354.534L732.874 311.415L807.641 354.534L732.874 397.653Z" fill="url(#paint5_linear)"/>
<path opacity="0.5" d="M732.874 371.701L703.088 354.534L732.874 337.166L762.861 354.534L732.874 371.701Z" fill="#FC5410" fill-opacity="0.4"/>
<path opacity="0.5" d="M732.874 338.763L761.462 355.332L762.861 354.534L732.874 337.166L703.088 354.534L704.487 355.332L732.874 338.763Z" fill="#78FFD6"/>
<path opacity="0.5" d="M732.874 397.653V408.432L807.641 365.313V354.534L732.874 397.653Z" fill="url(#paint6_linear)"/>
<path opacity="0.5" d="M658.307 354.534V365.314L732.874 408.432V397.653L658.307 354.534Z" fill="url(#paint7_linear)"/>
<path opacity="0.8" d="M732.874 396.455L659.307 353.935L658.307 354.534L732.874 397.653L807.641 354.534L806.642 353.935L732.874 396.455Z" fill="#FC5410" fill-opacity="0.4"/>
<path d="M757.064 446.161L744.469 438.775C742.07 437.378 740.271 434.384 740.271 431.589V428.595C740.271 426.399 738.672 423.604 736.673 422.406L734.074 420.809L734.673 419.811L737.272 421.408C739.671 422.805 741.47 425.8 741.47 428.595V431.589C741.47 433.785 743.07 436.58 745.069 437.777L757.663 445.163L757.064 446.161Z" fill="#FC5410" fill-opacity="0.4"/>
<path d="M762.061 443.167L749.467 435.781C747.068 434.384 745.269 431.389 745.269 428.594V425.6C745.269 423.404 743.669 420.61 741.67 419.412L739.072 417.815L739.671 416.817L742.27 418.414C744.669 419.811 746.468 422.805 746.468 425.6V428.594C746.468 430.79 748.068 433.585 750.067 434.783L762.661 442.169L762.061 443.167Z" fill="#FC5410" fill-opacity="0.4"/>
<path d="M766.859 440.373L754.265 432.986C751.866 431.589 750.067 428.595 750.067 425.8V422.806C750.067 420.61 748.467 417.815 746.468 416.617L743.869 415.02L744.469 414.022L747.068 415.619C749.467 417.016 751.266 420.011 751.266 422.806V425.8C751.266 427.996 752.865 430.79 754.865 431.988L767.459 439.374L766.859 440.373Z" fill="#FC5410" fill-opacity="0.4"/>
<path d="M771.857 437.578L759.263 430.192C756.864 428.794 755.064 425.8 755.064 423.005V420.011C755.064 417.815 753.465 415.02 751.466 413.822L748.867 412.225L749.467 411.227L752.066 412.824C754.465 414.222 756.264 417.216 756.264 420.011V423.005C756.264 425.201 757.863 427.996 759.862 429.193L772.457 436.58L771.857 437.578Z" fill="#FC5410" fill-opacity="0.4"/>
<path d="M776.655 434.783L764.06 427.397C761.662 425.999 759.862 423.005 759.862 420.21V417.216C759.862 415.02 758.263 412.225 756.264 411.028L753.665 409.431L754.265 408.432L756.864 410.029C759.263 411.427 761.062 414.421 761.062 417.216V420.21C761.062 422.406 762.661 425.201 764.66 426.399L777.255 433.785L776.655 434.783Z" fill="#FC5410" fill-opacity="0.4"/>
<path d="M781.653 431.988L769.058 424.602C766.659 423.205 764.86 420.21 764.86 417.415V414.421C764.86 412.225 763.261 409.43 761.262 408.233L758.663 406.636L759.263 405.638L761.861 407.235C764.26 408.632 766.06 411.626 766.06 414.421V417.415C766.06 419.611 767.659 422.406 769.658 423.604L782.252 430.99L781.653 431.988Z" fill="#FC5410" fill-opacity="0.4"/>
<path d="M786.65 429.193L774.056 421.807C771.657 420.41 769.858 417.416 769.858 414.621V411.626C769.858 409.431 768.259 406.636 766.259 405.438L763.661 403.841L764.26 402.843L766.859 404.44C769.258 405.837 771.057 408.832 771.057 411.626V414.621C771.057 416.817 772.657 419.611 774.656 420.809L787.25 428.195L786.65 429.193Z" fill="#FC5410" fill-opacity="0.4"/>
<path d="M791.448 426.199L778.854 418.813C776.455 417.416 774.656 414.421 774.656 411.626V408.632C774.656 406.436 773.056 403.641 771.057 402.444L768.458 400.847L769.058 399.849L771.657 401.446C774.056 402.843 775.855 405.837 775.855 408.632V411.626C775.855 413.822 777.454 416.617 779.454 417.815L792.048 425.201L791.448 426.199Z" fill="#FC5410" fill-opacity="0.4"/>
<path d="M796.446 423.404L783.852 416.018C781.453 414.621 779.653 411.627 779.653 408.832V405.837C779.653 403.642 778.054 400.847 776.055 399.649L773.456 398.052L774.056 397.054L776.655 398.651C779.054 400.048 780.853 403.043 780.853 405.837V408.832C780.853 411.028 782.452 413.822 784.451 415.02L797.046 422.406L796.446 423.404Z" fill="#FC5410" fill-opacity="0.4"/>
<path d="M801.444 420.61L788.849 413.223C786.45 411.826 784.651 408.832 784.651 406.037V403.043C784.651 400.847 783.052 398.052 781.053 396.854L778.454 395.257L779.054 394.259L781.653 395.856C784.052 397.253 785.851 400.248 785.851 403.043V406.037C785.851 408.233 787.45 411.028 789.449 412.225L802.044 419.611L801.444 420.61Z" fill="#FC5410" fill-opacity="0.4"/>
<path d="M806.242 417.815L793.647 410.429C791.248 409.031 789.449 406.037 789.449 403.242V400.248C789.449 398.052 787.85 395.257 785.851 394.059L783.252 392.462L783.852 391.464L786.45 393.061C788.849 394.459 790.649 397.453 790.649 400.248V403.242C790.649 405.438 792.248 408.233 794.247 409.431L806.841 416.817L806.242 417.815Z" fill="#FC5410" fill-opacity="0.4"/>
<path d="M811.239 415.02L798.645 407.634C796.246 406.236 794.447 403.242 794.447 400.447V397.453C794.447 395.257 792.848 392.462 790.849 391.265L788.25 389.668L788.849 388.669L791.448 390.266C793.847 391.664 795.646 394.658 795.646 397.453V400.447C795.646 402.643 797.246 405.438 799.245 406.636L811.839 414.022L811.239 415.02Z" fill="#FC5410" fill-opacity="0.4"/>
<path d="M816.037 412.026L803.443 404.639C801.044 403.242 799.245 400.248 799.245 397.453V394.459C799.245 392.263 797.645 389.468 795.646 388.27L793.047 386.673L793.647 385.675L796.246 387.272C798.645 388.669 800.444 391.664 800.444 394.459V397.453C800.444 399.649 802.044 402.444 804.043 403.641L816.637 411.027L816.037 412.026Z" fill="#FC5410" fill-opacity="0.4"/>
<path d="M821.035 409.231L808.441 401.845C806.042 400.447 804.243 397.453 804.243 394.658V391.664C804.243 389.468 802.643 386.673 800.644 385.476L798.045 383.879L798.645 382.88L801.244 384.477C803.643 385.875 805.442 388.869 805.442 391.664V394.658C805.442 396.854 807.041 399.649 809.04 400.847L821.635 408.233L821.035 409.231Z" fill="#FC5410" fill-opacity="0.4"/>
<path d="M826.033 406.436L813.438 399.05C811.039 397.653 809.24 394.658 809.24 391.864V388.869C809.24 386.673 807.641 383.879 805.642 382.681L803.043 381.084L803.643 380.086L806.242 381.683C808.641 383.08 810.44 386.075 810.44 388.869V391.864C810.44 394.06 812.039 396.854 814.038 398.052L826.633 405.438L826.033 406.436Z" fill="#FC5410" fill-opacity="0.4"/>
<path d="M830.831 403.641L818.236 396.255C815.837 394.858 814.038 391.864 814.038 389.069V386.074C814.038 383.879 812.439 381.084 810.44 379.886L807.841 378.289L808.441 377.291L811.04 378.888C813.439 380.285 815.238 383.28 815.238 386.074V389.069C815.238 391.265 816.837 394.059 818.836 395.257L831.43 402.643L830.831 403.641Z" fill="#FC5410" fill-opacity="0.4"/>
<path d="M835.828 400.847L823.234 393.461C820.835 392.063 819.036 389.069 819.036 386.274V383.28C819.036 381.084 817.437 378.289 815.438 377.091L812.839 375.494L813.438 374.496L816.037 376.093C818.436 377.491 820.235 380.485 820.235 383.28V386.274C820.235 388.47 821.835 391.265 823.834 392.462L836.428 399.849L835.828 400.847Z" fill="#FC5410" fill-opacity="0.4"/>
<path d="M840.626 398.052L828.032 390.666C825.633 389.268 823.834 386.274 823.834 383.479V380.485C823.834 378.289 822.235 375.494 820.235 374.296L817.637 372.699L818.236 371.701L820.835 373.298C823.234 374.696 825.033 377.69 825.033 380.485V383.479C825.033 385.675 826.633 388.47 828.632 389.668L841.226 397.054L840.626 398.052Z" fill="#FC5410" fill-opacity="0.4"/>
<path d="M845.624 395.057L833.03 387.671C830.631 386.274 828.832 383.28 828.832 380.485V377.49C828.832 375.295 827.232 372.5 825.233 371.302L822.634 369.705L823.234 368.707L825.833 370.304C828.232 371.701 830.031 374.696 830.031 377.49V380.485C830.031 382.681 831.63 385.475 833.629 386.673L846.224 394.059L845.624 395.057Z" fill="#FC5410" fill-opacity="0.4"/>
<path d="M850.622 392.263L838.028 384.877C835.629 383.479 833.829 380.485 833.829 377.69V374.696C833.829 372.5 832.23 369.705 830.231 368.507L827.632 366.91L828.232 365.912L830.831 367.509C833.23 368.907 835.029 371.901 835.029 374.696V377.69C835.029 379.886 836.628 382.681 838.627 383.879L851.222 391.265L850.622 392.263Z" fill="#FC5410" fill-opacity="0.4"/>
<path d="M708.485 446.161L707.885 445.163L720.48 437.777C722.479 436.58 724.078 433.785 724.078 431.589V428.595C724.078 425.999 725.877 422.805 728.276 421.408L730.875 419.811L731.475 420.809L728.876 422.406C726.877 423.604 725.278 426.399 725.278 428.595V431.589C725.278 434.184 723.478 437.378 721.08 438.775L708.485 446.161Z" fill="#FC5410" fill-opacity="0.4"/>
<path d="M703.687 443.167L703.088 442.169L715.682 434.783C717.681 433.585 719.28 430.79 719.28 428.594V425.6C719.28 423.005 721.079 419.811 723.478 418.414L726.077 416.817L726.677 417.815L724.078 419.412C722.079 420.61 720.48 423.205 720.48 425.6V428.594C720.48 431.19 718.68 434.384 716.282 435.781L703.687 443.167Z" fill="#FC5410" fill-opacity="0.4"/>
<path d="M698.689 440.373L698.09 439.374L710.684 431.988C712.683 430.79 714.282 427.996 714.282 425.8V422.806C714.282 420.21 716.082 417.016 718.481 415.619L721.079 414.022L721.679 415.02L719.08 416.617C717.081 417.815 715.482 420.61 715.482 422.806V425.8C715.482 428.395 713.683 431.589 711.284 432.986L698.689 440.373Z" fill="#FC5410" fill-opacity="0.4"/>
<path d="M693.692 437.578L693.092 436.58L705.686 429.193C707.685 427.996 709.285 425.201 709.285 423.005V420.011C709.285 417.416 711.084 414.222 713.483 412.824L716.082 411.227L716.681 412.225L714.083 413.822C712.084 415.02 710.484 417.815 710.484 420.011V423.005C710.484 425.6 708.685 428.794 706.286 430.192L693.692 437.578Z" fill="#FC5410" fill-opacity="0.4"/>
<path d="M688.894 434.783L688.294 433.785L700.888 426.399C702.888 425.201 704.487 422.606 704.487 420.21V417.216C704.487 414.621 706.286 411.427 708.685 410.029L711.284 408.432L711.884 409.431L709.285 411.028C707.286 412.225 705.686 415.02 705.686 417.216V420.21C705.686 422.805 703.887 425.999 701.488 427.397L688.894 434.783Z" fill="#FC5410" fill-opacity="0.4"/>
<path d="M683.896 431.988L683.296 430.99L695.891 423.604C697.89 422.406 699.489 419.611 699.489 417.415V414.421C699.489 411.826 701.288 408.632 703.687 407.235L706.286 405.638L706.886 406.636L704.287 408.233C702.288 409.43 700.689 412.225 700.689 414.421V417.415C700.689 420.011 698.889 423.205 696.49 424.602L683.896 431.988Z" fill="#FC5410" fill-opacity="0.4"/>
<path d="M679.098 429.193L678.498 428.195L691.093 420.809C693.092 419.611 694.691 416.817 694.691 414.621V411.626C694.691 409.031 696.49 405.837 698.889 404.44L701.488 402.843L702.088 403.841L699.489 405.438C697.49 406.636 695.891 409.231 695.891 411.626V414.621C695.891 417.216 694.091 420.41 691.693 421.807L679.098 429.193Z" fill="#FC5410" fill-opacity="0.4"/>
<path d="M674.1 426.199L673.501 425.201L686.095 417.815C688.094 416.617 689.693 413.822 689.693 411.626V408.632C689.693 406.037 691.493 402.843 693.892 401.446L696.49 399.849L697.09 400.847L694.491 402.444C692.492 403.641 690.893 406.236 690.893 408.632V411.626C690.893 414.221 689.094 417.416 686.695 418.813L674.1 426.199Z" fill="#FC5410" fill-opacity="0.4"/>
<path d="M669.103 423.404L668.503 422.406L681.097 415.02C683.096 413.822 684.696 411.028 684.696 408.832V405.837C684.696 403.242 686.495 400.048 688.894 398.651L691.493 397.054L692.092 398.052L689.494 399.649C687.494 400.847 685.895 403.642 685.895 405.837V408.832C685.895 411.427 684.096 414.621 681.697 416.018L669.103 423.404Z" fill="#FC5410" fill-opacity="0.4"/>
<path d="M664.305 420.61L663.705 419.611L676.299 412.225C678.298 411.028 679.898 408.432 679.898 406.037V403.043C679.898 400.447 681.697 397.253 684.096 395.856L686.695 394.259L687.294 395.257L684.696 396.854C682.697 398.052 681.097 400.847 681.097 403.043V406.037C681.097 408.632 679.298 411.826 676.899 413.223L664.305 420.61Z" fill="#FC5410" fill-opacity="0.4"/>
<path d="M659.307 417.815L658.707 416.817L671.302 409.431C673.301 408.233 674.9 405.438 674.9 403.242V400.248C674.9 397.653 676.699 394.459 679.098 393.061L681.697 391.464L682.297 392.462L679.698 394.059C677.699 395.257 676.1 398.052 676.1 400.248V403.242C676.1 405.837 674.3 409.031 671.901 410.429L659.307 417.815Z" fill="#FC5410" fill-opacity="0.4"/>
<path d="M654.309 415.02L653.709 414.022L666.304 406.636C668.303 405.438 669.902 402.643 669.902 400.447V397.453C669.902 394.858 671.701 391.664 674.1 390.266L676.699 388.669L677.299 389.668L674.7 391.265C672.701 392.462 671.102 395.057 671.102 397.453V400.447C671.102 403.042 669.303 406.236 666.904 407.634L654.309 415.02Z" fill="#FC5410" fill-opacity="0.4"/>
<path d="M649.511 412.026L648.912 411.027L661.506 403.641C663.505 402.444 665.104 399.649 665.104 397.453V394.459C665.104 391.863 666.904 388.669 669.303 387.272L671.901 385.675L672.501 386.673L669.902 388.27C667.903 389.468 666.304 392.263 666.304 394.459V397.453C666.304 400.048 664.505 403.242 662.106 404.639L649.511 412.026Z" fill="#FC5410" fill-opacity="0.4"/>
<path d="M644.514 409.231L643.914 408.233L656.508 400.847C658.507 399.649 660.107 396.854 660.107 394.658V391.664C660.107 389.069 661.906 385.875 664.305 384.477L666.904 382.88L667.503 383.879L664.904 385.476C662.905 386.673 661.306 389.468 661.306 391.664V394.658C661.306 397.253 659.507 400.447 657.108 401.845L644.514 409.231Z" fill="#FC5410" fill-opacity="0.4"/>
<path d="M639.716 406.436L639.116 405.438L651.71 398.052C653.709 396.854 655.309 394.259 655.309 391.864V388.869C655.309 386.274 657.108 383.08 659.507 381.683L662.106 380.086L662.705 381.084L660.107 382.681C658.108 383.879 656.508 386.673 656.508 388.869V391.864C656.508 394.459 654.709 397.653 652.31 399.05L639.716 406.436Z" fill="#FC5410" fill-opacity="0.4"/>
<path d="M634.718 403.641L634.118 402.643L646.713 395.257C648.712 394.059 650.311 391.464 650.311 389.069V386.074C650.311 383.479 652.11 380.285 654.509 378.888L657.108 377.291L657.708 378.289L655.109 379.886C653.11 381.084 651.51 383.879 651.51 386.074V389.069C651.51 391.664 649.711 394.858 647.312 396.255L634.718 403.641Z" fill="#FC5410" fill-opacity="0.4"/>
<path d="M629.72 400.847L629.12 399.849L641.715 392.462C643.714 391.265 645.313 388.47 645.313 386.274V383.28C645.313 380.685 647.112 377.491 649.511 376.093L652.11 374.496L652.71 375.494L650.111 377.091C648.112 378.289 646.513 380.884 646.513 383.28V386.274C646.513 388.869 644.713 392.063 642.314 393.461L629.72 400.847Z" fill="#FC5410" fill-opacity="0.4"/>
<path d="M624.922 398.052L624.323 397.054L636.917 389.668C638.916 388.47 640.515 385.675 640.515 383.479V380.485C640.515 377.89 642.314 374.696 644.713 373.298L647.312 371.701L647.912 372.699L645.313 374.296C643.314 375.494 641.715 378.289 641.715 380.485V383.479C641.715 386.074 639.916 389.268 637.517 390.666L624.922 398.052Z" fill="#FC5410" fill-opacity="0.4"/>
<path d="M619.924 395.057L619.325 394.059L631.919 386.673C633.918 385.475 635.517 382.681 635.517 380.485V377.49C635.517 374.895 637.317 371.701 639.716 370.304L642.314 368.707L642.914 369.705L640.315 371.302C638.316 372.5 636.717 375.295 636.717 377.49V380.485C636.717 383.08 634.918 386.274 632.519 387.671L619.924 395.057Z" fill="#FC5410" fill-opacity="0.4"/>
<path d="M615.127 392.263L614.527 391.265L627.121 383.879C629.12 382.681 630.72 379.886 630.72 377.69V374.696C630.72 372.101 632.519 368.907 634.918 367.509L637.517 365.912L638.116 366.91L635.518 368.507C633.518 369.705 631.919 372.5 631.919 374.696V377.69C631.919 380.285 630.12 383.479 627.721 384.877L615.127 392.263Z" fill="#FC5410" fill-opacity="0.4"/>
<path opacity="0.5" d="M732.874 397.653L658.307 354.534V320.997L732.674 362.12L807.641 319.2V354.534L732.874 397.653Z" fill="url(#paint8_linear)"/>
<path opacity="0.7" d="M807.641 327.584V319.2L732.474 362.12L658.108 320.797V327.784L728.076 368.108C730.475 369.506 734.873 369.306 737.672 367.709L807.641 327.584Z" fill="url(#paint9_linear)"/>
<path d="M737.872 362.718L810.04 321.196C811.639 320.198 812.439 319.2 812.439 318.002V305.027L810.04 307.223L807.841 306.025C808.041 305.825 808.241 305.426 808.241 305.426C808.041 305.226 807.241 303.629 807.241 303.629L756.264 273.686L740.071 264.303L733.674 262.507L659.507 305.027L659.707 306.823L657.708 308.021L654.509 306.624V319.599C654.509 320.598 655.109 321.396 656.108 321.995L727.877 363.317C730.675 364.715 734.873 364.515 737.872 362.718ZM767.059 330.778L734.474 348.545L731.675 348.345L677.099 317.803L661.906 310.017L733.074 269.094C733.674 268.695 734.673 268.695 735.273 269.094L804.642 309.019L767.059 330.778Z" fill="url(#paint10_linear)"/>
<path d="M737.872 362.718L810.04 321.196C811.639 320.198 812.439 319.2 812.439 318.002V305.027L810.04 307.223L807.841 306.025C808.041 305.825 808.241 305.426 808.241 305.426C808.041 305.226 807.241 303.629 807.241 303.629L756.264 273.686L740.071 264.303L733.674 262.507L659.507 305.027L659.707 306.823L657.708 308.021L654.509 306.624V319.599C654.509 320.598 655.109 321.396 656.108 321.995L727.877 363.317C730.675 364.715 734.873 364.515 737.872 362.718ZM767.059 330.778L734.474 348.545L731.675 348.345L677.099 317.803L661.906 310.017L733.074 269.094C733.674 268.695 734.673 268.695 735.273 269.094L804.642 309.019L767.059 330.778Z" fill="url(#paint11_linear)"/>
<path opacity="0.6" d="M732.674 364.116V348.345H734.474L767.059 330.579L804.642 308.82L803.443 308.021C804.642 307.422 811.239 305.426 812.439 304.827V316.805V317.803C812.439 319 811.639 319.999 810.04 320.997L737.872 362.519C736.273 363.716 734.474 364.116 732.674 364.116Z" fill="#0F054C"/>
<path d="M737.871 349.743L810.039 308.221C812.838 306.624 813.238 304.029 810.839 302.631L739.071 261.309C736.672 259.912 732.274 260.111 729.475 261.708L657.307 303.23C654.508 304.827 654.108 307.422 656.507 308.82L728.275 350.142C730.674 351.539 734.873 351.34 737.871 349.743ZM733.873 347.148C733.273 347.547 732.274 347.547 731.674 347.148L661.105 306.424C660.506 306.025 660.705 305.626 661.305 305.226L733.273 263.904C733.873 263.505 734.872 263.505 735.472 263.904L806.041 304.628C806.641 305.027 806.441 305.426 805.841 305.825L733.873 347.148Z" fill="url(#paint12_linear)"/>
<path d="M737.871 349.743L810.039 308.221C812.838 306.624 813.238 304.029 810.839 302.631L739.071 261.309C736.672 259.912 732.274 260.111 729.475 261.708L657.307 303.23C654.508 304.827 654.108 307.422 656.507 308.82L728.275 350.142C730.674 351.539 734.873 351.34 737.871 349.743ZM733.873 347.148C733.273 347.547 732.274 347.547 731.674 347.148L661.105 306.424C660.506 306.025 660.705 305.626 661.305 305.226L733.273 263.904C733.873 263.505 734.872 263.505 735.472 263.904L806.041 304.628C806.641 305.027 806.441 305.426 805.841 305.825L733.873 347.148Z" fill="url(#paint13_linear)"/>
<path d="M805.842 303.829L735.273 263.106C734.673 262.706 733.674 262.906 733.074 263.106L661.106 304.428C660.507 304.827 660.506 305.226 660.706 305.426C660.706 305.226 660.906 305.226 661.106 305.027L733.074 263.704C733.674 263.305 734.673 263.305 735.273 263.704L805.842 304.428C806.042 304.428 806.042 304.628 806.042 304.628C806.442 304.428 806.242 304.029 805.842 303.829Z" fill="url(#paint14_linear)"/>
<path d="M810.04 307.422L737.872 348.944C735.073 350.541 730.675 350.741 728.276 349.343L656.508 308.021C655.509 307.422 654.909 306.823 654.909 306.025C654.709 307.023 655.309 308.021 656.508 308.82L728.276 350.142C730.675 351.539 735.073 351.34 737.872 349.743L810.04 308.221C811.839 307.223 812.639 305.825 812.439 304.628C812.239 305.626 811.439 306.624 810.04 307.422Z" fill="url(#paint15_linear)"/>
<path d="M735.273 269.094C734.673 268.695 733.674 268.895 733.074 269.094L664.505 308.62L661.106 306.624C660.506 306.224 660.706 305.825 661.306 305.426L733.274 264.104C733.874 263.704 734.873 263.704 735.473 264.104L806.042 304.827C806.641 305.226 806.442 305.626 805.842 306.025L802.443 308.021L735.273 269.094Z" fill="#251C72"/>
<path opacity="0.7" d="M805.842 305.825C806.442 305.426 806.641 304.827 806.042 304.628L735.473 263.904C734.873 263.505 733.874 263.704 733.274 263.904L661.306 305.226C660.706 305.626 660.506 306.225 661.106 306.424L731.675 347.347C732.275 347.746 733.274 347.547 733.874 347.347L805.842 305.825Z" fill="url(#paint16_linear)"/>
<path d="M737.872 340.36L810.04 298.838C811.639 297.84 812.439 296.842 812.439 295.644V282.669L810.04 284.865L807.841 283.667C808.041 283.467 808.241 283.068 808.241 283.068C808.041 282.868 807.241 281.271 807.241 281.271L756.264 251.328L740.071 241.945L733.674 240.149L659.507 282.669L659.707 284.465L657.708 285.663L654.509 284.266V297.241C654.509 298.239 655.109 299.038 656.108 299.637L727.877 340.959C730.675 342.157 734.873 341.957 737.872 340.36ZM767.059 308.221L734.474 325.987L731.675 325.788L677.099 295.445L661.906 287.659L733.074 246.736C733.674 246.337 734.673 246.337 735.273 246.736L804.642 286.661L767.059 308.221Z" fill="url(#paint17_linear)"/>
<path d="M737.872 340.36L810.04 298.838C811.639 297.84 812.439 296.842 812.439 295.644V282.669L810.04 284.865L807.841 283.667C808.041 283.467 808.241 283.068 808.241 283.068C808.041 282.868 807.241 281.271 807.241 281.271L756.264 251.328L740.071 241.945L733.674 240.149L659.507 282.669L659.707 284.465L657.708 285.663L654.509 284.266V297.241C654.509 298.239 655.109 299.038 656.108 299.637L727.877 340.959C730.675 342.157 734.873 341.957 737.872 340.36ZM767.059 308.221L734.474 325.987L731.675 325.788L677.099 295.445L661.906 287.659L733.074 246.736C733.674 246.337 734.673 246.337 735.273 246.736L804.642 286.661L767.059 308.221Z" fill="url(#paint18_linear)"/>
<path opacity="0.6" d="M732.674 341.758V325.987H734.474L767.059 308.221L804.642 286.462L803.443 285.663C804.642 285.064 811.239 283.068 812.439 282.469V294.447V295.445C812.439 296.642 811.639 297.641 810.04 298.639L737.872 340.161C736.273 341.159 734.474 341.758 732.674 341.758Z" fill="#0F054C"/>
<path d="M737.871 327.185L810.039 285.663C812.838 284.066 813.238 281.471 810.839 280.074L739.071 238.751C736.672 237.354 732.274 237.553 729.475 239.15L657.307 280.672C654.508 282.269 654.108 284.865 656.507 286.262L728.275 327.584C730.674 328.982 734.873 328.782 737.871 327.185ZM733.873 324.79C733.273 325.189 732.274 325.189 731.674 324.79L661.105 284.066C660.506 283.667 660.705 283.268 661.305 282.868L733.273 241.546C733.873 241.147 734.872 241.147 735.472 241.546L806.041 282.269C806.641 282.669 806.441 283.068 805.841 283.467L733.873 324.79Z" fill="url(#paint19_linear)"/>
<path d="M737.871 327.185L810.039 285.663C812.838 284.066 813.238 281.471 810.839 280.074L739.071 238.751C736.672 237.354 732.274 237.553 729.475 239.15L657.307 280.672C654.508 282.269 654.108 284.865 656.507 286.262L728.275 327.584C730.674 328.982 734.873 328.782 737.871 327.185ZM733.873 324.79C733.273 325.189 732.274 325.189 731.674 324.79L661.105 284.066C660.506 283.667 660.705 283.268 661.305 282.868L733.273 241.546C733.873 241.147 734.872 241.147 735.472 241.546L806.041 282.269C806.641 282.669 806.441 283.068 805.841 283.467L733.873 324.79Z" fill="url(#paint20_linear)"/>
<path d="M805.842 281.471L735.273 240.747C734.673 240.348 733.674 240.548 733.074 240.747L661.106 282.07C660.507 282.469 660.506 282.868 660.706 283.068C660.706 282.868 660.906 282.868 661.106 282.669L733.074 241.346C733.674 240.947 734.673 240.947 735.273 241.346L805.842 282.07C806.042 282.07 806.042 282.269 806.042 282.269C806.442 282.07 806.242 281.671 805.842 281.471Z" fill="url(#paint21_linear)"/>
<path d="M810.04 285.064L737.872 326.586C735.073 328.183 730.675 328.383 728.276 326.985L656.308 285.463C655.309 284.865 654.709 284.066 654.709 283.467C654.509 284.465 655.109 285.463 656.308 286.262L728.076 327.584C730.475 328.982 734.873 328.782 737.672 327.185L809.84 285.663C811.639 284.665 812.439 283.268 812.239 282.07C812.239 283.268 811.439 284.266 810.04 285.064Z" fill="url(#paint22_linear)"/>
<path d="M735.273 246.537C734.673 246.137 733.674 246.337 733.074 246.537L664.505 286.062L661.106 284.066C660.506 283.667 660.706 283.268 661.306 282.868L733.274 241.546C733.874 241.147 734.873 241.147 735.473 241.546L806.042 282.269C806.641 282.669 806.442 283.068 805.842 283.467L802.443 285.463L735.273 246.537Z" fill="#251C72"/>
<path opacity="0.7" d="M805.842 283.467C806.442 283.068 806.641 282.469 806.042 282.27L735.473 241.546C734.873 241.147 733.874 241.346 733.274 241.546L661.306 282.868C660.706 283.268 660.506 283.867 661.106 284.066L731.675 324.79C732.275 325.189 733.274 324.989 733.874 324.79L805.842 283.467Z" fill="url(#paint23_linear)"/>
<path d="M737.872 317.803L810.04 276.281C811.639 275.283 812.439 274.285 812.439 273.087V260.111L810.04 262.307L807.841 261.109C808.041 260.91 808.241 260.51 808.241 260.51C808.041 260.311 807.241 258.714 807.241 258.714L756.264 228.77L740.071 219.388L733.674 217.591L659.507 260.111L659.707 261.908L657.708 263.106L654.509 261.708V274.684C654.509 275.682 655.109 276.48 656.108 277.079L727.877 318.402C730.675 319.599 734.873 319.599 737.872 317.803ZM767.059 285.863L734.474 303.629L731.675 303.43L677.099 272.887L661.906 265.102L733.074 224.179C733.674 223.779 734.673 223.779 735.273 224.179L804.642 264.104L767.059 285.863Z" fill="url(#paint24_linear)"/>
<path d="M737.872 317.803L810.04 276.281C811.639 275.283 812.439 274.285 812.439 273.087V260.111L810.04 262.307L807.841 261.109C808.041 260.91 808.241 260.51 808.241 260.51C808.041 260.311 807.241 258.714 807.241 258.714L756.264 228.77L740.071 219.388L733.674 217.591L659.507 260.111L659.707 261.908L657.708 263.106L654.509 261.708V274.684C654.509 275.682 655.109 276.48 656.108 277.079L727.877 318.402C730.675 319.599 734.873 319.599 737.872 317.803ZM767.059 285.863L734.474 303.629L731.675 303.43L677.099 272.887L661.906 265.102L733.074 224.179C733.674 223.779 734.673 223.779 735.273 224.179L804.642 264.104L767.059 285.863Z" fill="url(#paint25_linear)"/>
<path opacity="0.6" d="M732.674 319.2V303.43H734.474L767.059 285.663L804.642 263.904L803.443 263.106C804.642 262.507 811.239 260.51 812.439 259.911V271.889V272.887C812.439 274.085 811.639 275.083 810.04 276.081L737.872 317.603C736.273 318.801 734.474 319.2 732.674 319.2Z" fill="#0F054C"/>
<path d="M737.871 304.627L810.039 263.105C812.838 261.508 813.238 258.913 810.839 257.516L739.071 216.194C736.672 214.796 732.274 214.996 729.475 216.593L657.307 258.115C654.508 259.712 654.108 262.307 656.507 263.704L728.275 305.027C730.674 306.624 734.873 306.424 737.871 304.627ZM733.873 302.232C733.273 302.631 732.274 302.631 731.674 302.232L661.105 261.508C660.506 261.109 660.705 260.71 661.305 260.311L733.273 218.988C733.873 218.589 734.872 218.589 735.472 218.988L806.041 259.712C806.641 260.111 806.441 260.51 805.841 260.91L733.873 302.232Z" fill="url(#paint26_linear)"/>
<path d="M737.871 304.627L810.039 263.105C812.838 261.508 813.238 258.913 810.839 257.516L739.071 216.194C736.672 214.796 732.274 214.996 729.475 216.593L657.307 258.115C654.508 259.712 654.108 262.307 656.507 263.704L728.275 305.027C730.674 306.624 734.873 306.424 737.871 304.627ZM733.873 302.232C733.273 302.631 732.274 302.631 731.674 302.232L661.105 261.508C660.506 261.109 660.705 260.71 661.305 260.311L733.273 218.988C733.873 218.589 734.872 218.589 735.472 218.988L806.041 259.712C806.641 260.111 806.441 260.51 805.841 260.91L733.873 302.232Z" fill="url(#paint27_linear)"/>
<path d="M805.842 258.913L735.273 218.19C734.673 217.791 733.674 217.99 733.074 218.19L661.106 259.512C660.507 259.911 660.506 260.311 660.706 260.51C660.706 260.311 660.906 260.311 661.106 260.111L733.074 218.789C733.674 218.389 734.673 218.389 735.273 218.789L805.842 259.512C806.042 259.512 806.042 259.712 806.042 259.712C806.442 259.512 806.242 259.113 805.842 258.913Z" fill="url(#paint28_linear)"/>
<path d="M810.04 262.507L737.872 304.029C735.073 305.626 730.675 305.825 728.276 304.428L656.508 263.105C655.509 262.507 654.909 261.708 654.909 261.109C654.709 262.107 655.309 263.105 656.508 263.904L728.276 305.226C730.675 306.624 735.073 306.424 737.872 304.827L810.04 263.305C811.839 262.307 812.639 260.91 812.439 259.712C812.239 260.71 811.439 261.708 810.04 262.507Z" fill="url(#paint29_linear)"/>
<path d="M735.273 224.179C734.673 223.779 733.674 223.979 733.074 224.179L664.505 263.704L661.106 261.708C660.506 261.309 660.706 260.91 661.306 260.51L733.274 219.188C733.874 218.789 734.873 218.789 735.473 219.188L806.042 259.912C806.641 260.311 806.442 260.71 805.842 261.109L802.443 263.106L735.273 224.179Z" fill="#251C72"/>
<path opacity="0.7" d="M805.842 260.91C806.442 260.51 806.641 259.912 806.042 259.712L735.473 218.988C734.873 218.589 733.874 218.789 733.274 218.988L661.306 260.311C660.706 260.71 660.506 261.309 661.106 261.509L731.675 302.232C732.275 302.631 733.274 302.432 733.874 302.232L805.842 260.91Z" fill="url(#paint30_linear)"/>
<path d="M737.872 295.445L810.04 253.923C811.639 252.925 812.439 251.927 812.439 250.729V237.753L810.04 239.949L807.841 238.751C808.041 238.552 808.241 238.152 808.241 238.152C808.041 237.953 807.241 236.356 807.241 236.356L756.264 206.412L740.071 197.03L733.674 195.233L659.507 237.554L659.707 239.35L657.708 240.548L654.509 239.151V252.126C654.509 253.124 655.109 253.923 656.108 254.522L727.877 295.844C730.675 297.241 734.873 297.042 737.872 295.445ZM767.059 263.305L734.474 281.072L731.675 280.872L677.099 250.33L661.906 242.544L733.074 201.621C733.674 201.222 734.673 201.222 735.273 201.621L804.642 241.546L767.059 263.305Z" fill="url(#paint31_linear)"/>
<path d="M737.872 295.445L810.04 253.923C811.639 252.925 812.439 251.927 812.439 250.729V237.753L810.04 239.949L807.841 238.751C808.041 238.552 808.241 238.152 808.241 238.152C808.041 237.953 807.241 236.356 807.241 236.356L756.264 206.412L740.071 197.03L733.674 195.233L659.507 237.554L659.707 239.35L657.708 240.548L654.509 239.151V252.126C654.509 253.124 655.109 253.923 656.108 254.522L727.877 295.844C730.675 297.241 734.873 297.042 737.872 295.445ZM767.059 263.305L734.474 281.072L731.675 280.872L677.099 250.33L661.906 242.544L733.074 201.621C733.674 201.222 734.673 201.222 735.273 201.621L804.642 241.546L767.059 263.305Z" fill="url(#paint32_linear)"/>
<path opacity="0.6" d="M732.674 296.842V281.072H734.474L767.059 263.305L804.642 241.546L803.443 240.748C804.642 240.149 811.239 238.152 812.439 237.554V249.531V250.529C812.439 251.727 811.639 252.725 810.04 253.723L737.872 295.445C736.273 296.243 734.474 296.642 732.674 296.842Z" fill="#0F054C"/>
<path d="M737.871 282.269L810.039 240.748C812.838 239.151 813.238 236.555 810.839 235.158L739.071 193.836C736.672 192.438 732.274 192.638 729.475 194.235L656.907 235.557C654.108 237.154 653.709 239.749 656.108 241.147L727.876 282.469C730.674 284.066 734.873 283.866 737.871 282.269ZM733.873 279.874C733.273 280.273 732.274 280.273 731.674 279.874L661.105 239.151C660.506 238.751 660.706 238.352 661.305 237.953L733.273 196.63C733.873 196.231 734.873 196.231 735.472 196.63L806.041 237.354C806.641 237.753 806.441 238.152 805.841 238.552L733.873 279.874Z" fill="url(#paint33_linear)"/>
<path d="M737.871 282.269L810.039 240.748C812.838 239.151 813.238 236.555 810.839 235.158L739.071 193.836C736.672 192.438 732.274 192.638 729.475 194.235L656.907 235.557C654.108 237.154 653.709 239.749 656.108 241.147L727.876 282.469C730.674 284.066 734.873 283.866 737.871 282.269ZM733.873 279.874C733.273 280.273 732.274 280.273 731.674 279.874L661.105 239.151C660.506 238.751 660.706 238.352 661.305 237.953L733.273 196.63C733.873 196.231 734.873 196.231 735.472 196.63L806.041 237.354C806.641 237.753 806.441 238.152 805.841 238.552L733.873 279.874Z" fill="url(#paint34_linear)"/>
<path d="M805.842 236.356L735.273 195.632C734.673 195.233 733.674 195.433 733.074 195.632L661.106 236.955C660.507 237.354 660.506 237.753 660.706 237.953C660.706 237.753 660.906 237.753 661.106 237.554L733.074 196.231C733.674 195.832 734.673 195.832 735.273 196.231L805.842 236.955C806.042 236.955 806.042 237.154 806.042 237.154C806.442 236.955 806.242 236.755 805.842 236.356Z" fill="url(#paint35_linear)"/>
<path d="M810.04 239.949L737.872 281.471C735.073 283.068 730.675 283.268 728.276 281.87L656.508 240.548C655.509 239.949 654.909 239.151 654.909 238.552C654.709 239.55 655.309 240.548 656.508 241.346L728.276 282.669C730.675 284.066 735.073 283.866 737.872 282.269L810.04 240.748C811.839 239.749 812.639 238.352 812.439 237.154C812.239 238.152 811.439 239.151 810.04 239.949Z" fill="url(#paint36_linear)"/>
<path d="M735.273 201.621C734.673 201.222 733.674 201.421 733.074 201.621L664.505 241.147L661.106 239.15C660.506 238.751 660.706 238.352 661.306 237.953L733.274 196.63C733.874 196.231 734.873 196.231 735.473 196.63L806.042 237.354C806.641 237.753 806.442 238.152 805.842 238.552L802.443 240.548L735.273 201.621Z" fill="#251C72"/>
<path opacity="0.7" d="M805.842 238.352C806.442 237.953 806.641 237.354 806.042 237.154L735.473 196.431C734.873 196.032 733.874 196.231 733.274 196.431L661.306 237.753C660.706 238.152 660.506 238.751 661.106 238.951L731.675 279.674C732.275 280.074 733.274 279.874 733.874 279.674L805.842 238.352Z" fill="url(#paint37_linear)"/>
<path d="M796.446 255.32C796.446 256.119 795.846 256.917 795.247 257.316C794.647 257.716 794.047 257.316 794.047 256.718C794.047 256.119 794.647 255.121 795.247 254.721C796.046 254.322 796.446 254.721 796.446 255.32Z" fill="url(#paint38_linear)"/>
<path d="M800.644 253.124C800.644 253.923 800.044 254.721 799.445 255.121C798.845 255.52 798.245 255.121 798.245 254.522C798.245 253.723 798.845 252.925 799.445 252.525C800.044 251.927 800.644 252.326 800.644 253.124Z" fill="url(#paint39_linear)"/>
<path d="M804.642 250.729C804.642 251.527 804.043 252.326 803.443 252.725C802.843 253.124 802.243 252.725 802.243 252.126C802.243 251.328 802.843 250.529 803.443 250.13C804.243 249.531 804.642 249.93 804.642 250.729Z" fill="url(#paint40_linear)"/>
<path d="M796.446 278.277C796.446 279.076 795.846 279.874 795.247 280.273C794.647 280.673 794.047 280.273 794.047 279.674C794.047 279.076 794.647 278.077 795.247 277.678C796.046 277.279 796.446 277.678 796.446 278.277Z" fill="url(#paint41_linear)"/>
<path d="M800.644 276.081C800.644 276.88 800.044 277.678 799.445 278.077C798.845 278.477 798.245 278.077 798.245 277.478C798.245 276.88 798.845 275.881 799.445 275.482C800.044 274.883 800.644 275.283 800.644 276.081Z" fill="url(#paint42_linear)"/>
<path d="M804.642 273.686C804.642 274.484 804.043 275.283 803.443 275.682C802.843 276.081 802.243 275.682 802.243 275.083C802.243 274.285 802.843 273.486 803.443 273.087C804.243 272.488 804.642 272.887 804.642 273.686Z" fill="url(#paint43_linear)"/>
<path d="M796.446 322.594C796.446 323.392 795.846 324.191 795.247 324.59C794.647 324.989 794.047 324.59 794.047 323.991C794.047 323.193 794.647 322.394 795.247 321.995C796.046 321.596 796.446 321.795 796.446 322.594Z" fill="#706EC4"/>
<path d="M800.644 320.198C800.644 320.997 800.044 321.795 799.445 322.194C798.845 322.594 798.245 322.194 798.245 321.595C798.245 320.797 798.845 319.998 799.445 319.599C800.044 319.2 800.644 319.599 800.644 320.198Z" fill="#706EC4"/>
<path d="M804.642 317.803C804.642 318.601 804.043 319.4 803.443 319.799C802.843 320.198 802.243 319.799 802.243 319.2C802.243 318.402 802.843 317.603 803.443 317.204C804.243 316.805 804.642 317.204 804.642 317.803Z" fill="#706EC4"/>
</g>
<defs>
<radialGradient id="paint0_radial" cx="0" cy="0" r="1" gradientUnits="userSpaceOnUse" gradientTransform="translate(733.446 368.312) scale(90.99 90.8596)">
<stop stop-color="#03002D"/>
<stop offset="0.1597" stop-color="#413F61"/>
<stop offset="0.3263" stop-color="#7A7890"/>
<stop offset="0.4878" stop-color="#AAA9B8"/>
<stop offset="0.6398" stop-color="#CFCED7"/>
<stop offset="0.78" stop-color="#E9E9ED"/>
<stop offset="0.9044" stop-color="#F9F9FA"/>
<stop offset="1" stop-color="white"/>
</radialGradient>
<linearGradient id="paint1_linear" x1="587.711" y1="398.935" x2="836.818" y2="398.935" gradientUnits="userSpaceOnUse">
<stop stop-color="#706EC4"/>
<stop offset="0.0222208" stop-color="#6D6BC2"/>
<stop offset="0.2509" stop-color="#5651AC"/>
<stop offset="0.4865" stop-color="#463F9D"/>
<stop offset="0.7314" stop-color="#3C3494"/>
<stop offset="1" stop-color="#393091"/>
</linearGradient>
<linearGradient id="paint2_linear" x1="658.209" y1="365.321" x2="807.729" y2="365.321" gradientUnits="userSpaceOnUse">
<stop stop-color="#FC5410"/>
<stop offset="0.1507" stop-color="#EF6228"/>
<stop offset="0.3285" stop-color="#DD7449"/>
<stop offset="0.5199" stop-color="#C9866B"/>
<stop offset="0.7209" stop-color="#E29854"/>
<stop offset="0.9274" stop-color="#D86454"/>
<stop offset="1" stop-color="#D75757"/>
</linearGradient>
<linearGradient id="paint3_linear" x1="732.968" y1="338.336" x2="807.729" y2="338.336" gradientUnits="userSpaceOnUse">
<stop stop-color="#42E8E0"/>
<stop offset="0.1507" stop-color="#43E3E0"/>
<stop offset="0.3285" stop-color="#45D5DF"/>
<stop offset="0.5199" stop-color="#49BDDD"/>
<stop offset="0.7209" stop-color="#4E9CDB"/>
<stop offset="0.9274" stop-color="#5472D8"/>
<stop offset="1" stop-color="#5761D7"/>
</linearGradient>
<linearGradient id="paint4_linear" x1="658.209" y1="338.335" x2="732.97" y2="338.335" gradientUnits="userSpaceOnUse">
<stop stop-color="#42E8E0"/>
<stop offset="0.1507" stop-color="#43E3E0"/>
<stop offset="0.3285" stop-color="#45D5DF"/>
<stop offset="0.5199" stop-color="#49BDDD"/>
<stop offset="0.7209" stop-color="#4E9CDB"/>
<stop offset="0.9274" stop-color="#5472D8"/>
<stop offset="1" stop-color="#5761D7"/>
</linearGradient>
<linearGradient id="paint5_linear" x1="658.209" y1="354.452" x2="807.729" y2="354.452" gradientUnits="userSpaceOnUse">
<stop stop-color="#FC5410"/>
<stop offset="0.1507" stop-color="#F15719"/>
<stop offset="0.3285" stop-color="#DC6230"/>
<stop offset="0.5199" stop-color="#C06E4D"/>
<stop offset="0.7209" stop-color="#DB9A4E"/>
<stop offset="0.9274" stop-color="#DD7A32"/>
<stop offset="1" stop-color="#D76E57"/>
</linearGradient>
<linearGradient id="paint6_linear" x1="732.874" y1="361.271" x2="817.186" y2="386.845" gradientUnits="userSpaceOnUse">
<stop stop-color="#FC5410"/>
<stop offset="1" stop-color="#F5D20F"/>
</linearGradient>
<linearGradient id="paint7_linear" x1="658.307" y1="361.271" x2="742.432" y2="386.72" gradientUnits="userSpaceOnUse">
<stop stop-color="#FC5410"/>
<stop offset="1" stop-color="#F5D20F"/>
</linearGradient>
<linearGradient id="paint8_linear" x1="658.307" y1="329.007" x2="815.046" y2="394.245" gradientUnits="userSpaceOnUse">
<stop stop-color="#FC5410"/>
<stop offset="1" stop-color="#F5D20F"/>
</linearGradient>
<linearGradient id="paint9_linear" x1="658.108" y1="325.431" x2="786.843" y2="409.883" gradientUnits="userSpaceOnUse">
<stop stop-color="#FC5410"/>
<stop offset="1" stop-color="#FC5410"/>
</linearGradient>
<linearGradient id="paint10_linear" x1="720.042" y1="289.273" x2="756.592" y2="352.819" gradientUnits="userSpaceOnUse">
<stop stop-color="#BCBEFF"/>
<stop offset="0.1659" stop-color="#B6B8FC"/>
<stop offset="0.3956" stop-color="#A4A8F5"/>
<stop offset="0.6625" stop-color="#868DEA"/>
<stop offset="0.9554" stop-color="#5E67DA"/>
<stop offset="1" stop-color="#5761D7"/>
</linearGradient>
<linearGradient id="paint11_linear" x1="720.042" y1="289.273" x2="756.592" y2="352.819" gradientUnits="userSpaceOnUse">
<stop stop-color="#706EC4"/>
<stop offset="0.0222208" stop-color="#6D6BC2"/>
<stop offset="0.2509" stop-color="#5651AC"/>
<stop offset="0.4865" stop-color="#463F9D"/>
<stop offset="0.7314" stop-color="#3C3494"/>
<stop offset="1" stop-color="#393091"/>
</linearGradient>
<linearGradient id="paint12_linear" x1="713.305" y1="270.647" x2="753.545" y2="340.608" gradientUnits="userSpaceOnUse">
<stop stop-color="#BCBEFF"/>
<stop offset="0.1659" stop-color="#B6B8FC"/>
<stop offset="0.3956" stop-color="#A4A8F5"/>
<stop offset="0.6625" stop-color="#868DEA"/>
<stop offset="0.9554" stop-color="#5E67DA"/>
<stop offset="1" stop-color="#5761D7"/>
</linearGradient>
<linearGradient id="paint13_linear" x1="707.736" y1="260.991" x2="780.334" y2="387.213" gradientUnits="userSpaceOnUse">
<stop stop-color="#706EC4"/>
<stop offset="0.0222208" stop-color="#6D6BC2"/>
<stop offset="0.2509" stop-color="#5651AC"/>
<stop offset="0.4865" stop-color="#463F9D"/>
<stop offset="0.7314" stop-color="#3C3494"/>
<stop offset="1" stop-color="#393091"/>
</linearGradient>
<linearGradient id="paint14_linear" x1="660.587" y1="268.194" x2="775.548" y2="354.253" gradientUnits="userSpaceOnUse">
<stop stop-color="#FC5410"/>
<stop offset="1" stop-color="#F5D20F"/>
</linearGradient>
<linearGradient id="paint15_linear" x1="654.871" y1="310.434" x2="780.042" y2="403.299" gradientUnits="userSpaceOnUse">
<stop stop-color="#FC5410"/>
<stop offset="1" stop-color="#F5D20F"/>
</linearGradient>
<linearGradient id="paint16_linear" x1="660.744" y1="274.162" x2="817.521" y2="333.675" gradientUnits="userSpaceOnUse">
<stop stop-color="#FC5410"/>
<stop offset="1" stop-color="#F5D20F"/>
</linearGradient>
<linearGradient id="paint17_linear" x1="720.043" y1="266.803" x2="756.592" y2="330.348" gradientUnits="userSpaceOnUse">
<stop stop-color="#BCBEFF"/>
<stop offset="0.1659" stop-color="#B6B8FC"/>
<stop offset="0.3956" stop-color="#A4A8F5"/>
<stop offset="0.6625" stop-color="#868DEA"/>
<stop offset="0.9554" stop-color="#5E67DA"/>
<stop offset="1" stop-color="#5761D7"/>
</linearGradient>
<linearGradient id="paint18_linear" x1="720.043" y1="266.803" x2="756.592" y2="330.348" gradientUnits="userSpaceOnUse">
<stop stop-color="#706EC4"/>
<stop offset="0.0222208" stop-color="#6D6BC2"/>
<stop offset="0.2509" stop-color="#5651AC"/>
<stop offset="0.4865" stop-color="#463F9D"/>
<stop offset="0.7314" stop-color="#3C3494"/>
<stop offset="1" stop-color="#393091"/>
</linearGradient>
<linearGradient id="paint19_linear" x1="713.306" y1="248.177" x2="753.545" y2="318.138" gradientUnits="userSpaceOnUse">
<stop stop-color="#BCBEFF"/>
<stop offset="0.1659" stop-color="#B6B8FC"/>
<stop offset="0.3956" stop-color="#A4A8F5"/>
<stop offset="0.6625" stop-color="#868DEA"/>
<stop offset="0.9554" stop-color="#5E67DA"/>
<stop offset="1" stop-color="#5761D7"/>
</linearGradient>
<linearGradient id="paint20_linear" x1="707.736" y1="238.521" x2="780.335" y2="364.742" gradientUnits="userSpaceOnUse">
<stop stop-color="#706EC4"/>
<stop offset="0.0222208" stop-color="#6D6BC2"/>
<stop offset="0.2509" stop-color="#5651AC"/>
<stop offset="0.4865" stop-color="#463F9D"/>
<stop offset="0.7314" stop-color="#3C3494"/>
<stop offset="1" stop-color="#393091"/>
</linearGradient>
<linearGradient id="paint21_linear" x1="660.587" y1="245.836" x2="775.548" y2="331.895" gradientUnits="userSpaceOnUse">
<stop stop-color="#FC5410"/>
<stop offset="1" stop-color="#F5D20F"/>
</linearGradient>
<linearGradient id="paint22_linear" x1="654.671" y1="287.876" x2="779.842" y2="380.742" gradientUnits="userSpaceOnUse">
<stop stop-color="#FC5410"/>
<stop offset="1" stop-color="#F5D20F"/>
</linearGradient>
<linearGradient id="paint23_linear" x1="660.744" y1="251.779" x2="817.426" y2="311.398" gradientUnits="userSpaceOnUse">
<stop stop-color="#FC5410"/>
<stop offset="1" stop-color="#F5D20F"/>
</linearGradient>
<linearGradient id="paint24_linear" x1="720.042" y1="244.332" x2="756.592" y2="307.878" gradientUnits="userSpaceOnUse">
<stop stop-color="#BCBEFF"/>
<stop offset="0.1659" stop-color="#B6B8FC"/>
<stop offset="0.3956" stop-color="#A4A8F5"/>
<stop offset="0.6625" stop-color="#868DEA"/>
<stop offset="0.9554" stop-color="#5E67DA"/>
<stop offset="1" stop-color="#5761D7"/>
</linearGradient>
<linearGradient id="paint25_linear" x1="720.042" y1="244.332" x2="756.592" y2="307.878" gradientUnits="userSpaceOnUse">
<stop stop-color="#706EC4"/>
<stop offset="0.0222208" stop-color="#6D6BC2"/>
<stop offset="0.2509" stop-color="#5651AC"/>
<stop offset="0.4865" stop-color="#463F9D"/>
<stop offset="0.7314" stop-color="#3C3494"/>
<stop offset="1" stop-color="#393091"/>
</linearGradient>
<linearGradient id="paint26_linear" x1="713.306" y1="225.706" x2="753.545" y2="295.667" gradientUnits="userSpaceOnUse">
<stop stop-color="#BCBEFF"/>
<stop offset="0.1659" stop-color="#B6B8FC"/>
<stop offset="0.3956" stop-color="#A4A8F5"/>
<stop offset="0.6625" stop-color="#868DEA"/>
<stop offset="0.9554" stop-color="#5E67DA"/>
<stop offset="1" stop-color="#5761D7"/>
</linearGradient>
<linearGradient id="paint27_linear" x1="707.736" y1="216.05" x2="780.334" y2="342.271" gradientUnits="userSpaceOnUse">
<stop stop-color="#706EC4"/>
<stop offset="0.0222208" stop-color="#6D6BC2"/>
<stop offset="0.2509" stop-color="#5651AC"/>
<stop offset="0.4865" stop-color="#463F9D"/>
<stop offset="0.7314" stop-color="#3C3494"/>
<stop offset="1" stop-color="#393091"/>
</linearGradient>
<linearGradient id="paint28_linear" x1="660.587" y1="223.278" x2="775.548" y2="309.337" gradientUnits="userSpaceOnUse">
<stop stop-color="#FC5410"/>
<stop offset="1" stop-color="#F5D20F"/>
</linearGradient>
<linearGradient id="paint29_linear" x1="654.871" y1="265.518" x2="780.042" y2="358.384" gradientUnits="userSpaceOnUse">
<stop stop-color="#FC5410"/>
<stop offset="1" stop-color="#F5D20F"/>
</linearGradient>
<linearGradient id="paint30_linear" x1="660.744" y1="229.221" x2="817.426" y2="288.84" gradientUnits="userSpaceOnUse">
<stop stop-color="#FC5410"/>
<stop offset="1" stop-color="#F5D20F"/>
</linearGradient>
<linearGradient id="paint31_linear" x1="720.043" y1="221.861" x2="756.592" y2="285.407" gradientUnits="userSpaceOnUse">
<stop stop-color="#BCBEFF"/>
<stop offset="0.1659" stop-color="#B6B8FC"/>
<stop offset="0.3956" stop-color="#A4A8F5"/>
<stop offset="0.6625" stop-color="#868DEA"/>
<stop offset="0.9554" stop-color="#5E67DA"/>
<stop offset="1" stop-color="#5761D7"/>
</linearGradient>
<linearGradient id="paint32_linear" x1="720.043" y1="221.861" x2="756.592" y2="285.407" gradientUnits="userSpaceOnUse">
<stop stop-color="#706EC4"/>
<stop offset="0.0222208" stop-color="#6D6BC2"/>
<stop offset="0.2509" stop-color="#5651AC"/>
<stop offset="0.4865" stop-color="#463F9D"/>
<stop offset="0.7314" stop-color="#3C3494"/>
<stop offset="1" stop-color="#393091"/>
</linearGradient>
<linearGradient id="paint33_linear" x1="713.305" y1="203.236" x2="753.545" y2="273.197" gradientUnits="userSpaceOnUse">
<stop stop-color="#BCBEFF"/>
<stop offset="0.1659" stop-color="#B6B8FC"/>
<stop offset="0.3956" stop-color="#A4A8F5"/>
<stop offset="0.6625" stop-color="#868DEA"/>
<stop offset="0.9554" stop-color="#5E67DA"/>
<stop offset="1" stop-color="#5761D7"/>
</linearGradient>
<linearGradient id="paint34_linear" x1="707.736" y1="193.58" x2="780.334" y2="319.801" gradientUnits="userSpaceOnUse">
<stop stop-color="#706EC4"/>
<stop offset="0.0222208" stop-color="#6D6BC2"/>
<stop offset="0.2509" stop-color="#5651AC"/>
<stop offset="0.4865" stop-color="#463F9D"/>
<stop offset="0.7314" stop-color="#3C3494"/>
<stop offset="1" stop-color="#393091"/>
</linearGradient>
<linearGradient id="paint35_linear" x1="660.587" y1="200.721" x2="775.548" y2="286.78" gradientUnits="userSpaceOnUse">
<stop stop-color="#FC5410"/>
<stop offset="1" stop-color="#F5D20F"/>
</linearGradient>
<linearGradient id="paint36_linear" x1="654.871" y1="242.96" x2="780.042" y2="335.826" gradientUnits="userSpaceOnUse">
<stop stop-color="#FC5410"/>
<stop offset="1" stop-color="#F5D20F"/>
</linearGradient>
<linearGradient id="paint37_linear" x1="660.744" y1="206.663" x2="817.426" y2="266.283" gradientUnits="userSpaceOnUse">
<stop stop-color="#FC5410"/>
<stop offset="1" stop-color="#F5D20F"/>
</linearGradient>
<linearGradient id="paint38_linear" x1="794.047" y1="254.925" x2="796.909" y2="255.44" gradientUnits="userSpaceOnUse">
<stop stop-color="#FC5410"/>
<stop offset="1" stop-color="#F5D20F"/>
</linearGradient>
<linearGradient id="paint39_linear" x1="798.245" y1="252.618" x2="801.114" y2="253.112" gradientUnits="userSpaceOnUse">
<stop stop-color="#FC5410"/>
<stop offset="1" stop-color="#F5D20F"/>
</linearGradient>
<linearGradient id="paint40_linear" x1="802.243" y1="250.222" x2="805.112" y2="250.716" gradientUnits="userSpaceOnUse">
<stop stop-color="#FC5410"/>
<stop offset="1" stop-color="#F5D20F"/>
</linearGradient>
<linearGradient id="paint41_linear" x1="794.047" y1="277.882" x2="796.909" y2="278.397" gradientUnits="userSpaceOnUse">
<stop stop-color="#FC5410"/>
<stop offset="1" stop-color="#F5D20F"/>
</linearGradient>
<linearGradient id="paint42_linear" x1="798.245" y1="275.574" x2="801.114" y2="276.069" gradientUnits="userSpaceOnUse">
<stop stop-color="#FC5410"/>
<stop offset="1" stop-color="#F5D20F"/>
</linearGradient>
<linearGradient id="paint43_linear" x1="802.243" y1="273.179" x2="805.112" y2="273.673" gradientUnits="userSpaceOnUse">
<stop stop-color="#FC5410"/>
<stop offset="1" stop-color="#F5D20F"/>
</linearGradient>
<clipPath id="clip0">
<rect width="1350" height="745" fill="white"/>
</clipPath>
</defs>
</svg>
