<svg width="344" height="505" viewBox="0 0 344 505" fill="none" xmlns="http://www.w3.org/2000/svg">
<g clip-path="url(#clip0)">
<path d="M198.51 424.817L187.906 418.594V371.927L180.271 357.361V323.845H181.685V357.078L189.32 371.502V417.746L198.51 423.261L245.452 394.27L246.159 395.543L198.51 424.817Z" fill="url(#paint0_linear)"/>
<path d="M249.976 395.543C248.421 396.392 245.876 396.392 244.179 395.543C242.624 394.553 242.624 393.139 244.179 392.149C245.734 391.159 248.279 391.301 249.976 392.149C251.531 393.139 251.531 394.553 249.976 395.543Z" fill="#FFA98C"/>
<path d="M188.613 451.686L178.009 445.463V398.796L170.374 384.23V350.714H171.788V383.947L179.423 398.372V444.615L188.613 450.13L235.554 421.14L236.261 422.413L188.613 451.686Z" fill="url(#paint1_linear)"/>
<path d="M240.079 422.412C238.524 423.261 235.979 423.261 234.282 422.412C232.727 421.422 232.727 420.008 234.282 419.018C235.837 418.028 238.382 418.17 240.079 419.018C241.634 420.008 241.634 421.422 240.079 422.412Z" fill="#FFA98C"/>
<path d="M93.5994 425.241L93.1752 425.099L47.9307 396.957L48.6376 395.826L93.5994 423.544L114.101 411.241V382.109L129.654 357.078V323.845H131.068V357.502L115.515 382.533V412.089L93.5994 425.241Z" fill="url(#paint2_linear)"/>
<path d="M49.0618 397.806C47.5065 398.654 44.9615 398.654 43.2649 397.806C41.7096 396.816 41.7096 395.402 43.2649 394.412C44.8201 393.563 47.3651 393.563 49.0618 394.412C50.6171 395.402 50.6171 396.816 49.0618 397.806Z" fill="#FFA98C"/>
<path d="M93.741 451.827L93.3168 451.544L48.0723 423.544L48.7792 422.271L93.741 450.13L114.242 437.827V408.695L129.795 383.523V350.431H131.209V383.947L115.656 409.119V438.675L93.741 451.827Z" fill="url(#paint3_linear)"/>
<path d="M49.2034 424.251C47.6481 425.099 45.1031 425.099 43.4065 424.251C41.8512 423.261 41.8512 421.847 43.4065 420.857C44.9617 420.008 47.5067 420.008 49.2034 420.857C50.7587 421.847 50.7587 423.402 49.2034 424.251Z" fill="#FFA98C"/>
<path d="M146.479 476.434V489.02L227.354 441.786V429.342L146.479 476.434Z" fill="url(#paint4_linear)"/>
<path d="M146.621 476.433V489.02L65.4631 441.645V429.2L146.621 476.433Z" fill="url(#paint5_linear)"/>
<path d="M65.4631 429.2L146.621 476.434L227.354 429.342L146.196 381.967L65.4631 429.2Z" fill="url(#paint6_linear)"/>
<path d="M146.479 460.171V473.464L221.698 429.624V416.331L146.479 460.171Z" fill="url(#paint7_linear)"/>
<path d="M146.621 460.171V473.464L71.1187 429.483V416.331L146.621 460.171Z" fill="url(#paint8_linear)"/>
<path d="M146.479 450.413V470.211L227.354 422.978V403.18L146.479 450.413Z" fill="url(#paint9_linear)"/>
<path d="M146.621 450.413V470.211L65.4631 422.837V403.18L146.621 450.413Z" fill="url(#paint10_linear)"/>
<path d="M65.4631 403.18L146.621 450.413L227.354 403.18L146.196 355.805L65.4631 403.18Z" fill="url(#paint11_linear)"/>
<path d="M146.479 434.15V447.443L221.698 403.604V390.311L146.479 434.15Z" fill="url(#paint12_linear)"/>
<path d="M146.621 434.15V447.443L71.1187 403.462V390.311L146.621 434.15Z" fill="url(#paint13_linear)"/>
<path d="M146.479 417.038V444.191L227.354 396.957V369.947L146.479 417.038Z" fill="url(#paint14_linear)"/>
<path d="M146.621 417.038V444.19L65.4631 396.816V369.805L146.621 417.038Z" fill="url(#paint15_linear)"/>
<path d="M65.4631 369.805L146.621 417.039L227.354 369.947L146.196 322.572L65.4631 369.805Z" fill="url(#paint16_linear)"/>
<path d="M146.479 400.493V413.786L221.698 369.947V356.654L146.479 400.493Z" fill="url(#paint17_linear)"/>
<path d="M146.621 400.493V413.786L71.1187 369.805V356.512L146.621 400.493Z" fill="url(#paint18_linear)"/>
<path d="M146.479 374.189V410.109L227.354 362.876V326.956L146.479 374.189Z" fill="url(#paint19_linear)"/>
<path d="M146.621 374.189V410.109L65.4631 362.734V326.956L146.621 374.189Z" fill="url(#paint20_linear)"/>
<path d="M65.4631 326.956L146.621 374.189L227.354 326.956L146.196 279.723L65.4631 326.956Z" fill="url(#paint21_linear)"/>
<path d="M90.7715 357.926C90.7715 359.765 89.499 360.472 87.9437 359.623C86.3885 358.633 85.116 356.512 85.116 354.674C85.116 352.835 86.3885 352.128 87.9437 352.977C89.499 353.825 90.7715 356.088 90.7715 357.926Z" fill="#2AF6FF"/>
<path d="M182.25 370.795C182.25 372.634 180.978 374.896 179.423 375.745C177.867 376.735 176.595 375.886 176.595 374.048C176.595 372.209 177.867 369.947 179.423 369.098C180.978 368.25 182.25 368.957 182.25 370.795Z" fill="#2AF6FF"/>
<path d="M208.549 422.13C208.549 423.968 207.277 426.231 205.721 427.079C204.166 428.069 202.894 427.221 202.894 425.382C202.894 423.544 204.166 421.281 205.721 420.433C207.277 419.584 208.549 420.291 208.549 422.13Z" fill="#2AF6FF"/>
<path d="M185.078 501.747L155.387 483.929L155.528 453.948L178.574 405.584V372.492H179.988V406.008V406.149L156.8 454.373V483.222L185.785 500.616L185.078 501.747Z" fill="url(#paint22_linear)"/>
<path d="M198.934 397.947C198.934 399.786 197.662 402.048 196.107 402.897C194.551 403.887 193.279 403.038 193.279 401.2C193.279 399.361 194.551 397.099 196.107 396.25C197.662 395.402 198.934 396.25 198.934 397.947Z" fill="#2AF6FF"/>
<path d="M228.909 501.606L176.595 470.918V462.15L176.736 462.009L195.4 432.877V399.644H196.814V433.301L196.672 433.443L178.009 462.575V470.07L228.909 499.909L238.382 494.252L239.089 495.525L228.909 501.606Z" fill="url(#paint23_linear)"/>
<path d="M51.4655 458.898L51.1827 458.757L5.79675 430.756L6.5037 429.483L51.4655 457.342L71.9669 445.039V415.907L87.5197 390.735V357.643H88.9336V391.159L73.3808 416.331V445.746L51.4655 458.898Z" fill="url(#paint24_linear)"/>
<path d="M6.9279 431.463C5.37262 432.312 2.82761 432.312 1.13094 431.463C-0.424343 430.473 -0.424343 429.059 1.13094 428.069C2.68622 427.221 5.23123 427.221 6.9279 428.069C8.48318 429.059 8.62457 430.473 6.9279 431.463Z" fill="#FFA98C"/>
<path d="M110.284 412.372C110.284 414.21 109.011 414.917 107.456 414.069C105.9 413.079 104.628 410.958 104.628 409.119C104.628 407.281 105.9 406.574 107.456 407.422C109.011 408.271 110.284 410.533 110.284 412.372Z" fill="#2AF6FF"/>
<path d="M61.0798 485.06L43.4061 476.292L43.9717 475.02L60.9384 483.363L98.8307 460.878V442.069L107.031 429.625V412.089H108.445V430.049L100.245 442.494V461.726L99.9618 461.868L61.0798 485.06Z" fill="url(#paint25_linear)"/>
<path d="M44.1132 477.424C42.5579 478.272 40.0129 478.272 38.3162 477.424C36.761 476.434 36.761 475.02 38.3162 474.03C39.8715 473.181 42.4165 473.181 44.1132 474.03C45.6685 475.02 45.6685 476.434 44.1132 477.424Z" fill="#FFA98C"/>
<path d="M127.533 389.038C127.533 390.876 126.26 391.583 124.705 390.735C123.15 389.745 121.877 387.624 121.877 385.785C121.877 383.947 123.15 383.24 124.705 384.088C126.26 385.078 127.533 387.199 127.533 389.038Z" fill="#2AF6FF"/>
<path d="M120.181 442.776C120.181 444.615 118.908 445.322 117.353 444.473C115.798 443.483 114.525 441.362 114.525 439.524C114.525 437.685 115.798 436.978 117.353 437.827C118.908 438.817 120.181 440.938 120.181 442.776Z" fill="#2AF6FF"/>
<path d="M122.443 492.838L121.736 491.565L136.016 483.222V454.373L123.998 422.837V389.604H125.412V422.837L137.43 454.231V483.929L122.443 492.838Z" fill="url(#paint26_linear)"/>
<path d="M124.705 494.252C123.15 495.101 120.605 495.101 118.908 494.252C117.353 493.262 117.353 491.848 118.908 490.858C120.463 490.01 123.008 490.01 124.705 490.858C126.26 491.848 126.26 493.262 124.705 494.252Z" fill="#FFA98C"/>
<path d="M68.8562 501.181L68.1493 499.909L117.211 471.908V442.918H118.625V472.757L118.342 472.898L68.8562 501.181Z" fill="url(#paint27_linear)"/>
<path d="M70.9772 502.596C69.4219 503.444 66.8769 503.444 65.1802 502.596C63.6249 501.606 63.6249 500.192 65.1802 499.202C66.7355 498.353 69.2805 498.353 70.9772 499.202C72.5324 500.192 72.5324 501.606 70.9772 502.596Z" fill="#FFA98C"/>
<path d="M190.168 504.293C188.613 505.141 186.068 505.141 184.371 504.293C182.816 503.303 182.816 501.889 184.371 500.899C185.927 500.05 188.472 500.05 190.168 500.899C191.723 501.889 191.723 503.444 190.168 504.293Z" fill="#FFA98C"/>
<path d="M260.156 460.878C258.601 461.726 256.056 461.726 254.359 460.878C252.804 459.888 252.804 458.474 254.359 457.484C255.914 456.635 258.459 456.635 260.156 457.484C261.711 458.474 261.711 459.888 260.156 460.878Z" fill="#FFA98C"/>
<path d="M242.907 495.525C241.351 496.374 238.806 496.374 237.11 495.525C235.554 494.535 235.554 493.121 237.11 492.131C238.665 491.283 241.21 491.283 242.907 492.131C244.462 493.121 244.462 494.535 242.907 495.525Z" fill="#FFA98C"/>
<path d="M215.76 349.583C215.76 351.421 214.487 353.684 212.932 354.532C211.377 355.522 210.104 354.674 210.104 352.835C210.104 350.997 211.377 348.734 212.932 347.886C214.487 347.037 215.76 347.744 215.76 349.583Z" fill="#2AF6FF"/>
<path d="M230.323 452.251L219.719 446.029V399.22L212.225 384.796V351.28H213.639V384.371L221.133 398.937V445.181L230.323 450.554L277.405 421.705L278.112 422.837L230.323 452.251Z" fill="url(#paint28_linear)"/>
<path d="M281.789 422.978C280.233 423.827 277.688 423.827 275.992 422.978C274.436 421.988 274.436 420.574 275.992 419.584C277.547 418.736 280.092 418.736 281.789 419.584C283.485 420.574 283.485 421.988 281.789 422.978Z" fill="#FFA98C"/>
<path d="M256.904 460.171L256.197 458.898L234.989 471.06L206.145 454.373V425.382H204.732V455.08L234.706 472.474H235.413L256.904 460.171Z" fill="url(#paint29_linear)"/>
<path d="M166.415 338.552H165.001V329.784L146.479 319.32V173.094L123.716 138.73V105.639H125.13V138.306L147.893 172.67V318.471L166.415 328.936V338.552Z" fill="url(#paint30_linear)"/>
<path d="M187.199 322.996H185.785V315.925L168.818 306.026L150.862 316.632V189.64L151.003 189.499L189.744 137.033L190.875 137.881L152.276 190.064V314.228L168.818 304.471L187.199 315.077V322.996Z" fill="url(#paint31_linear)"/>
<path d="M109.435 310.693H108.021V284.814L137.289 301.501V239.843L120.605 204.772L72.6739 182.852L72.5325 182.711L45.8099 151.74L46.7997 150.892L73.5222 181.721L121.595 203.64L138.703 239.702V303.905L109.435 287.218V310.693Z" fill="url(#paint32_linear)"/>
<path d="M125.695 243.237L115.091 220.61L55.5659 193.317L56.1315 192.044L116.222 219.479L126.967 242.671L125.695 243.237Z" fill="url(#paint33_linear)"/>
<path d="M130.219 329.784H128.805V318.612L141.955 311.542V213.822L130.926 191.196L107.738 182.286L89.6406 161.215L90.7717 160.225L108.587 181.014L131.916 190.064L143.368 213.54V312.39L130.219 319.461V329.784Z" fill="url(#paint34_linear)"/>
<path d="M138.703 184.832L125.836 158.811L118.06 155.7L88.3683 120.77L89.358 119.78L118.908 154.427L126.968 157.68L139.975 184.125L138.703 184.832Z" fill="url(#paint35_linear)"/>
<path d="M147.893 140.851C149.767 140.851 151.286 139.332 151.286 137.457C151.286 135.583 149.767 134.063 147.893 134.063C146.019 134.063 144.5 135.583 144.5 137.457C144.5 139.332 146.019 140.851 147.893 140.851Z" fill="#2AF6FF"/>
<path d="M215.053 250.874C206.711 250.874 199.924 244.086 199.924 235.884C199.924 227.54 206.711 220.893 215.053 220.893C223.395 220.893 230.04 227.681 230.04 235.884C230.182 244.086 223.395 250.874 215.053 250.874ZM215.053 222.166C207.559 222.166 201.338 228.247 201.338 235.742C201.338 243.237 207.418 249.318 215.053 249.318C222.546 249.318 228.626 243.237 228.626 235.742C228.768 228.247 222.546 222.166 215.053 222.166Z" fill="url(#paint36_linear)"/>
<path d="M79.3191 242.671C70.9772 242.671 64.1905 235.883 64.1905 227.681C64.1905 219.479 70.9772 212.691 79.3191 212.691C87.6611 212.691 94.3064 219.479 94.3064 227.681C94.3064 235.883 87.6611 242.671 79.3191 242.671ZM79.3191 213.964C71.8255 213.964 65.6044 220.045 65.6044 227.54C65.6044 235.035 71.6841 241.116 79.3191 241.116C86.8128 241.116 92.8925 235.035 92.8925 227.54C92.8925 220.045 86.8128 213.964 79.3191 213.964Z" fill="url(#paint37_linear)"/>
<path d="M37.8922 155.841C29.5502 155.841 22.7635 149.053 22.7635 140.851C22.7635 132.649 29.5502 125.861 37.8922 125.861C46.2342 125.861 52.8795 132.649 52.8795 140.851C52.8795 149.053 46.2342 155.841 37.8922 155.841ZM37.8922 127.134C30.3986 127.134 24.1774 133.215 24.1774 140.71C24.1774 148.205 30.2572 154.286 37.8922 154.286C45.3858 154.286 51.4656 148.205 51.4656 140.71C51.4656 133.215 45.3858 127.134 37.8922 127.134Z" fill="url(#paint38_linear)"/>
<path d="M82.7125 163.761C74.3705 163.761 67.7252 156.973 67.7252 148.629C67.7252 140.286 74.5119 133.639 82.7125 133.639C91.0544 133.639 97.8411 140.427 97.8411 148.629C97.8411 156.973 91.0544 163.761 82.7125 163.761ZM82.7125 135.053C75.2188 135.053 69.1391 141.134 69.1391 148.629C69.1391 156.124 75.2188 162.347 82.7125 162.347C90.2061 162.347 96.4272 156.266 96.4272 148.629C96.4272 141.276 90.2061 135.053 82.7125 135.053Z" fill="url(#paint39_linear)"/>
<path d="M41.7097 202.792C33.3677 202.792 26.7224 196.004 26.7224 187.802C26.7224 179.6 33.5091 172.812 41.7097 172.812C50.0516 172.812 56.6969 179.6 56.6969 187.802C56.6969 196.004 50.0516 202.792 41.7097 202.792ZM41.7097 174.084C34.216 174.084 28.1363 180.165 28.1363 187.66C28.1363 195.156 34.216 201.236 41.7097 201.236C49.2033 201.236 55.283 195.156 55.283 187.66C55.4244 180.165 49.2033 174.084 41.7097 174.084Z" fill="url(#paint40_linear)"/>
<path d="M79.6019 123.599C71.2599 123.599 64.6146 116.811 64.6146 108.608C64.6146 100.406 71.4013 93.6182 79.6019 93.6182C87.9438 93.6182 94.5891 100.406 94.5891 108.608C94.5891 116.811 87.9438 123.599 79.6019 123.599ZM79.6019 94.8909C72.1083 94.8909 66.0285 100.972 66.0285 108.467C66.0285 115.962 72.1083 122.043 79.6019 122.043C87.0955 122.043 93.1753 115.962 93.1753 108.467C93.1753 100.972 87.0955 94.8909 79.6019 94.8909Z" fill="url(#paint41_linear)"/>
<path d="M124.422 105.497C116.08 105.497 109.435 98.7089 109.435 90.3653C109.435 82.0217 116.222 75.3751 124.422 75.3751C132.764 75.3751 139.551 82.1631 139.551 90.3653C139.551 98.7089 132.764 105.497 124.422 105.497ZM124.422 76.7893C116.929 76.7893 110.849 82.8702 110.849 90.3653C110.849 97.8604 116.929 104.083 124.422 104.083C131.916 104.083 138.137 98.0018 138.137 90.3653C138.137 83.0116 131.916 76.7893 124.422 76.7893Z" fill="url(#paint42_linear)"/>
<path d="M147.893 76.648C139.551 76.648 132.906 69.86 132.906 61.6578C132.906 53.4556 139.693 46.6676 147.893 46.6676C156.235 46.6676 162.88 53.4556 162.88 61.6578C162.88 69.86 156.094 76.648 147.893 76.648ZM147.893 47.9404C140.4 47.9404 134.32 54.0213 134.32 61.5164C134.32 69.0115 140.4 75.0924 147.893 75.0924C155.387 75.0924 161.467 69.0115 161.467 61.5164C161.467 54.0213 155.387 47.9404 147.893 47.9404Z" fill="url(#paint43_linear)"/>
<path d="M185.22 95.8807C176.878 95.8807 170.232 89.0927 170.232 80.8905C170.232 72.5469 177.019 65.7589 185.22 65.7589C193.42 65.7589 200.207 72.5469 200.207 80.8905C200.348 89.0927 193.562 95.8807 185.22 95.8807ZM185.22 67.1731C177.726 67.1731 171.646 73.254 171.646 80.8905C171.646 88.3856 177.726 94.4666 185.22 94.4666C192.713 94.4666 198.793 88.3856 198.793 80.8905C198.934 73.254 192.855 67.1731 185.22 67.1731Z" fill="url(#paint44_linear)"/>
<path d="M197.238 139.154C188.896 139.154 182.25 132.366 182.25 124.164C182.25 115.82 189.037 109.032 197.238 109.032C205.58 109.032 212.225 115.82 212.225 124.164C212.366 132.508 205.58 139.154 197.238 139.154ZM197.238 110.447C189.744 110.447 183.664 116.528 183.664 124.164C183.664 131.659 189.744 137.74 197.238 137.74C204.731 137.74 210.811 131.659 210.811 124.164C210.953 116.669 204.731 110.447 197.238 110.447Z" fill="url(#paint45_linear)"/>
<path d="M230.888 107.053C222.546 107.053 215.901 100.265 215.901 92.0625C215.901 83.8603 222.688 77.0723 230.888 77.0723C239.23 77.0723 246.017 83.8603 246.017 92.0625C246.017 100.265 239.23 107.053 230.888 107.053ZM230.888 78.345C223.395 78.345 217.315 84.4259 217.315 91.921C217.315 99.4161 223.395 105.497 230.888 105.497C238.382 105.497 244.603 99.4161 244.603 91.921C244.603 84.4259 238.523 78.345 230.888 78.345Z" fill="url(#paint46_linear)"/>
<path d="M247.855 145.66C239.513 145.66 232.868 138.872 232.868 130.528C232.868 122.184 239.654 115.538 247.855 115.538C256.197 115.538 262.984 122.326 262.984 130.528C262.984 138.872 256.197 145.66 247.855 145.66ZM247.855 116.952C240.361 116.952 234.282 123.033 234.282 130.528C234.282 138.023 240.361 144.245 247.855 144.245C255.349 144.245 261.57 138.164 261.57 130.528C261.57 123.033 255.49 116.952 247.855 116.952Z" fill="url(#paint47_linear)"/>
<path d="M255.207 198.832C246.866 198.832 240.079 192.044 240.079 183.701C240.079 175.357 246.866 168.71 255.207 168.71C263.549 168.71 270.195 175.498 270.195 183.701C270.336 192.044 263.549 198.832 255.207 198.832ZM255.207 170.124C247.714 170.124 241.493 176.205 241.493 183.701C241.493 191.196 247.572 197.418 255.207 197.418C262.701 197.418 268.781 191.337 268.781 183.701C268.922 176.205 262.843 170.124 255.207 170.124Z" fill="url(#paint48_linear)"/>
<path d="M168.536 339.966C166.981 340.815 164.436 340.815 162.739 339.966C161.184 338.976 161.184 337.562 162.739 336.572C164.294 335.724 166.839 335.724 168.536 336.572C170.091 337.562 170.091 339.118 168.536 339.966Z" fill="#2AF6FF"/>
<path d="M189.461 325.118C187.906 325.966 185.361 325.966 183.664 325.118C182.109 324.128 182.109 322.713 183.664 321.724C185.22 320.875 187.765 320.875 189.461 321.724C191.017 322.713 191.017 324.269 189.461 325.118Z" fill="#2AF6FF"/>
<path d="M155.245 301.077V235.176L155.387 235.035L192.714 185.539H192.855L239.513 162.347L244.321 144.387L245.593 144.811L240.644 163.337L193.562 186.67L156.659 235.601V298.673L172.353 289.198V299.804H170.94V291.743L155.245 301.077Z" fill="url(#paint49_linear)"/>
<path d="M165.708 261.339L165.143 260.066L201.621 241.823L202.187 243.096L165.708 261.339Z" fill="url(#paint50_linear)"/>
<path d="M174.333 301.501C172.778 302.35 170.233 302.35 168.536 301.501C166.981 300.511 166.981 299.097 168.536 298.107C170.091 297.259 172.636 297.259 174.333 298.107C176.03 299.097 176.03 300.653 174.333 301.501Z" fill="#2AF6FF"/>
<path d="M111.697 312.531C110.142 313.38 107.597 313.38 105.9 312.531C104.345 311.542 104.345 310.127 105.9 309.137C107.456 308.289 110.001 308.289 111.697 309.137C113.252 310.127 113.252 311.683 111.697 312.531Z" fill="#2AF6FF"/>
<path d="M132.481 332.047C130.926 332.896 128.381 332.896 126.685 332.047C125.129 331.057 125.129 329.643 126.685 328.653C128.24 327.805 130.785 327.805 132.481 328.653C134.037 329.643 134.037 331.057 132.481 332.047Z" fill="#2AF6FF"/>
<path d="M129.371 347.461H127.957V340.673L142.238 332.188V322.148H143.651V333.037L129.371 341.38V347.461Z" fill="#2AF6FF"/>
<path d="M131.633 349.724C130.078 350.573 127.533 350.573 125.836 349.724C124.281 348.734 124.281 347.32 125.836 346.33C127.392 345.482 129.937 345.482 131.633 346.33C133.189 347.32 133.189 348.734 131.633 349.724Z" fill="#2AF6FF"/>
<path d="M145.913 326.673C145.913 328.512 144.641 329.219 143.086 328.37C141.53 327.38 140.258 325.259 140.258 323.421C140.258 321.582 141.53 320.875 143.086 321.724C144.641 322.714 145.913 324.835 145.913 326.673Z" fill="#2AF6FF"/>
<path d="M189.461 341.946H188.047V336.007L165.708 323.138V312.249H167.122V322.289L189.461 335.158V341.946Z" fill="#2AF6FF"/>
<path d="M185.785 344.209C187.34 345.057 189.885 345.057 191.582 344.209C193.137 343.219 193.137 341.805 191.582 340.815C190.027 339.966 187.482 339.966 185.785 340.815C184.23 341.805 184.23 343.219 185.785 344.209Z" fill="#2AF6FF"/>
<path d="M163.587 316.774C163.587 318.612 164.86 319.32 166.415 318.471C167.97 317.481 169.243 315.36 169.243 313.521C169.243 311.683 167.97 310.976 166.415 311.824C164.86 312.814 163.587 314.936 163.587 316.774Z" fill="#2AF6FF"/>
<path d="M101.659 340.391H100.245V329.501L125.978 314.653V306.875H127.391V315.501L101.659 330.35V340.391Z" fill="#2AF6FF"/>
<path d="M103.78 342.653C102.224 343.502 99.6792 343.502 97.9826 342.653C96.2859 341.805 96.4273 340.249 97.9826 339.259C99.5379 338.411 102.083 338.411 103.78 339.259C105.335 340.108 105.335 341.664 103.78 342.653Z" fill="#2AF6FF"/>
<path d="M129.512 306.875C129.512 308.713 128.24 309.42 126.685 308.572C125.129 307.582 123.857 305.461 123.857 303.622C123.857 301.784 125.129 301.077 126.685 301.925C128.24 302.774 129.512 305.036 129.512 306.875Z" fill="#2AF6FF"/>
<path d="M129.512 285.945C129.512 287.784 128.24 288.491 126.685 287.642C125.129 286.652 123.857 284.531 123.857 282.693C123.857 280.854 125.129 280.147 126.685 280.996C128.24 281.844 129.512 284.107 129.512 285.945Z" fill="#2AF6FF"/>
<path d="M129.512 245.217C129.512 247.055 128.24 247.762 126.685 246.914C125.129 245.924 123.857 243.803 123.857 241.964C123.857 240.126 125.129 239.419 126.685 240.267C128.24 241.116 129.512 243.379 129.512 245.217Z" fill="#2AF6FF"/>
<path d="M141.389 184.549C141.389 186.388 140.117 187.095 138.561 186.246C137.006 185.256 135.734 183.135 135.734 181.297C135.734 179.458 137.006 178.751 138.561 179.6C140.117 180.448 141.389 182.711 141.389 184.549Z" fill="#2AF6FF"/>
<path d="M167.405 245.641C167.405 247.48 166.132 249.742 164.577 250.591C163.022 251.581 161.749 250.732 161.749 248.894C161.749 247.055 163.022 244.793 164.577 243.944C166.132 243.096 167.405 243.803 167.405 245.641Z" fill="#2AF6FF"/>
<path d="M167.122 260.207C167.122 262.046 165.849 264.308 164.294 265.157C162.739 266.147 161.466 265.298 161.466 263.46C161.466 261.621 162.739 259.359 164.294 258.51C165.849 257.52 167.122 258.369 167.122 260.207Z" fill="#2AF6FF"/>
<path d="M167.032 198.239C168.175 196.284 168.172 194.156 167.026 193.486C165.88 192.815 164.025 193.857 162.882 195.813C161.739 197.768 161.741 199.896 162.887 200.566C164.033 201.237 165.889 200.195 167.032 198.239Z" fill="#2AF6FF"/>
<path d="M154.538 152.872C154.538 154.71 153.266 156.973 151.711 157.821C150.155 158.811 148.883 157.963 148.883 156.124C148.883 154.286 150.155 152.023 151.711 151.175C153.266 150.185 154.538 151.033 154.538 152.872Z" fill="#2AF6FF"/>
<path d="M165.001 197.842L163.87 196.994L184.23 169.559L184.371 169.418L213.922 154.427L227.212 106.063L228.626 106.487L215.053 155.417L214.77 155.559L185.22 170.69L165.001 197.842Z" fill="url(#paint51_linear)"/>
<path d="M151.286 155.7L150.155 154.852L171.646 126.992L179.847 93.7594L181.261 94.0422L172.919 127.558L172.777 127.699L151.286 155.7Z" fill="url(#paint52_linear)"/>
<path d="M163.729 249.46L162.598 248.611L185.644 217.924L185.785 217.782L242.341 189.499L243.048 190.772L186.634 219.055L163.729 249.46Z" fill="url(#paint53_linear)"/>
<path d="M127.675 283.399H126.261V261.621L118.767 246.065L92.61 234.328L93.1755 233.055L119.757 245.075L127.675 261.338V283.399Z" fill="url(#paint54_linear)"/>
<path d="M148.6 76.0823H147.186V135.053H148.6V76.0823Z" fill="url(#paint55_linear)"/>
<path d="M216.75 230.085C215.477 230.085 214.487 230.368 213.78 230.934C213.356 231.217 212.791 231.782 212.508 232.348C212.084 233.055 211.801 233.621 211.801 234.186H219.153L218.871 235.601H211.66C211.66 235.742 211.66 235.883 211.66 236.025C211.66 236.59 211.66 236.873 211.66 237.015H218.588L218.305 238.429H211.942C212.225 240.126 212.932 241.257 214.063 241.964C214.912 242.389 215.76 242.671 216.75 242.671C218.022 242.671 219.153 242.389 219.86 241.681V243.944C219.012 244.368 218.022 244.51 216.891 244.51C213.639 244.51 211.518 243.096 210.387 240.409C210.104 239.843 209.963 239.136 209.822 238.429H207.842L208.125 237.015H209.256C209.256 236.732 209.256 236.449 209.256 236.025C209.256 235.883 209.256 235.742 209.256 235.601H207.842L208.125 234.186H209.397C209.822 231.782 210.953 230.227 212.932 229.095C214.063 228.53 215.336 228.105 216.75 228.105C218.022 228.105 219.153 228.388 220.143 228.954L219.719 230.934C218.87 230.51 217.881 230.085 216.75 230.085Z" fill="url(#paint56_linear)"/>
<path d="M254.076 173.801V175.923H256.197V173.801H257.894V176.064C258.318 176.205 258.742 176.205 259.166 176.488C259.873 176.771 260.439 177.337 260.863 177.902C261.287 178.61 261.429 179.317 261.429 180.024C261.429 180.731 261.287 181.296 260.863 181.862C260.439 182.428 260.015 182.994 259.166 183.276C260.156 183.559 260.863 183.983 261.429 184.691C261.994 185.398 262.136 186.105 262.136 187.095C262.136 187.802 261.994 188.509 261.712 189.216C261.429 189.782 261.005 190.347 260.58 190.63C260.156 190.913 259.591 191.196 258.884 191.479C258.601 191.62 258.318 191.62 257.894 191.62V193.883H256.197V191.761H254.076V193.883H252.38V191.761H250.259V176.064H252.38V173.943H254.076V173.801ZM252.38 182.569H255.773C256.763 182.569 257.328 182.569 257.753 182.428C258.318 182.286 258.742 182.004 258.884 181.579C259.166 181.155 259.308 180.731 259.308 180.165C259.308 179.599 259.166 179.175 258.884 178.751C258.601 178.327 258.318 178.044 257.753 177.902C257.328 177.761 256.48 177.62 255.349 177.62H252.238V182.569H252.38ZM252.38 189.782H256.339C257.046 189.782 257.47 189.782 257.753 189.64C258.177 189.499 258.601 189.357 259.025 189.216C259.308 189.074 259.591 188.792 259.873 188.367C260.015 187.943 260.156 187.519 260.156 187.095C260.156 186.529 260.015 185.963 259.732 185.539C259.449 185.115 259.025 184.832 258.46 184.691C257.894 184.549 257.187 184.408 256.197 184.408H252.521V189.782H252.38Z" fill="url(#paint57_linear)"/>
<path d="M246.583 128.972H249.976V130.528H246.865C247.007 130.811 247.007 131.093 247.007 131.518C247.007 132.083 246.865 132.79 246.583 133.498C246.3 134.205 245.734 134.912 245.169 135.619C245.734 135.477 246.3 135.336 246.724 135.336C247.29 135.336 247.997 135.477 248.703 135.619C249.976 135.902 250.824 136.043 251.249 136.043C251.814 136.043 252.521 135.902 253.369 135.477L253.935 137.316C253.228 137.599 252.804 137.74 252.38 137.881C251.955 138.023 251.673 138.023 251.249 138.023C250.966 138.023 250.683 138.023 250.4 137.881C250.259 137.881 249.693 137.74 248.986 137.457C248.279 137.174 247.714 137.033 247.572 137.033C247.29 137.033 246.865 136.892 246.583 136.892C246.017 136.892 245.452 137.033 244.886 137.174C244.32 137.316 243.755 137.599 243.331 137.881L242.624 136.043C243.331 135.619 243.896 135.053 244.32 134.346C244.745 133.639 245.027 132.79 245.027 131.801C245.027 131.376 245.027 130.952 244.886 130.528H242.765V128.972H244.462C244.179 128.124 244.038 127.558 244.038 127.275C244.038 126.851 243.896 126.568 243.896 126.144C243.896 124.588 244.462 123.457 245.593 122.608C246.441 121.901 247.572 121.619 248.845 121.619C250.117 121.619 251.249 122.043 252.097 122.75C252.945 123.457 253.511 124.447 253.652 125.72L251.673 126.002C251.531 125.154 251.249 124.447 250.683 124.023C250.117 123.598 249.552 123.316 248.703 123.316C247.855 123.316 247.29 123.598 246.724 124.023C246.158 124.588 245.876 125.154 245.876 125.861C246.017 126.568 246.158 127.699 246.583 128.972Z" fill="url(#paint58_linear)"/>
<path d="M196.672 134.063V132.083C195.683 131.942 194.976 131.801 194.269 131.376C193.703 131.094 193.138 130.528 192.713 129.821C192.289 129.114 192.007 128.265 192.007 127.275L193.986 126.851C194.127 127.841 194.41 128.689 194.834 129.114C195.4 129.821 195.965 130.245 196.814 130.245V124.023C195.965 123.881 195.258 123.598 194.41 123.033C193.845 122.75 193.279 122.184 192.996 121.619C192.713 121.053 192.431 120.346 192.431 119.497C192.431 118.083 192.855 116.952 193.845 116.103C194.552 115.538 195.4 115.113 196.814 115.113V114.548H197.945V115.538C199.076 115.679 199.924 115.962 200.631 116.528C201.48 117.235 202.045 118.225 202.187 119.356L200.207 119.639C200.066 118.932 199.924 118.366 199.5 117.942C199.076 117.517 198.652 117.235 197.945 117.093V122.608C198.935 122.891 199.5 123.033 199.924 123.174C200.49 123.457 201.055 123.74 201.338 124.164C201.762 124.588 202.045 125.013 202.187 125.578C202.328 126.144 202.469 126.71 202.469 127.275C202.469 128.548 202.045 129.679 201.197 130.669C200.348 131.518 199.217 132.083 197.945 132.083V134.063H196.672ZM196.672 117.093C195.965 117.235 195.258 117.517 194.834 117.942C194.41 118.366 194.127 119.073 194.127 119.639C194.127 120.346 194.269 120.911 194.693 121.336C195.117 121.76 195.683 122.184 196.531 122.467V117.093H196.672ZM197.803 130.528C198.51 130.386 199.217 130.104 199.642 129.538C200.066 128.972 200.348 128.265 200.348 127.417C200.348 126.71 200.207 126.144 199.783 125.72C199.5 125.295 198.793 124.871 197.662 124.588V130.528H197.803Z" fill="url(#paint59_linear)"/>
<path d="M183.382 88.527V84.9916H178.857V83.436H183.382V82.0218H178.857V80.4662H182.534L178.15 72.8297H180.271L183.382 78.345C183.665 78.9106 183.947 79.4763 184.23 80.042C184.372 79.6177 184.654 79.0521 185.079 78.345L188.048 72.8297H190.31L185.927 80.4662H189.603V82.0218H185.22V83.5774H189.603V85.133H185.22V88.6684H183.382V88.527Z" fill="url(#paint60_linear)"/>
<path d="M38.882 134.77C37.6095 134.77 36.6198 135.053 35.9128 135.619C35.4886 135.902 34.9231 136.467 34.6403 137.033C34.2161 137.74 33.9334 138.306 33.9334 138.871H41.2856L41.0028 140.285H33.792C33.792 140.427 33.792 140.568 33.792 140.71C33.792 141.275 33.792 141.558 33.792 141.7H40.72L40.4373 143.114H33.9334C34.2161 144.811 34.9231 145.942 36.0542 146.649C36.9025 147.074 37.7509 147.356 38.7406 147.356C40.0131 147.356 41.1442 147.074 41.8512 146.366V148.629C41.0028 149.053 40.0131 149.195 38.882 149.195C35.63 149.195 33.5092 147.781 32.3781 145.094C32.0953 144.528 31.9539 143.821 31.8125 143.114H30.1158L30.3986 141.7H31.5297C31.5297 141.417 31.5297 141.134 31.5297 140.71C31.5297 140.568 31.5297 140.427 31.5297 140.285H30.1158L30.3986 138.871H31.6711C32.0953 136.467 33.2264 134.912 35.2059 133.78C36.337 133.215 37.6095 132.79 39.0234 132.79C40.2959 132.79 41.427 133.073 42.4167 133.639L41.9925 135.619C41.0028 135.194 40.0131 134.77 38.882 134.77Z" fill="url(#paint61_linear)"/>
<path d="M146.904 51.3342V53.4555H149.024V51.3342H150.721V53.5969C151.145 53.7383 151.569 53.7383 151.994 54.0212C152.7 54.304 153.266 54.8697 153.69 55.4353C154.114 56.1424 154.256 56.8495 154.256 57.5566C154.256 58.2637 154.114 58.8293 153.69 59.395C153.266 59.9607 152.842 60.5263 151.994 60.8092C152.983 61.092 153.69 61.5163 154.256 62.2233C154.821 62.9304 154.963 63.6375 154.963 64.6274C154.963 65.3345 154.821 66.0416 154.539 66.7487C154.256 67.3144 153.832 67.88 153.407 68.1629C152.983 68.4457 152.418 68.7285 151.711 69.0114C151.428 69.1528 151.145 69.1528 150.721 69.1528V71.4154H149.024V69.2942H146.904V71.4154H145.207V69.2942H143.086V53.4555H145.207V51.3342H146.904ZM145.207 60.1021H148.6C149.59 60.1021 150.155 60.1021 150.58 59.9607C151.145 59.8193 151.569 59.5364 151.711 59.1122C151.994 58.6879 152.135 58.2637 152.135 57.698C152.135 57.1323 151.994 56.7081 151.711 56.2838C151.428 55.8596 151.145 55.5767 150.58 55.4353C150.155 55.2939 149.307 55.1525 148.176 55.1525H145.065V60.1021H145.207ZM145.207 67.4558H149.166C149.873 67.4558 150.297 67.4558 150.58 67.3143C151.004 67.1729 151.428 67.0315 151.852 66.8901C152.135 66.7487 152.418 66.4658 152.7 66.0416C152.842 65.6173 152.983 65.1931 152.983 64.7688C152.983 64.2032 152.842 63.6375 152.559 63.2133C152.276 62.789 151.852 62.5062 151.287 62.3648C150.721 62.2233 150.014 62.0819 149.024 62.0819H145.348V67.4558H145.207Z" fill="url(#paint62_linear)"/>
<path d="M78.4711 107.477H81.8645V109.032H78.7539C78.8953 109.315 78.8953 109.598 78.8953 110.022C78.8953 110.588 78.7539 111.295 78.4711 112.002C78.1883 112.709 77.6228 113.416 77.0572 114.123C77.6228 113.982 78.1883 113.84 78.6125 113.84C79.1781 113.84 79.885 113.982 80.5919 114.123C81.8644 114.406 82.7128 114.548 83.137 114.548C83.7025 114.548 84.4095 114.406 85.2578 113.982L85.8233 115.82C85.1164 116.103 84.6922 116.245 84.2681 116.386C83.8439 116.527 83.5611 116.527 83.137 116.527C82.8542 116.527 82.5714 116.527 82.2886 116.386C82.1472 116.386 81.5817 116.245 80.8747 115.962C80.1678 115.679 79.6022 115.537 79.4608 115.537C79.1781 115.537 78.7539 115.396 78.4711 115.396C77.9055 115.396 77.34 115.537 76.7744 115.679C76.2089 115.82 75.6433 116.103 75.2192 116.386L74.5122 114.548C75.2192 114.123 75.7847 113.558 76.2089 112.851C76.633 112.143 76.9158 111.295 76.9158 110.305C76.9158 109.881 76.9158 109.457 76.7744 109.032H74.6536V107.477H76.3503C76.0675 106.628 75.9261 106.063 75.9261 105.78C75.9261 105.355 75.7847 105.073 75.7847 104.648C75.7847 103.093 76.3503 101.961 77.4814 101.113C78.3297 100.406 79.4608 100.123 80.7333 100.123C82.0058 100.123 83.137 100.547 83.9853 101.254C84.8336 101.961 85.3992 102.951 85.5406 104.224L83.5611 104.507C83.4197 103.658 83.137 102.951 82.5714 102.527C82.0058 101.961 81.4403 101.82 80.5919 101.82C79.7436 101.82 79.1781 102.103 78.6125 102.527C78.0469 103.093 77.7642 103.658 77.7642 104.366C77.9055 105.214 78.0469 106.204 78.4711 107.477Z" fill="url(#paint63_linear)"/>
<path d="M41.2855 197.984V196.004C40.2958 195.862 39.5888 195.721 38.8819 195.297C38.3163 195.014 37.7507 194.448 37.3266 193.741C36.9024 193.034 36.6196 192.186 36.6196 191.196L38.5991 190.771C38.7405 191.761 39.0232 192.61 39.4474 193.034C40.013 193.741 40.5785 194.165 41.4269 194.165V187.943C40.5785 187.802 39.8716 187.519 39.0232 186.953C38.4577 186.67 37.8921 186.105 37.6094 185.539C37.3266 184.973 37.0438 184.266 37.0438 183.418C37.0438 182.003 37.468 180.872 38.4577 180.024C39.1646 179.458 40.013 179.034 41.4269 179.034V178.044H42.4166V179.034C43.5477 179.175 44.396 179.458 45.103 180.024C45.9513 180.731 46.5169 181.721 46.6583 182.852L44.6788 183.135C44.5374 182.428 44.396 181.862 43.9719 181.438C43.5477 181.014 43.1235 180.731 42.4166 180.589V186.105C43.4063 186.387 43.9719 186.529 44.396 186.67C44.9616 186.953 45.5272 187.236 45.8099 187.66C46.2341 188.084 46.5169 188.509 46.6583 189.074C46.7997 189.64 46.941 190.206 46.941 190.771C46.941 192.044 46.5169 193.175 45.6685 194.165C44.8202 195.014 43.6891 195.58 42.4166 195.58V197.559H41.2855V197.984ZM41.2855 181.014C40.5785 181.155 39.8716 181.438 39.4474 181.862C39.0232 182.286 38.7405 182.993 38.7405 183.559C38.7405 184.266 38.8819 184.832 39.306 185.256C39.7302 185.68 40.2957 186.105 41.1441 186.387V181.014H41.2855ZM42.4166 194.448C43.1235 194.307 43.8305 194.024 44.2546 193.458C44.6788 192.893 44.9616 192.186 44.9616 191.337C44.9616 190.63 44.8202 190.064 44.396 189.64C44.1133 189.216 43.4063 188.792 42.2752 188.509V194.448H42.4166Z" fill="url(#paint64_linear)"/>
<path d="M222.971 99.2746V97.719L230.182 89.3754C229.333 89.3754 228.627 89.3754 228.061 89.3754H223.395V87.8198H232.727V89.0926L226.506 96.3048L225.375 97.5776C226.223 97.5776 227.071 97.4362 227.778 97.4362H233.01V99.1332H222.971V99.2746Z" fill="url(#paint65_linear)"/>
<path d="M234.989 93.0523L233.575 94.1836V92.4866L234.989 91.3553V83.4359H236.968V89.6583L238.382 88.3855V90.0825L236.968 91.3553V99.1332H234.989V93.0523Z" fill="url(#paint66_linear)"/>
<path d="M123.009 91.4967V93.0523H129.371V94.4665H123.009V98.4262H120.888V94.4665H119.757V93.0523H120.888V91.4967H119.757V89.6583H120.888V82.7289H125.837C127.25 82.7289 128.382 82.8703 129.088 83.1531C129.795 83.436 130.361 84.0016 130.785 84.7087C131.209 85.4158 131.492 86.2643 131.492 87.1128C131.492 87.9613 131.351 88.6684 131.068 89.2341C130.785 89.7997 130.361 90.224 129.795 90.6482C129.23 90.9311 128.664 91.2139 127.957 91.3553C127.25 91.4967 126.543 91.4967 125.837 91.4967H123.009ZM125.695 89.6583C126.119 89.6583 126.685 89.6583 127.109 89.5169C127.533 89.3755 127.957 89.2341 128.24 89.0926C128.523 88.9512 128.806 88.6684 129.088 88.2441C129.23 87.9613 129.371 87.3956 129.371 86.9714C129.371 86.5471 129.23 86.1229 129.088 85.8401C128.947 85.5572 128.664 85.2744 128.382 84.9915C128.099 84.8501 127.675 84.7087 127.25 84.5673C126.826 84.4259 126.402 84.4259 125.978 84.4259H123.009V89.6583H125.695Z" fill="url(#paint67_linear)"/>
<path d="M88.9338 152.023H79.7435C79.7435 152.306 79.6021 152.589 79.6021 152.872C79.6021 153.72 79.8849 154.427 80.309 154.993C80.8746 155.7 81.7229 155.983 82.7126 155.983C83.7024 155.983 84.5507 155.7 85.1163 154.993C85.5404 154.427 85.9646 153.862 85.9646 153.013L87.944 153.437C87.8026 154.71 87.2371 155.7 86.3888 156.549C85.399 157.256 84.2679 157.68 82.7126 157.68C82.0057 157.68 81.2987 157.538 80.4504 157.256C79.7435 156.973 79.1779 156.69 78.7537 156.124C77.9054 155.276 77.4812 154.144 77.4812 152.73C77.4812 152.447 77.4812 152.306 77.4812 152.023H76.7743V150.185H78.1882C78.6124 149.619 79.3193 149.053 80.1676 148.629C80.309 148.488 81.016 148.346 82.4299 147.922H76.9157V146.084H85.5404C85.6818 145.801 85.6818 145.377 85.6818 144.952C85.6818 144.245 85.399 143.68 84.9749 143.255C84.4093 142.69 83.7024 142.407 82.7126 142.407C81.7229 142.407 81.016 142.69 80.5918 143.114C80.1676 143.538 80.0262 144.104 79.8849 144.811L77.9054 144.528C78.0468 143.255 78.6124 142.407 79.4607 141.7C80.309 140.993 81.2987 140.71 82.5712 140.71C84.1265 140.71 85.399 140.993 86.2474 141.7C87.2371 142.548 87.6613 143.68 87.6613 145.094C87.6613 145.377 87.6613 145.659 87.5199 146.084H88.7924V147.922H86.6715C86.3888 148.205 86.106 148.488 85.6818 148.629C85.1163 148.912 83.9851 149.336 82.1471 149.761C82.0057 149.761 81.7229 149.902 81.5815 149.902H88.9338V152.023Z" fill="url(#paint68_linear)"/>
<path d="M72.5326 235.601V219.903H74.512V228.954L79.0365 224.287H81.5815L77.1984 228.53L82.0057 235.742H79.6021L75.7845 229.944L74.3707 231.217V235.742H72.5326V235.601Z" fill="url(#paint69_linear)"/>
<path d="M83.5609 235.601V224.146H85.2576V225.843C85.6818 224.994 86.1059 224.429 86.5301 224.287C86.9543 224.004 87.3784 223.863 87.8026 223.863C88.5095 223.863 89.0751 224.004 89.782 224.429L89.0751 226.267C88.6509 225.984 88.0854 225.843 87.6612 225.843C87.237 225.843 86.8129 225.984 86.5301 226.267C86.2473 226.55 85.9645 226.833 85.8231 227.257C85.5404 227.964 85.5404 228.671 85.5404 229.52V235.459H83.5609V235.601Z" fill="url(#paint70_linear)"/>
</g>
<defs>
<linearGradient id="paint0_linear" x1="235.052" y1="362.558" x2="170.246" y2="379.287" gradientUnits="userSpaceOnUse">
<stop offset="0.0151515" stop-color="#FFA98C"/>
<stop offset="0.0748261" stop-color="#C46AA7"/>
<stop offset="0.1334" stop-color="#9033C0"/>
<stop offset="0.1616" stop-color="#7C1DC9"/>
<stop offset="0.3203" stop-color="#6E41D2"/>
<stop offset="0.67" stop-color="#4C9BE8"/>
<stop offset="1" stop-color="#2AF6FF"/>
</linearGradient>
<linearGradient id="paint1_linear" x1="225.154" y1="389.428" x2="160.349" y2="406.156" gradientUnits="userSpaceOnUse">
<stop offset="0.0151515" stop-color="#FFA98C"/>
<stop offset="0.0748261" stop-color="#C46AA7"/>
<stop offset="0.1334" stop-color="#9033C0"/>
<stop offset="0.1616" stop-color="#7C1DC9"/>
<stop offset="0.3203" stop-color="#6E41D2"/>
<stop offset="0.67" stop-color="#4C9BE8"/>
<stop offset="1" stop-color="#2AF6FF"/>
</linearGradient>
<linearGradient id="paint2_linear" x1="80.1709" y1="354.212" x2="116.937" y2="378.954" gradientUnits="userSpaceOnUse">
<stop offset="0.0151515" stop-color="#FFA98C"/>
<stop offset="0.0748261" stop-color="#C46AA7"/>
<stop offset="0.1334" stop-color="#9033C0"/>
<stop offset="0.1616" stop-color="#7C1DC9"/>
<stop offset="0.3203" stop-color="#6E41D2"/>
<stop offset="0.67" stop-color="#4C9BE8"/>
<stop offset="1" stop-color="#2AF6FF"/>
</linearGradient>
<linearGradient id="paint3_linear" x1="80.3479" y1="380.728" x2="117.114" y2="405.469" gradientUnits="userSpaceOnUse">
<stop offset="0.0151515" stop-color="#FFA98C"/>
<stop offset="0.0748261" stop-color="#C46AA7"/>
<stop offset="0.1334" stop-color="#9033C0"/>
<stop offset="0.1616" stop-color="#7C1DC9"/>
<stop offset="0.3203" stop-color="#6E41D2"/>
<stop offset="0.67" stop-color="#4C9BE8"/>
<stop offset="1" stop-color="#2AF6FF"/>
</linearGradient>
<linearGradient id="paint4_linear" x1="173.748" y1="463.121" x2="347.72" y2="411.038" gradientUnits="userSpaceOnUse">
<stop stop-color="#25054D"/>
<stop offset="1" stop-color="#45108A"/>
</linearGradient>
<linearGradient id="paint5_linear" x1="-5.92401" y1="484.21" x2="222.872" y2="432.931" gradientUnits="userSpaceOnUse">
<stop stop-color="#25054D"/>
<stop offset="1" stop-color="#45108A"/>
</linearGradient>
<linearGradient id="paint6_linear" x1="218.189" y1="292.433" x2="127.426" y2="465.375" gradientUnits="userSpaceOnUse">
<stop offset="0.7374" stop-color="#45108A"/>
<stop offset="1" stop-color="#3746A3"/>
</linearGradient>
<linearGradient id="paint7_linear" x1="133.149" y1="460.147" x2="295.635" y2="411.503" gradientUnits="userSpaceOnUse">
<stop offset="0.030303" stop-color="#7C1DC9"/>
<stop offset="0.2138" stop-color="#6E41D2"/>
<stop offset="0.6184" stop-color="#4C9BE8"/>
<stop offset="1" stop-color="#2AF6FF"/>
</linearGradient>
<linearGradient id="paint8_linear" x1="4.32375" y1="468.285" x2="218.023" y2="420.39" gradientUnits="userSpaceOnUse">
<stop offset="0.0353535" stop-color="#138BBD"/>
<stop offset="0.2257" stop-color="#169AC7"/>
<stop offset="0.5946" stop-color="#1FC3DF"/>
<stop offset="1" stop-color="#2AF6FF"/>
</linearGradient>
<linearGradient id="paint9_linear" x1="173.456" y1="440.751" x2="351.273" y2="387.517" gradientUnits="userSpaceOnUse">
<stop stop-color="#25054D"/>
<stop offset="1" stop-color="#45108A"/>
</linearGradient>
<linearGradient id="paint10_linear" x1="-8.41671" y1="462.312" x2="225.475" y2="409.891" gradientUnits="userSpaceOnUse">
<stop stop-color="#25054D"/>
<stop offset="1" stop-color="#45108A"/>
</linearGradient>
<linearGradient id="paint11_linear" x1="218.189" y1="266.33" x2="127.426" y2="439.272" gradientUnits="userSpaceOnUse">
<stop offset="0.7374" stop-color="#45108A"/>
<stop offset="1" stop-color="#3746A3"/>
</linearGradient>
<linearGradient id="paint12_linear" x1="133.149" y1="434.141" x2="295.635" y2="385.497" gradientUnits="userSpaceOnUse">
<stop offset="0.030303" stop-color="#7C1DC9"/>
<stop offset="0.2138" stop-color="#6E41D2"/>
<stop offset="0.6184" stop-color="#4C9BE8"/>
<stop offset="1" stop-color="#2AF6FF"/>
</linearGradient>
<linearGradient id="paint13_linear" x1="4.32375" y1="442.279" x2="218.023" y2="394.384" gradientUnits="userSpaceOnUse">
<stop offset="0.0353535" stop-color="#138BBD"/>
<stop offset="0.2257" stop-color="#169AC7"/>
<stop offset="0.5946" stop-color="#1FC3DF"/>
<stop offset="1" stop-color="#2AF6FF"/>
</linearGradient>
<linearGradient id="paint14_linear" x1="173.164" y1="411.188" x2="354.825" y2="356.803" gradientUnits="userSpaceOnUse">
<stop stop-color="#25054D"/>
<stop offset="1" stop-color="#45108A"/>
</linearGradient>
<linearGradient id="paint15_linear" x1="-10.9093" y1="433.22" x2="228.079" y2="379.657" gradientUnits="userSpaceOnUse">
<stop stop-color="#25054D"/>
<stop offset="1" stop-color="#45108A"/>
</linearGradient>
<linearGradient id="paint16_linear" x1="218.189" y1="233.034" x2="127.426" y2="405.976" gradientUnits="userSpaceOnUse">
<stop offset="0.7374" stop-color="#45108A"/>
<stop offset="1" stop-color="#3746A3"/>
</linearGradient>
<linearGradient id="paint17_linear" x1="133.149" y1="400.456" x2="295.635" y2="351.812" gradientUnits="userSpaceOnUse">
<stop offset="0.030303" stop-color="#7C1DC9"/>
<stop offset="0.2138" stop-color="#6E41D2"/>
<stop offset="0.6184" stop-color="#4C9BE8"/>
<stop offset="1" stop-color="#2AF6FF"/>
</linearGradient>
<linearGradient id="paint18_linear" x1="4.32375" y1="408.594" x2="218.023" y2="360.699" gradientUnits="userSpaceOnUse">
<stop offset="0.0353535" stop-color="#138BBD"/>
<stop offset="0.2257" stop-color="#169AC7"/>
<stop offset="0.5946" stop-color="#1FC3DF"/>
<stop offset="1" stop-color="#2AF6FF"/>
</linearGradient>
<linearGradient id="paint19_linear" x1="172.813" y1="372.753" x2="359.088" y2="316.987" gradientUnits="userSpaceOnUse">
<stop stop-color="#25054D"/>
<stop offset="1" stop-color="#45108A"/>
</linearGradient>
<linearGradient id="paint20_linear" x1="-13.9003" y1="395.35" x2="231.203" y2="340.417" gradientUnits="userSpaceOnUse">
<stop stop-color="#25054D"/>
<stop offset="1" stop-color="#45108A"/>
</linearGradient>
<linearGradient id="paint21_linear" x1="182.336" y1="258.46" x2="111.833" y2="392.798" gradientUnits="userSpaceOnUse">
<stop offset="0.1364" stop-color="#45108A"/>
<stop offset="1" stop-color="#3746A3"/>
</linearGradient>
<linearGradient id="paint22_linear" x1="172.628" y1="503.587" x2="164.142" y2="372.777" gradientUnits="userSpaceOnUse">
<stop offset="0.0151515" stop-color="#FFA98C"/>
<stop offset="0.0748261" stop-color="#C46AA7"/>
<stop offset="0.1334" stop-color="#9033C0"/>
<stop offset="0.1616" stop-color="#7C1DC9"/>
<stop offset="0.3203" stop-color="#6E41D2"/>
<stop offset="0.67" stop-color="#4C9BE8"/>
<stop offset="1" stop-color="#2AF6FF"/>
</linearGradient>
<linearGradient id="paint23_linear" x1="216.212" y1="502.957" x2="176.082" y2="408.124" gradientUnits="userSpaceOnUse">
<stop offset="0.0151515" stop-color="#FFA98C"/>
<stop offset="0.0748261" stop-color="#C46AA7"/>
<stop offset="0.1334" stop-color="#9033C0"/>
<stop offset="0.1616" stop-color="#7C1DC9"/>
<stop offset="0.3203" stop-color="#6E41D2"/>
<stop offset="0.67" stop-color="#4C9BE8"/>
<stop offset="1" stop-color="#2AF6FF"/>
</linearGradient>
<linearGradient id="paint24_linear" x1="23.7065" y1="450.541" x2="102.662" y2="382.676" gradientUnits="userSpaceOnUse">
<stop offset="0.0151515" stop-color="#FFA98C"/>
<stop offset="0.0748261" stop-color="#C46AA7"/>
<stop offset="0.1334" stop-color="#9033C0"/>
<stop offset="0.1616" stop-color="#7C1DC9"/>
<stop offset="0.3203" stop-color="#6E41D2"/>
<stop offset="0.67" stop-color="#4C9BE8"/>
<stop offset="1" stop-color="#2AF6FF"/>
</linearGradient>
<linearGradient id="paint25_linear" x1="51.7091" y1="482.922" x2="114.958" y2="426.884" gradientUnits="userSpaceOnUse">
<stop offset="0.0151515" stop-color="#FFA98C"/>
<stop offset="0.0748261" stop-color="#C46AA7"/>
<stop offset="0.1334" stop-color="#9033C0"/>
<stop offset="0.1616" stop-color="#7C1DC9"/>
<stop offset="0.3203" stop-color="#6E41D2"/>
<stop offset="0.67" stop-color="#4C9BE8"/>
<stop offset="1" stop-color="#2AF6FF"/>
</linearGradient>
<linearGradient id="paint26_linear" x1="126.691" y1="493.079" x2="133.912" y2="391.323" gradientUnits="userSpaceOnUse">
<stop offset="0.0151515" stop-color="#FFA98C"/>
<stop offset="0.0748261" stop-color="#C46AA7"/>
<stop offset="0.1334" stop-color="#9033C0"/>
<stop offset="0.1616" stop-color="#7C1DC9"/>
<stop offset="0.3203" stop-color="#6E41D2"/>
<stop offset="0.67" stop-color="#4C9BE8"/>
<stop offset="1" stop-color="#2AF6FF"/>
</linearGradient>
<linearGradient id="paint27_linear" x1="77.392" y1="505.829" x2="124.769" y2="448.093" gradientUnits="userSpaceOnUse">
<stop offset="0.0151515" stop-color="#FFA98C"/>
<stop offset="0.0748261" stop-color="#C46AA7"/>
<stop offset="0.1334" stop-color="#9033C0"/>
<stop offset="0.1616" stop-color="#7C1DC9"/>
<stop offset="0.3203" stop-color="#6E41D2"/>
<stop offset="0.67" stop-color="#4C9BE8"/>
<stop offset="1" stop-color="#2AF6FF"/>
</linearGradient>
<linearGradient id="paint28_linear" x1="259.311" y1="440.817" x2="193.317" y2="375.542" gradientUnits="userSpaceOnUse">
<stop offset="0.0151515" stop-color="#FFA98C"/>
<stop offset="0.0748261" stop-color="#C46AA7"/>
<stop offset="0.1334" stop-color="#9033C0"/>
<stop offset="0.1616" stop-color="#7C1DC9"/>
<stop offset="0.3203" stop-color="#6E41D2"/>
<stop offset="0.67" stop-color="#4C9BE8"/>
<stop offset="1" stop-color="#2AF6FF"/>
</linearGradient>
<linearGradient id="paint29_linear" x1="242.924" y1="470.981" x2="202.62" y2="425.904" gradientUnits="userSpaceOnUse">
<stop offset="0.0151515" stop-color="#FFA98C"/>
<stop offset="0.0748261" stop-color="#C46AA7"/>
<stop offset="0.1334" stop-color="#9033C0"/>
<stop offset="0.1616" stop-color="#7C1DC9"/>
<stop offset="0.3203" stop-color="#6E41D2"/>
<stop offset="0.67" stop-color="#4C9BE8"/>
<stop offset="1" stop-color="#2AF6FF"/>
</linearGradient>
<linearGradient id="paint30_linear" x1="122.139" y1="106.346" x2="163.511" y2="337.207" gradientUnits="userSpaceOnUse">
<stop offset="0.0151515" stop-color="#FFA98C"/>
<stop offset="0.0748261" stop-color="#C46AA7"/>
<stop offset="0.1334" stop-color="#9033C0"/>
<stop offset="0.1616" stop-color="#7C1DC9"/>
<stop offset="0.3203" stop-color="#6E41D2"/>
<stop offset="0.67" stop-color="#4C9BE8"/>
<stop offset="1" stop-color="#2AF6FF"/>
</linearGradient>
<linearGradient id="paint31_linear" x1="172.659" y1="136.126" x2="167.001" y2="322.797" gradientUnits="userSpaceOnUse">
<stop offset="0.0151515" stop-color="#FFA98C"/>
<stop offset="0.0748261" stop-color="#C46AA7"/>
<stop offset="0.1334" stop-color="#9033C0"/>
<stop offset="0.1616" stop-color="#7C1DC9"/>
<stop offset="0.3203" stop-color="#6E41D2"/>
<stop offset="0.67" stop-color="#4C9BE8"/>
<stop offset="1" stop-color="#2AF6FF"/>
</linearGradient>
<linearGradient id="paint32_linear" x1="72.0631" y1="142.658" x2="132.881" y2="302.451" gradientUnits="userSpaceOnUse">
<stop offset="0.0151515" stop-color="#FFA98C"/>
<stop offset="0.0748261" stop-color="#C46AA7"/>
<stop offset="0.1334" stop-color="#9033C0"/>
<stop offset="0.1616" stop-color="#7C1DC9"/>
<stop offset="0.3203" stop-color="#6E41D2"/>
<stop offset="0.67" stop-color="#4C9BE8"/>
<stop offset="1" stop-color="#2AF6FF"/>
</linearGradient>
<linearGradient id="paint33_linear" x1="59.8757" y1="187.688" x2="130.522" y2="238.544" gradientUnits="userSpaceOnUse">
<stop offset="0.0151515" stop-color="#FFA98C"/>
<stop offset="0.0748261" stop-color="#C46AA7"/>
<stop offset="0.1334" stop-color="#9033C0"/>
<stop offset="0.1616" stop-color="#7C1DC9"/>
<stop offset="0.3203" stop-color="#6E41D2"/>
<stop offset="0.67" stop-color="#4C9BE8"/>
<stop offset="1" stop-color="#2AF6FF"/>
</linearGradient>
<linearGradient id="paint34_linear" x1="109.476" y1="157.198" x2="148.372" y2="324.42" gradientUnits="userSpaceOnUse">
<stop offset="0.0151515" stop-color="#FFA98C"/>
<stop offset="0.0748261" stop-color="#C46AA7"/>
<stop offset="0.1334" stop-color="#9033C0"/>
<stop offset="0.1616" stop-color="#7C1DC9"/>
<stop offset="0.3203" stop-color="#6E41D2"/>
<stop offset="0.67" stop-color="#4C9BE8"/>
<stop offset="1" stop-color="#2AF6FF"/>
</linearGradient>
<linearGradient id="paint35_linear" x1="88.34" y1="152.3" x2="139.906" y2="152.3" gradientUnits="userSpaceOnUse">
<stop offset="0.0151515" stop-color="#FFA98C"/>
<stop offset="0.0748261" stop-color="#C46AA7"/>
<stop offset="0.1334" stop-color="#9033C0"/>
<stop offset="0.1616" stop-color="#7C1DC9"/>
<stop offset="0.3203" stop-color="#6E41D2"/>
<stop offset="0.67" stop-color="#4C9BE8"/>
<stop offset="1" stop-color="#2AF6FF"/>
</linearGradient>
<linearGradient id="paint36_linear" x1="199.924" y1="224.641" x2="235.305" y2="232.413" gradientUnits="userSpaceOnUse">
<stop stop-color="#FC5410"/>
<stop offset="1" stop-color="#F5D20F"/>
</linearGradient>
<linearGradient id="paint37_linear" x1="64.1905" y1="216.439" x2="99.5689" y2="224.21" gradientUnits="userSpaceOnUse">
<stop stop-color="#FC5410"/>
<stop offset="1" stop-color="#F5D20F"/>
</linearGradient>
<linearGradient id="paint38_linear" x1="22.7635" y1="129.609" x2="58.142" y2="137.38" gradientUnits="userSpaceOnUse">
<stop stop-color="#FC5410"/>
<stop offset="1" stop-color="#F5D20F"/>
</linearGradient>
<linearGradient id="paint39_linear" x1="67.7252" y1="137.404" x2="103.119" y2="145.142" gradientUnits="userSpaceOnUse">
<stop stop-color="#FC5410"/>
<stop offset="1" stop-color="#F5D20F"/>
</linearGradient>
<linearGradient id="paint40_linear" x1="26.7224" y1="176.559" x2="61.9499" y2="184.261" gradientUnits="userSpaceOnUse">
<stop stop-color="#FC5410"/>
<stop offset="1" stop-color="#F5D20F"/>
</linearGradient>
<linearGradient id="paint41_linear" x1="64.6146" y1="97.3657" x2="99.8421" y2="105.067" gradientUnits="userSpaceOnUse">
<stop stop-color="#FC5410"/>
<stop offset="1" stop-color="#F5D20F"/>
</linearGradient>
<linearGradient id="paint42_linear" x1="109.435" y1="79.1403" x2="144.829" y2="86.8781" gradientUnits="userSpaceOnUse">
<stop stop-color="#FC5410"/>
<stop offset="1" stop-color="#F5D20F"/>
</linearGradient>
<linearGradient id="paint43_linear" x1="132.906" y1="50.4152" x2="168.133" y2="58.1166" gradientUnits="userSpaceOnUse">
<stop stop-color="#FC5410"/>
<stop offset="1" stop-color="#F5D20F"/>
</linearGradient>
<linearGradient id="paint44_linear" x1="170.232" y1="69.5241" x2="205.477" y2="77.1938" gradientUnits="userSpaceOnUse">
<stop stop-color="#FC5410"/>
<stop offset="1" stop-color="#F5D20F"/>
</linearGradient>
<linearGradient id="paint45_linear" x1="182.25" y1="112.798" x2="217.495" y2="120.467" gradientUnits="userSpaceOnUse">
<stop stop-color="#FC5410"/>
<stop offset="1" stop-color="#F5D20F"/>
</linearGradient>
<linearGradient id="paint46_linear" x1="215.901" y1="80.8198" x2="251.279" y2="88.5908" gradientUnits="userSpaceOnUse">
<stop stop-color="#FC5410"/>
<stop offset="1" stop-color="#F5D20F"/>
</linearGradient>
<linearGradient id="paint47_linear" x1="232.868" y1="119.303" x2="268.261" y2="127.041" gradientUnits="userSpaceOnUse">
<stop stop-color="#FC5410"/>
<stop offset="1" stop-color="#F5D20F"/>
</linearGradient>
<linearGradient id="paint48_linear" x1="240.079" y1="172.476" x2="275.475" y2="180.214" gradientUnits="userSpaceOnUse">
<stop stop-color="#FC5410"/>
<stop offset="1" stop-color="#F5D20F"/>
</linearGradient>
<linearGradient id="paint49_linear" x1="227.898" y1="136.884" x2="154.353" y2="289.957" gradientUnits="userSpaceOnUse">
<stop offset="0.0151515" stop-color="#FFA98C"/>
<stop offset="0.0748261" stop-color="#C46AA7"/>
<stop offset="0.1334" stop-color="#9033C0"/>
<stop offset="0.1616" stop-color="#7C1DC9"/>
<stop offset="0.3203" stop-color="#6E41D2"/>
<stop offset="0.67" stop-color="#4C9BE8"/>
<stop offset="1" stop-color="#2AF6FF"/>
</linearGradient>
<linearGradient id="paint50_linear" x1="201.981" y1="242.415" x2="165.217" y2="260.794" gradientUnits="userSpaceOnUse">
<stop offset="0.0151515" stop-color="#FFA98C"/>
<stop offset="0.0748261" stop-color="#C46AA7"/>
<stop offset="0.1334" stop-color="#9033C0"/>
<stop offset="0.1616" stop-color="#7C1DC9"/>
<stop offset="0.3203" stop-color="#6E41D2"/>
<stop offset="0.67" stop-color="#4C9BE8"/>
<stop offset="1" stop-color="#2AF6FF"/>
</linearGradient>
<linearGradient id="paint51_linear" x1="234.192" y1="110.271" x2="171.611" y2="202.534" gradientUnits="userSpaceOnUse">
<stop offset="0.0151515" stop-color="#FFA98C"/>
<stop offset="0.0748261" stop-color="#C46AA7"/>
<stop offset="0.1334" stop-color="#9033C0"/>
<stop offset="0.1616" stop-color="#7C1DC9"/>
<stop offset="0.3203" stop-color="#6E41D2"/>
<stop offset="0.67" stop-color="#4C9BE8"/>
<stop offset="1" stop-color="#2AF6FF"/>
</linearGradient>
<linearGradient id="paint52_linear" x1="183.787" y1="96.1431" x2="153.379" y2="155.887" gradientUnits="userSpaceOnUse">
<stop offset="0.0151515" stop-color="#FFA98C"/>
<stop offset="0.0748261" stop-color="#C46AA7"/>
<stop offset="0.1334" stop-color="#9033C0"/>
<stop offset="0.1616" stop-color="#7C1DC9"/>
<stop offset="0.3203" stop-color="#6E41D2"/>
<stop offset="0.67" stop-color="#4C9BE8"/>
<stop offset="1" stop-color="#2AF6FF"/>
</linearGradient>
<linearGradient id="paint53_linear" x1="239.998" y1="185.668" x2="160.573" y2="244.106" gradientUnits="userSpaceOnUse">
<stop offset="0.0151515" stop-color="#FFA98C"/>
<stop offset="0.0748261" stop-color="#C46AA7"/>
<stop offset="0.1334" stop-color="#9033C0"/>
<stop offset="0.1616" stop-color="#7C1DC9"/>
<stop offset="0.3203" stop-color="#6E41D2"/>
<stop offset="0.67" stop-color="#4C9BE8"/>
<stop offset="1" stop-color="#2AF6FF"/>
</linearGradient>
<linearGradient id="paint54_linear" x1="98.4748" y1="228.725" x2="132.771" y2="278.215" gradientUnits="userSpaceOnUse">
<stop offset="0.0151515" stop-color="#FFA98C"/>
<stop offset="0.0748261" stop-color="#C46AA7"/>
<stop offset="0.1334" stop-color="#9033C0"/>
<stop offset="0.1616" stop-color="#7C1DC9"/>
<stop offset="0.3203" stop-color="#6E41D2"/>
<stop offset="0.67" stop-color="#4C9BE8"/>
<stop offset="1" stop-color="#2AF6FF"/>
</linearGradient>
<linearGradient id="paint55_linear" x1="147.826" y1="75.5088" x2="147.826" y2="137.501" gradientUnits="userSpaceOnUse">
<stop offset="0.0151515" stop-color="#FFA98C"/>
<stop offset="0.0748261" stop-color="#C46AA7"/>
<stop offset="0.1334" stop-color="#9033C0"/>
<stop offset="0.1616" stop-color="#7C1DC9"/>
<stop offset="0.3203" stop-color="#6E41D2"/>
<stop offset="0.67" stop-color="#4C9BE8"/>
<stop offset="1" stop-color="#2AF6FF"/>
</linearGradient>
<linearGradient id="paint56_linear" x1="207.842" y1="230.156" x2="222.593" y2="232.575" gradientUnits="userSpaceOnUse">
<stop stop-color="#FC5410"/>
<stop offset="1" stop-color="#F5D20F"/>
</linearGradient>
<linearGradient id="paint57_linear" x1="250.259" y1="176.312" x2="264.644" y2="178.172" gradientUnits="userSpaceOnUse">
<stop stop-color="#FC5410"/>
<stop offset="1" stop-color="#F5D20F"/>
</linearGradient>
<linearGradient id="paint58_linear" x1="242.624" y1="123.669" x2="256.243" y2="125.722" gradientUnits="userSpaceOnUse">
<stop stop-color="#FC5410"/>
<stop offset="1" stop-color="#F5D20F"/>
</linearGradient>
<linearGradient id="paint59_linear" x1="192.007" y1="116.987" x2="204.716" y2="118.477" gradientUnits="userSpaceOnUse">
<stop stop-color="#FC5410"/>
<stop offset="1" stop-color="#F5D20F"/>
</linearGradient>
<linearGradient id="paint60_linear" x1="178.15" y1="74.8095" x2="192.713" y2="77.2542" gradientUnits="userSpaceOnUse">
<stop stop-color="#FC5410"/>
<stop offset="1" stop-color="#F5D20F"/>
</linearGradient>
<linearGradient id="paint61_linear" x1="30.1158" y1="134.841" x2="44.8668" y2="137.26" gradientUnits="userSpaceOnUse">
<stop stop-color="#FC5410"/>
<stop offset="1" stop-color="#F5D20F"/>
</linearGradient>
<linearGradient id="paint62_linear" x1="143.086" y1="53.8444" x2="157.471" y2="55.7047" gradientUnits="userSpaceOnUse">
<stop stop-color="#FC5410"/>
<stop offset="1" stop-color="#F5D20F"/>
</linearGradient>
<linearGradient id="paint63_linear" x1="74.5122" y1="102.174" x2="88.1314" y2="104.227" gradientUnits="userSpaceOnUse">
<stop stop-color="#FC5410"/>
<stop offset="1" stop-color="#F5D20F"/>
</linearGradient>
<linearGradient id="paint64_linear" x1="36.6196" y1="180.536" x2="49.1688" y2="181.957" gradientUnits="userSpaceOnUse">
<stop stop-color="#FC5410"/>
<stop offset="1" stop-color="#F5D20F"/>
</linearGradient>
<linearGradient id="paint65_linear" x1="222.971" y1="89.2517" x2="234.895" y2="91.5367" gradientUnits="userSpaceOnUse">
<stop stop-color="#FC5410"/>
<stop offset="1" stop-color="#F5D20F"/>
</linearGradient>
<linearGradient id="paint66_linear" x1="233.575" y1="85.3981" x2="239.468" y2="85.7927" gradientUnits="userSpaceOnUse">
<stop stop-color="#FC5410"/>
<stop offset="1" stop-color="#F5D20F"/>
</linearGradient>
<linearGradient id="paint67_linear" x1="119.757" y1="84.691" x2="133.832" y2="86.9919" gradientUnits="userSpaceOnUse">
<stop stop-color="#FC5410"/>
<stop offset="1" stop-color="#F5D20F"/>
</linearGradient>
<linearGradient id="paint68_linear" x1="76.7743" y1="142.831" x2="91.3889" y2="145.121" gradientUnits="userSpaceOnUse">
<stop stop-color="#FC5410"/>
<stop offset="1" stop-color="#F5D20F"/>
</linearGradient>
<linearGradient id="paint69_linear" x1="72.5326" y1="221.883" x2="84.0018" y2="223.383" gradientUnits="userSpaceOnUse">
<stop stop-color="#FC5410"/>
<stop offset="1" stop-color="#F5D20F"/>
</linearGradient>
<linearGradient id="paint70_linear" x1="83.5609" y1="225.33" x2="91.1202" y2="226.206" gradientUnits="userSpaceOnUse">
<stop stop-color="#FC5410"/>
<stop offset="1" stop-color="#F5D20F"/>
</linearGradient>
<clipPath id="clip0">
<rect width="344" height="505" fill="white"/>
</clipPath>
</defs>
</svg>
